{
  "title" : "",
  "description" : "",
  "author" : "",
  "targetLoudness" : -18.0,
  "shouldApplyLoudnessNormalization" : true,
  "videoFormatFrameRate" : 30,
  "audioFormatSampleRate" : 44100,
  "width" : 1920.0,
  "height" : 1080.0,
  "version" : "4.0",
  "editRate" : 30,
  "authoringClientName" :  {
    "name" : "Camtasia",
    "platform" : "Windows",
    "version" : "20.0"
  },
  "sourceBin" : [
    {
      "id" : 1,
      "src" : "C:\\Users\\ohund\\Documents\\Camtasia\\Medium\\A comparative study on different Models for Commun\\01-A comparative study on different Models for Commun-A comparative study on different Models for Community Detection.png",
      "rect" : [0, 0, 1920, 1080],
      "lastMod" : "20200617T195237",
      "sourceTracks" : [
        {
          "range" : [0, 1],
          "type" : 1,
          "editRate" : 10000000,
          "trackRect" : [0, 0, 1920, 1080],
          "sampleRate" : 0,
          "bitDepth" : 8,
          "numChannels" : 0,
          "integratedLUFS" : 100.0,
          "peakLevel" : -1.0,
          "metaData" : ""
        }
      ],
      "metadata" : {
        "timeAdded" : "20200617T195241.331520"
      }
    },
    {
      "id" : 2,
      "src" : "C:\\Users\\ohund\\Documents\\Camtasia\\Medium\\A comparative study on different Models for Commun\\02-A comparative study on different Models for Commun-Research Question.png",
      "rect" : [0, 0, 1920, 1080],
      "lastMod" : "20200617T195237",
      "sourceTracks" : [
        {
          "range" : [0, 1],
          "type" : 1,
          "editRate" : 10000000,
          "trackRect" : [0, 0, 1920, 1080],
          "sampleRate" : 0,
          "bitDepth" : 8,
          "numChannels" : 0,
          "integratedLUFS" : 100.0,
          "peakLevel" : -1.0,
          "metaData" : ""
        }
      ],
      "metadata" : {
        "timeAdded" : "20200617T195241.333548"
      }
    },
    {
      "id" : 3,
      "src" : "C:\\Users\\ohund\\Documents\\Camtasia\\Medium\\A comparative study on different Models for Commun\\03-A comparative study on different Models for Commun-Experimental Setup.png",
      "rect" : [0, 0, 1920, 1080],
      "lastMod" : "20200617T195237",
      "sourceTracks" : [
        {
          "range" : [0, 1],
          "type" : 1,
          "editRate" : 10000000,
          "trackRect" : [0, 0, 1920, 1080],
          "sampleRate" : 0,
          "bitDepth" : 24,
          "numChannels" : 0,
          "integratedLUFS" : 100.0,
          "peakLevel" : -1.0,
          "metaData" : ""
        }
      ],
      "metadata" : {
        "timeAdded" : "20200617T195241.334513"
      }
    },
    {
      "id" : 4,
      "src" : "C:\\Users\\ohund\\Documents\\Camtasia\\Medium\\A comparative study on different Models for Commun\\04-A comparative study on different Models for Commun-Louvain-Core.png",
      "rect" : [0, 0, 1920, 1080],
      "lastMod" : "20200617T195238",
      "sourceTracks" : [
        {
          "range" : [0, 1],
          "type" : 1,
          "editRate" : 10000000,
          "trackRect" : [0, 0, 1920, 1080],
          "sampleRate" : 0,
          "bitDepth" : 24,
          "numChannels" : 0,
          "integratedLUFS" : 100.0,
          "peakLevel" : -1.0,
          "metaData" : ""
        }
      ],
      "metadata" : {
        "timeAdded" : "20200617T195241.335511"
      }
    },
    {
      "id" : 5,
      "src" : "C:\\Users\\ohund\\Documents\\Camtasia\\Medium\\A comparative study on different Models for Commun\\05-A comparative study on different Models for Commun-Models.png",
      "rect" : [0, 0, 1920, 1080],
      "lastMod" : "20200617T195238",
      "sourceTracks" : [
        {
          "range" : [0, 1],
          "type" : 1,
          "editRate" : 10000000,
          "trackRect" : [0, 0, 1920, 1080],
          "sampleRate" : 0,
          "bitDepth" : 8,
          "numChannels" : 0,
          "integratedLUFS" : 100.0,
          "peakLevel" : -1.0,
          "metaData" : ""
        }
      ],
      "metadata" : {
        "timeAdded" : "20200617T195241.337536"
      }
    },
    {
      "id" : 6,
      "src" : "C:\\Users\\ohund\\Documents\\Camtasia\\Medium\\A comparative study on different Models for Commun\\06-A comparative study on different Models for Commun-Models – MapEquation.png",
      "rect" : [0, 0, 1920, 1080],
      "lastMod" : "20200617T195238",
      "sourceTracks" : [
        {
          "range" : [0, 1],
          "type" : 1,
          "editRate" : 10000000,
          "trackRect" : [0, 0, 1920, 1080],
          "sampleRate" : 0,
          "bitDepth" : 24,
          "numChannels" : 0,
          "integratedLUFS" : 100.0,
          "peakLevel" : -1.0,
          "metaData" : ""
        }
      ],
      "metadata" : {
        "timeAdded" : "20200617T195241.338552"
      }
    },
    {
      "id" : 7,
      "src" : "C:\\Users\\ohund\\Documents\\Camtasia\\Medium\\A comparative study on different Models for Commun\\07-A comparative study on different Models for Commun-Models – MapEquation.png",
      "rect" : [0, 0, 1920, 1080],
      "lastMod" : "20200617T195238",
      "sourceTracks" : [
        {
          "range" : [0, 1],
          "type" : 1,
          "editRate" : 10000000,
          "trackRect" : [0, 0, 1920, 1080],
          "sampleRate" : 0,
          "bitDepth" : 24,
          "numChannels" : 0,
          "integratedLUFS" : 100.0,
          "peakLevel" : -1.0,
          "metaData" : ""
        }
      ],
      "metadata" : {
        "timeAdded" : "20200617T195241.339552"
      }
    },
    {
      "id" : 8,
      "src" : "C:\\Users\\ohund\\Documents\\Camtasia\\Medium\\A comparative study on different Models for Commun\\08-A comparative study on different Models for Commun-Models.png",
      "rect" : [0, 0, 1920, 1080],
      "lastMod" : "20200617T195238",
      "sourceTracks" : [
        {
          "range" : [0, 1],
          "type" : 1,
          "editRate" : 10000000,
          "trackRect" : [0, 0, 1920, 1080],
          "sampleRate" : 0,
          "bitDepth" : 8,
          "numChannels" : 0,
          "integratedLUFS" : 100.0,
          "peakLevel" : -1.0,
          "metaData" : ""
        }
      ],
      "metadata" : {
        "timeAdded" : "20200617T195241.341494"
      }
    },
    {
      "id" : 9,
      "src" : "C:\\Users\\ohund\\Documents\\Camtasia\\Medium\\A comparative study on different Models for Commun\\09-A comparative study on different Models for Commun-Models – Node-Similarity.png",
      "rect" : [0, 0, 1920, 1080],
      "lastMod" : "20200617T195239",
      "sourceTracks" : [
        {
          "range" : [0, 1],
          "type" : 1,
          "editRate" : 10000000,
          "trackRect" : [0, 0, 1920, 1080],
          "sampleRate" : 0,
          "bitDepth" : 24,
          "numChannels" : 0,
          "integratedLUFS" : 100.0,
          "peakLevel" : -1.0,
          "metaData" : ""
        }
      ],
      "metadata" : {
        "timeAdded" : "20200617T195241.343489"
      }
    },
    {
      "id" : 10,
      "src" : "C:\\Users\\ohund\\Documents\\Camtasia\\Medium\\A comparative study on different Models for Commun\\10-A comparative study on different Models for Commun-Models – Node-Similarity.png",
      "rect" : [0, 0, 1920, 1080],
      "lastMod" : "20200617T195239",
      "sourceTracks" : [
        {
          "range" : [0, 1],
          "type" : 1,
          "editRate" : 10000000,
          "trackRect" : [0, 0, 1920, 1080],
          "sampleRate" : 0,
          "bitDepth" : 24,
          "numChannels" : 0,
          "integratedLUFS" : 100.0,
          "peakLevel" : -1.0,
          "metaData" : ""
        }
      ],
      "metadata" : {
        "timeAdded" : "20200617T195241.345519"
      }
    },
    {
      "id" : 11,
      "src" : "C:\\Users\\ohund\\Documents\\Camtasia\\Medium\\A comparative study on different Models for Commun\\11-A comparative study on different Models for Commun-Models – Node-Similarity.png",
      "rect" : [0, 0, 1920, 1080],
      "lastMod" : "20200617T195239",
      "sourceTracks" : [
        {
          "range" : [0, 1],
          "type" : 1,
          "editRate" : 10000000,
          "trackRect" : [0, 0, 1920, 1080],
          "sampleRate" : 0,
          "bitDepth" : 24,
          "numChannels" : 0,
          "integratedLUFS" : 100.0,
          "peakLevel" : -1.0,
          "metaData" : ""
        }
      ],
      "metadata" : {
        "timeAdded" : "20200617T195241.347479"
      }
    },
    {
      "id" : 12,
      "src" : "C:\\Users\\ohund\\Documents\\Camtasia\\Medium\\A comparative study on different Models for Commun\\12-A comparative study on different Models for Commun-Models - Baselines.png",
      "rect" : [0, 0, 1920, 1080],
      "lastMod" : "20200617T195239",
      "sourceTracks" : [
        {
          "range" : [0, 1],
          "type" : 1,
          "editRate" : 10000000,
          "trackRect" : [0, 0, 1920, 1080],
          "sampleRate" : 0,
          "bitDepth" : 8,
          "numChannels" : 0,
          "integratedLUFS" : 100.0,
          "peakLevel" : -1.0,
          "metaData" : ""
        }
      ],
      "metadata" : {
        "timeAdded" : "20200617T195241.350502"
      }
    },
    {
      "id" : 13,
      "src" : "C:\\Users\\ohund\\Documents\\Camtasia\\Medium\\A comparative study on different Models for Commun\\13-A comparative study on different Models for Commun-Results - Baselines.png",
      "rect" : [0, 0, 1920, 1080],
      "lastMod" : "20200617T195239",
      "sourceTracks" : [
        {
          "range" : [0, 1],
          "type" : 1,
          "editRate" : 10000000,
          "trackRect" : [0, 0, 1920, 1080],
          "sampleRate" : 0,
          "bitDepth" : 24,
          "numChannels" : 0,
          "integratedLUFS" : 100.0,
          "peakLevel" : -1.0,
          "metaData" : ""
        }
      ],
      "metadata" : {
        "timeAdded" : "20200617T195241.352496"
      }
    },
    {
      "id" : 14,
      "src" : "C:\\Users\\ohund\\Documents\\Camtasia\\Medium\\A comparative study on different Models for Commun\\14-A comparative study on different Models for Commun-Results - Models.png",
      "rect" : [0, 0, 1920, 1080],
      "lastMod" : "20200617T195239",
      "sourceTracks" : [
        {
          "range" : [0, 1],
          "type" : 1,
          "editRate" : 10000000,
          "trackRect" : [0, 0, 1920, 1080],
          "sampleRate" : 0,
          "bitDepth" : 24,
          "numChannels" : 0,
          "integratedLUFS" : 100.0,
          "peakLevel" : -1.0,
          "metaData" : ""
        }
      ],
      "metadata" : {
        "timeAdded" : "20200617T195241.354460"
      }
    },
    {
      "id" : 15,
      "src" : "C:\\Users\\ohund\\Documents\\Camtasia\\Medium\\A comparative study on different Models for Commun\\15-A comparative study on different Models for Commun-Results –MapEquation in Depth.png",
      "rect" : [0, 0, 1920, 1080],
      "lastMod" : "20200617T195240",
      "sourceTracks" : [
        {
          "range" : [0, 1],
          "type" : 1,
          "editRate" : 10000000,
          "trackRect" : [0, 0, 1920, 1080],
          "sampleRate" : 0,
          "bitDepth" : 24,
          "numChannels" : 0,
          "integratedLUFS" : 100.0,
          "peakLevel" : -1.0,
          "metaData" : ""
        }
      ],
      "metadata" : {
        "timeAdded" : "20200617T195241.356455"
      }
    },
    {
      "id" : 16,
      "src" : "C:\\Users\\ohund\\Documents\\Camtasia\\Medium\\A comparative study on different Models for Commun\\16-A comparative study on different Models for Commun-Results - Models.png",
      "rect" : [0, 0, 1920, 1080],
      "lastMod" : "20200617T195240",
      "sourceTracks" : [
        {
          "range" : [0, 1],
          "type" : 1,
          "editRate" : 10000000,
          "trackRect" : [0, 0, 1920, 1080],
          "sampleRate" : 0,
          "bitDepth" : 24,
          "numChannels" : 0,
          "integratedLUFS" : 100.0,
          "peakLevel" : -1.0,
          "metaData" : ""
        }
      ],
      "metadata" : {
        "timeAdded" : "20200617T195241.358473"
      }
    },
    {
      "id" : 17,
      "src" : "C:\\Users\\ohund\\Documents\\Camtasia\\Medium\\A comparative study on different Models for Commun\\17-A comparative study on different Models for Commun-Summary.png",
      "rect" : [0, 0, 1920, 1080],
      "lastMod" : "20200617T195241",
      "sourceTracks" : [
        {
          "range" : [0, 1],
          "type" : 1,
          "editRate" : 10000000,
          "trackRect" : [0, 0, 1920, 1080],
          "sampleRate" : 0,
          "bitDepth" : 8,
          "numChannels" : 0,
          "integratedLUFS" : 100.0,
          "peakLevel" : -1.0,
          "metaData" : ""
        }
      ],
      "metadata" : {
        "timeAdded" : "20200617T195241.361441"
      }
    },
    {
      "id" : 18,
      "src" : "C:\\Users\\ohund\\Documents\\Camtasia\\Aufn. 06-17-20_009.trec",
      "rect" : [0, 0, 1920, 1080],
      "lastMod" : "20200617T200214",
      "sourceTracks" : [
        {
          "range" : [0, 720960],
          "type" : 0,
          "editRate" : 30000,
          "trackRect" : [0, 0, 1920, 1080],
          "sampleRate" : 24,
          "bitDepth" : 0,
          "numChannels" : 0,
          "integratedLUFS" : 100.0,
          "peakLevel" : -1.0,
          "metaData" : ""
        },
        {
          "range" : [0, 1062912],
          "type" : 2,
          "editRate" : 44100,
          "trackRect" : [0, 0, 0, 0],
          "sampleRate" : 44100,
          "bitDepth" : 16,
          "numChannels" : 2,
          "integratedLUFS" : -10.5235522833212,
          "peakLevel" : 0.999359130859375,
          "metaData" : ""
        }
      ],
      "metadata" : {
        "timeAdded" : "20200617T200214.430474"
      }
    },
    {
      "id" : 19,
      "src" : "C:\\Users\\ohund\\Documents\\Camtasia\\Aufn. 06-17-20_010.trec",
      "rect" : [0, 0, 1920, 1080],
      "lastMod" : "20200617T200448",
      "sourceTracks" : [
        {
          "range" : [0, 451200],
          "type" : 0,
          "editRate" : 30000,
          "trackRect" : [0, 0, 1920, 1080],
          "sampleRate" : 24,
          "bitDepth" : 0,
          "numChannels" : 0,
          "integratedLUFS" : 100.0,
          "peakLevel" : -1.0,
          "metaData" : ""
        },
        {
          "range" : [0, 665600],
          "type" : 2,
          "editRate" : 44100,
          "trackRect" : [0, 0, 0, 0],
          "sampleRate" : 44100,
          "bitDepth" : 16,
          "numChannels" : 2,
          "integratedLUFS" : -10.8923177506776,
          "peakLevel" : 0.996826171875,
          "metaData" : ""
        }
      ],
      "metadata" : {
        "timeAdded" : "20200617T200448.746508"
      }
    },
    {
      "id" : 20,
      "src" : "C:\\Users\\ohund\\Documents\\Camtasia\\Aufn. 06-17-20_011.trec",
      "rect" : [0, 0, 1920, 1080],
      "lastMod" : "20200617T200705",
      "sourceTracks" : [
        {
          "range" : [0, 1303244],
          "type" : 0,
          "editRate" : 30000,
          "trackRect" : [0, 0, 1920, 1080],
          "sampleRate" : 24,
          "bitDepth" : 0,
          "numChannels" : 0,
          "integratedLUFS" : 100.0,
          "peakLevel" : -1.0,
          "metaData" : ""
        },
        {
          "range" : [0, 1915904],
          "type" : 2,
          "editRate" : 44100,
          "trackRect" : [0, 0, 0, 0],
          "sampleRate" : 44100,
          "bitDepth" : 16,
          "numChannels" : 2,
          "integratedLUFS" : -10.2228481770667,
          "peakLevel" : 0.999969482421875,
          "metaData" : ""
        }
      ],
      "metadata" : {
        "timeAdded" : "20200617T200705.664808"
      }
    },
    {
      "id" : 21,
      "src" : "C:\\Users\\ohund\\Documents\\Camtasia\\Aufn. 06-17-20_012.trec",
      "rect" : [0, 0, 1920, 1080],
      "lastMod" : "20200617T201516",
      "sourceTracks" : [
        {
          "range" : [0, 580799],
          "type" : 0,
          "editRate" : 30000,
          "trackRect" : [0, 0, 1920, 1080],
          "sampleRate" : 24,
          "bitDepth" : 0,
          "numChannels" : 0,
          "integratedLUFS" : 100.0,
          "peakLevel" : -1.0,
          "metaData" : ""
        },
        {
          "range" : [0, 856064],
          "type" : 2,
          "editRate" : 44100,
          "trackRect" : [0, 0, 0, 0],
          "sampleRate" : 44100,
          "bitDepth" : 16,
          "numChannels" : 2,
          "integratedLUFS" : -10.7148963609116,
          "peakLevel" : 0.999725341796875,
          "metaData" : ""
        }
      ],
      "metadata" : {
        "timeAdded" : "20200617T201517.001649"
      }
    },
    {
      "id" : 22,
      "src" : "C:\\Users\\ohund\\Documents\\Camtasia\\Aufn. 06-17-20_013.trec",
      "rect" : [0, 0, 1920, 1080],
      "lastMod" : "20200617T201756",
      "sourceTracks" : [
        {
          "range" : [0, 1082954],
          "type" : 0,
          "editRate" : 30000,
          "trackRect" : [0, 0, 1920, 1080],
          "sampleRate" : 23,
          "bitDepth" : 0,
          "numChannels" : 0,
          "integratedLUFS" : 100.0,
          "peakLevel" : -1.0,
          "metaData" : ""
        },
        {
          "range" : [0, 1592320],
          "type" : 2,
          "editRate" : 44100,
          "trackRect" : [0, 0, 0, 0],
          "sampleRate" : 44100,
          "bitDepth" : 16,
          "numChannels" : 2,
          "integratedLUFS" : -10.7190247240217,
          "peakLevel" : 0.99969482421875,
          "metaData" : ""
        }
      ],
      "metadata" : {
        "timeAdded" : "20200617T201756.948096"
      }
    },
    {
      "id" : 23,
      "src" : "C:\\Users\\ohund\\Documents\\Camtasia\\Aufn. 06-17-20_014.trec",
      "rect" : [0, 0, 1920, 1080],
      "lastMod" : "20200617T202112",
      "sourceTracks" : [
        {
          "range" : [0, 405125],
          "type" : 0,
          "editRate" : 30000,
          "trackRect" : [0, 0, 1920, 1080],
          "sampleRate" : 23,
          "bitDepth" : 0,
          "numChannels" : 0,
          "integratedLUFS" : 100.0,
          "peakLevel" : -1.0,
          "metaData" : ""
        },
        {
          "range" : [0, 598016],
          "type" : 2,
          "editRate" : 44100,
          "trackRect" : [0, 0, 0, 0],
          "sampleRate" : 44100,
          "bitDepth" : 16,
          "numChannels" : 2,
          "integratedLUFS" : -10.3329518166652,
          "peakLevel" : 0.997283935546875,
          "metaData" : ""
        }
      ],
      "metadata" : {
        "timeAdded" : "20200617T202112.228198"
      }
    },
    {
      "id" : 24,
      "src" : "C:\\Users\\ohund\\Documents\\Camtasia\\Aufn. 06-17-20_015.trec",
      "rect" : [0, 0, 1920, 1080],
      "lastMod" : "20200617T202418",
      "sourceTracks" : [
        {
          "range" : [0, 226079],
          "type" : 0,
          "editRate" : 30000,
          "trackRect" : [0, 0, 1920, 1080],
          "sampleRate" : 24,
          "bitDepth" : 0,
          "numChannels" : 0,
          "integratedLUFS" : 100.0,
          "peakLevel" : -1.0,
          "metaData" : ""
        },
        {
          "range" : [0, 334848],
          "type" : 2,
          "editRate" : 44100,
          "trackRect" : [0, 0, 0, 0],
          "sampleRate" : 44100,
          "bitDepth" : 16,
          "numChannels" : 2,
          "integratedLUFS" : -11.0643340289584,
          "peakLevel" : 0.996917724609375,
          "metaData" : ""
        }
      ],
      "metadata" : {
        "timeAdded" : "20200617T202418.903106"
      }
    },
    {
      "id" : 25,
      "src" : "C:\\Users\\ohund\\Documents\\Camtasia\\Aufn. 06-17-20_016.trec",
      "rect" : [0, 0, 1920, 1080],
      "lastMod" : "20200617T203151",
      "sourceTracks" : [
        {
          "range" : [0, 1080025],
          "type" : 0,
          "editRate" : 30000,
          "trackRect" : [0, 0, 1920, 1080],
          "sampleRate" : 23,
          "bitDepth" : 0,
          "numChannels" : 0,
          "integratedLUFS" : 100.0,
          "peakLevel" : -1.0,
          "metaData" : ""
        },
        {
          "range" : [0, 1589248],
          "type" : 2,
          "editRate" : 44100,
          "trackRect" : [0, 0, 0, 0],
          "sampleRate" : 44100,
          "bitDepth" : 16,
          "numChannels" : 2,
          "integratedLUFS" : -10.6545126351035,
          "peakLevel" : 0.99737548828125,
          "metaData" : ""
        }
      ],
      "metadata" : {
        "timeAdded" : "20200617T203151.845921"
      }
    },
    {
      "id" : 26,
      "src" : "C:\\Users\\ohund\\Documents\\Camtasia\\Aufn. 06-17-20_017.trec",
      "rect" : [0, 0, 1920, 1080],
      "lastMod" : "20200617T203740",
      "sourceTracks" : [
        {
          "range" : [0, 657595],
          "type" : 0,
          "editRate" : 30000,
          "trackRect" : [0, 0, 1920, 1080],
          "sampleRate" : 23,
          "bitDepth" : 0,
          "numChannels" : 0,
          "integratedLUFS" : 100.0,
          "peakLevel" : -1.0,
          "metaData" : ""
        },
        {
          "range" : [0, 969728],
          "type" : 2,
          "editRate" : 44100,
          "trackRect" : [0, 0, 0, 0],
          "sampleRate" : 44100,
          "bitDepth" : 16,
          "numChannels" : 2,
          "integratedLUFS" : -10.3191247455513,
          "peakLevel" : 0.999969482421875,
          "metaData" : ""
        }
      ],
      "metadata" : {
        "timeAdded" : "20200617T203740.208164"
      }
    },
    {
      "id" : 27,
      "src" : "C:\\Users\\ohund\\Documents\\Camtasia\\Aufn. 06-17-20_018.trec",
      "rect" : [0, 0, 1920, 1080],
      "lastMod" : "20200617T204316",
      "sourceTracks" : [
        {
          "range" : [0, 554923],
          "type" : 0,
          "editRate" : 30000,
          "trackRect" : [0, 0, 1920, 1080],
          "sampleRate" : 24,
          "bitDepth" : 0,
          "numChannels" : 0,
          "integratedLUFS" : 100.0,
          "peakLevel" : -1.0,
          "metaData" : ""
        },
        {
          "range" : [0, 817152],
          "type" : 2,
          "editRate" : 44100,
          "trackRect" : [0, 0, 0, 0],
          "sampleRate" : 44100,
          "bitDepth" : 16,
          "numChannels" : 2,
          "integratedLUFS" : -10.5819366287399,
          "peakLevel" : 0.99627685546875,
          "metaData" : ""
        }
      ],
      "metadata" : {
        "timeAdded" : "20200617T204316.564364"
      }
    },
    {
      "id" : 28,
      "src" : "C:\\Users\\ohund\\Documents\\Camtasia\\Aufn. 06-17-20_019.trec",
      "rect" : [0, 0, 1920, 1080],
      "lastMod" : "20200617T205400",
      "sourceTracks" : [
        {
          "range" : [0, 1064720],
          "type" : 0,
          "editRate" : 30000,
          "trackRect" : [0, 0, 1920, 1080],
          "sampleRate" : 24,
          "bitDepth" : 0,
          "numChannels" : 0,
          "integratedLUFS" : 100.0,
          "peakLevel" : -1.0,
          "metaData" : ""
        },
        {
          "range" : [0, 1566720],
          "type" : 2,
          "editRate" : 44100,
          "trackRect" : [0, 0, 0, 0],
          "sampleRate" : 44100,
          "bitDepth" : 16,
          "numChannels" : 2,
          "integratedLUFS" : -10.9339859965673,
          "peakLevel" : 0.999267578125,
          "metaData" : ""
        }
      ],
      "metadata" : {
        "timeAdded" : "20200617T205400.343061"
      }
    },
    {
      "id" : 29,
      "src" : "C:\\Users\\ohund\\Documents\\Camtasia\\Aufn. 06-17-20_020.trec",
      "rect" : [0, 0, 1920, 1080],
      "lastMod" : "20200617T210118",
      "sourceTracks" : [
        {
          "range" : [0, 595201],
          "type" : 0,
          "editRate" : 30000,
          "trackRect" : [0, 0, 1920, 1080],
          "sampleRate" : 23,
          "bitDepth" : 0,
          "numChannels" : 0,
          "integratedLUFS" : 100.0,
          "peakLevel" : -1.0,
          "metaData" : ""
        },
        {
          "range" : [0, 875520],
          "type" : 2,
          "editRate" : 44100,
          "trackRect" : [0, 0, 0, 0],
          "sampleRate" : 44100,
          "bitDepth" : 16,
          "numChannels" : 2,
          "integratedLUFS" : -10.8082638894695,
          "peakLevel" : 0.9959716796875,
          "metaData" : ""
        }
      ],
      "metadata" : {
        "timeAdded" : "20200617T210118.508206"
      }
    },
    {
      "id" : 30,
      "src" : "C:\\Users\\ohund\\Documents\\Camtasia\\Aufn. 06-17-20_021.trec",
      "rect" : [0, 0, 1920, 1080],
      "lastMod" : "20200617T210234",
      "sourceTracks" : [
        {
          "range" : [0, 1426162],
          "type" : 0,
          "editRate" : 30000,
          "trackRect" : [0, 0, 1920, 1080],
          "sampleRate" : 24,
          "bitDepth" : 0,
          "numChannels" : 0,
          "integratedLUFS" : 100.0,
          "peakLevel" : -1.0,
          "metaData" : ""
        },
        {
          "range" : [0, 2093056],
          "type" : 2,
          "editRate" : 44100,
          "trackRect" : [0, 0, 0, 0],
          "sampleRate" : 44100,
          "bitDepth" : 16,
          "numChannels" : 2,
          "integratedLUFS" : -11.0426870444078,
          "peakLevel" : 0.99969482421875,
          "metaData" : ""
        }
      ],
      "metadata" : {
        "timeAdded" : "20200617T210234.886061"
      }
    },
    {
      "id" : 31,
      "src" : "C:\\Users\\ohund\\Documents\\Camtasia\\Aufn. 06-17-20_022.trec",
      "rect" : [0, 0, 1920, 1080],
      "lastMod" : "20200617T211213",
      "sourceTracks" : [
        {
          "range" : [0, 1520160],
          "type" : 0,
          "editRate" : 30000,
          "trackRect" : [0, 0, 1920, 1080],
          "sampleRate" : 23,
          "bitDepth" : 0,
          "numChannels" : 0,
          "integratedLUFS" : 100.0,
          "peakLevel" : -1.0,
          "metaData" : ""
        },
        {
          "range" : [0, 2235392],
          "type" : 2,
          "editRate" : 44100,
          "trackRect" : [0, 0, 0, 0],
          "sampleRate" : 44100,
          "bitDepth" : 16,
          "numChannels" : 2,
          "integratedLUFS" : -10.9490815099442,
          "peakLevel" : 0.997406005859375,
          "metaData" : ""
        }
      ],
      "metadata" : {
        "timeAdded" : "20200617T211214.014698"
      }
    },
    {
      "id" : 32,
      "src" : "C:\\Users\\ohund\\Documents\\Camtasia\\Aufn. 06-17-20_023.trec",
      "rect" : [0, 0, 1920, 1080],
      "lastMod" : "20200617T211747",
      "sourceTracks" : [
        {
          "range" : [0, 809801],
          "type" : 0,
          "editRate" : 30000,
          "trackRect" : [0, 0, 1920, 1080],
          "sampleRate" : 24,
          "bitDepth" : 0,
          "numChannels" : 0,
          "integratedLUFS" : 100.0,
          "peakLevel" : -1.0,
          "metaData" : ""
        },
        {
          "range" : [0, 1188864],
          "type" : 2,
          "editRate" : 44100,
          "trackRect" : [0, 0, 0, 0],
          "sampleRate" : 44100,
          "bitDepth" : 16,
          "numChannels" : 2,
          "integratedLUFS" : -11.2179687674653,
          "peakLevel" : 0.995635986328125,
          "metaData" : ""
        }
      ],
      "metadata" : {
        "timeAdded" : "20200617T211748.017234"
      }
    },
    {
      "id" : 33,
      "src" : "C:\\Users\\ohund\\Documents\\Camtasia\\Aufn. 06-17-20_024.trec",
      "rect" : [0, 0, 1920, 1080],
      "lastMod" : "20200617T212202",
      "sourceTracks" : [
        {
          "range" : [0, 1087200],
          "type" : 0,
          "editRate" : 30000,
          "trackRect" : [0, 0, 1920, 1080],
          "sampleRate" : 24,
          "bitDepth" : 0,
          "numChannels" : 0,
          "integratedLUFS" : 100.0,
          "peakLevel" : -1.0,
          "metaData" : ""
        },
        {
          "range" : [0, 1598464],
          "type" : 2,
          "editRate" : 44100,
          "trackRect" : [0, 0, 0, 0],
          "sampleRate" : 44100,
          "bitDepth" : 16,
          "numChannels" : 2,
          "integratedLUFS" : -10.6004906776674,
          "peakLevel" : 0.996124267578125,
          "metaData" : ""
        }
      ],
      "metadata" : {
        "timeAdded" : "20200617T212202.713811"
      }
    },
    {
      "id" : 34,
      "src" : "C:\\Users\\ohund\\Documents\\Camtasia\\Aufn. 06-17-20_025.trec",
      "rect" : [0, 0, 1920, 1080],
      "lastMod" : "20200617T212554",
      "sourceTracks" : [
        {
          "range" : [0, 1096319],
          "type" : 0,
          "editRate" : 30000,
          "trackRect" : [0, 0, 1920, 1080],
          "sampleRate" : 23,
          "bitDepth" : 0,
          "numChannels" : 0,
          "integratedLUFS" : 100.0,
          "peakLevel" : -1.0,
          "metaData" : ""
        },
        {
          "range" : [0, 1613824],
          "type" : 2,
          "editRate" : 44100,
          "trackRect" : [0, 0, 0, 0],
          "sampleRate" : 44100,
          "bitDepth" : 16,
          "numChannels" : 2,
          "integratedLUFS" : -10.8006381463782,
          "peakLevel" : 0.998626708984375,
          "metaData" : ""
        }
      ],
      "metadata" : {
        "timeAdded" : "20200617T212554.430136"
      }
    },
    {
      "id" : 35,
      "src" : "C:\\Users\\ohund\\Documents\\Camtasia\\Aufn. 06-17-20_026.trec",
      "rect" : [0, 0, 1920, 1080],
      "lastMod" : "20200617T213039",
      "sourceTracks" : [
        {
          "range" : [0, 917761],
          "type" : 0,
          "editRate" : 30000,
          "trackRect" : [0, 0, 1920, 1080],
          "sampleRate" : 23,
          "bitDepth" : 0,
          "numChannels" : 0,
          "integratedLUFS" : 100.0,
          "peakLevel" : -1.0,
          "metaData" : ""
        },
        {
          "range" : [0, 1352704],
          "type" : 2,
          "editRate" : 44100,
          "trackRect" : [0, 0, 0, 0],
          "sampleRate" : 44100,
          "bitDepth" : 16,
          "numChannels" : 2,
          "integratedLUFS" : -11.3488657587609,
          "peakLevel" : 0.996551513671875,
          "metaData" : ""
        }
      ],
      "metadata" : {
        "timeAdded" : "20200617T213039.968510"
      }
    },
    {
      "id" : 36,
      "src" : "C:\\Users\\ohund\\Documents\\Camtasia\\Aufn. 06-17-20_027.trec",
      "rect" : [0, 0, 1920, 1080],
      "lastMod" : "20200617T213546",
      "sourceTracks" : [
        {
          "range" : [0, 906240],
          "type" : 0,
          "editRate" : 30000,
          "trackRect" : [0, 0, 1920, 1080],
          "sampleRate" : 24,
          "bitDepth" : 0,
          "numChannels" : 0,
          "integratedLUFS" : 100.0,
          "peakLevel" : -1.0,
          "metaData" : ""
        },
        {
          "range" : [0, 1332224],
          "type" : 2,
          "editRate" : 44100,
          "trackRect" : [0, 0, 0, 0],
          "sampleRate" : 44100,
          "bitDepth" : 16,
          "numChannels" : 2,
          "integratedLUFS" : -11.2934307201986,
          "peakLevel" : 0.999969482421875,
          "metaData" : ""
        }
      ],
      "metadata" : {
        "timeAdded" : "20200617T213547.015239"
      }
    },
    {
      "id" : 37,
      "src" : "C:\\Users\\ohund\\Documents\\Camtasia\\Aufn. 06-17-20_028.trec",
      "rect" : [0, 0, 1920, 1080],
      "lastMod" : "20200617T213749",
      "sourceTracks" : [
        {
          "range" : [0, 875039],
          "type" : 0,
          "editRate" : 30000,
          "trackRect" : [0, 0, 1920, 1080],
          "sampleRate" : 23,
          "bitDepth" : 0,
          "numChannels" : 0,
          "integratedLUFS" : 100.0,
          "peakLevel" : -1.0,
          "metaData" : ""
        },
        {
          "range" : [0, 1287168],
          "type" : 2,
          "editRate" : 44100,
          "trackRect" : [0, 0, 0, 0],
          "sampleRate" : 44100,
          "bitDepth" : 16,
          "numChannels" : 2,
          "integratedLUFS" : -10.5115024933062,
          "peakLevel" : 0.99932861328125,
          "metaData" : ""
        }
      ],
      "metadata" : {
        "timeAdded" : "20200617T213749.198577"
      }
    },
    {
      "id" : 38,
      "src" : "C:\\Users\\ohund\\Documents\\Camtasia\\Aufn. 06-17-20_029.trec",
      "rect" : [0, 0, 1920, 1080],
      "lastMod" : "20200617T214122",
      "sourceTracks" : [
        {
          "range" : [0, 1671365],
          "type" : 0,
          "editRate" : 30000,
          "trackRect" : [0, 0, 1920, 1080],
          "sampleRate" : 23,
          "bitDepth" : 0,
          "numChannels" : 0,
          "integratedLUFS" : 100.0,
          "peakLevel" : -1.0,
          "metaData" : ""
        },
        {
          "range" : [0, 2459648],
          "type" : 2,
          "editRate" : 44100,
          "trackRect" : [0, 0, 0, 0],
          "sampleRate" : 44100,
          "bitDepth" : 16,
          "numChannels" : 2,
          "integratedLUFS" : -10.7857308064401,
          "peakLevel" : 0.999786376953125,
          "metaData" : ""
        }
      ],
      "metadata" : {
        "timeAdded" : "20200617T214123.058749"
      }
    },
    {
      "id" : 39,
      "src" : "C:\\Users\\ohund\\Documents\\Camtasia\\Aufn. 06-17-20_030.trec",
      "rect" : [0, 0, 1920, 1080],
      "lastMod" : "20200617T214506",
      "sourceTracks" : [
        {
          "range" : [0, 995035],
          "type" : 0,
          "editRate" : 30000,
          "trackRect" : [0, 0, 1920, 1080],
          "sampleRate" : 23,
          "bitDepth" : 0,
          "numChannels" : 0,
          "integratedLUFS" : 100.0,
          "peakLevel" : -1.0,
          "metaData" : ""
        },
        {
          "range" : [0, 1461248],
          "type" : 2,
          "editRate" : 44100,
          "trackRect" : [0, 0, 0, 0],
          "sampleRate" : 44100,
          "bitDepth" : 16,
          "numChannels" : 2,
          "integratedLUFS" : -10.8015335329231,
          "peakLevel" : 0.997711181640625,
          "metaData" : ""
        }
      ],
      "metadata" : {
        "timeAdded" : "20200617T214506.491785"
      }
    },
    {
      "id" : 40,
      "src" : "C:\\Users\\ohund\\Documents\\Camtasia\\Aufn. 06-17-20_031.trec",
      "rect" : [0, 0, 1920, 1080],
      "lastMod" : "20200617T215008",
      "sourceTracks" : [
        {
          "range" : [0, 1380005],
          "type" : 0,
          "editRate" : 30000,
          "trackRect" : [0, 0, 1920, 1080],
          "sampleRate" : 23,
          "bitDepth" : 0,
          "numChannels" : 0,
          "integratedLUFS" : 100.0,
          "peakLevel" : -1.0,
          "metaData" : ""
        },
        {
          "range" : [0, 2029568],
          "type" : 2,
          "editRate" : 44100,
          "trackRect" : [0, 0, 0, 0],
          "sampleRate" : 44100,
          "bitDepth" : 16,
          "numChannels" : 2,
          "integratedLUFS" : -10.7091776903112,
          "peakLevel" : 0.996826171875,
          "metaData" : ""
        }
      ],
      "metadata" : {
        "timeAdded" : "20200617T215008.873509"
      }
    },
    {
      "id" : 41,
      "src" : "C:\\Users\\ohund\\Documents\\Camtasia\\Aufn. 06-17-20_032.trec",
      "rect" : [0, 0, 1920, 1080],
      "lastMod" : "20200617T215200",
      "sourceTracks" : [
        {
          "range" : [0, 1076159],
          "type" : 0,
          "editRate" : 30000,
          "trackRect" : [0, 0, 1920, 1080],
          "sampleRate" : 24,
          "bitDepth" : 0,
          "numChannels" : 0,
          "integratedLUFS" : 100.0,
          "peakLevel" : -1.0,
          "metaData" : ""
        },
        {
          "range" : [0, 1582080],
          "type" : 2,
          "editRate" : 44100,
          "trackRect" : [0, 0, 0, 0],
          "sampleRate" : 44100,
          "bitDepth" : 16,
          "numChannels" : 2,
          "integratedLUFS" : -10.8584184626218,
          "peakLevel" : 0.999969482421875,
          "metaData" : ""
        }
      ],
      "metadata" : {
        "timeAdded" : "20200617T215200.810220"
      }
    },
    {
      "id" : 42,
      "src" : "C:\\Users\\ohund\\Documents\\Camtasia\\Aufn. 06-17-20_033.trec",
      "rect" : [0, 0, 1920, 1080],
      "lastMod" : "20200617T215420",
      "sourceTracks" : [
        {
          "range" : [0, 1348801],
          "type" : 0,
          "editRate" : 30000,
          "trackRect" : [0, 0, 1920, 1080],
          "sampleRate" : 23,
          "bitDepth" : 0,
          "numChannels" : 0,
          "integratedLUFS" : 100.0,
          "peakLevel" : -1.0,
          "metaData" : ""
        },
        {
          "range" : [0, 1985536],
          "type" : 2,
          "editRate" : 44100,
          "trackRect" : [0, 0, 0, 0],
          "sampleRate" : 44100,
          "bitDepth" : 16,
          "numChannels" : 2,
          "integratedLUFS" : -10.6738803522233,
          "peakLevel" : 0.999298095703125,
          "metaData" : ""
        }
      ],
      "metadata" : {
        "timeAdded" : "20200617T215420.376135"
      }
    },
    {
      "id" : 43,
      "src" : "C:\\Users\\ohund\\Documents\\Camtasia\\Aufn. 06-18-20.trec",
      "rect" : [0, 0, 1920, 1080],
      "lastMod" : "20200618T083600",
      "sourceTracks" : [
        {
          "range" : [0, 320640],
          "type" : 0,
          "editRate" : 30000,
          "trackRect" : [0, 0, 1920, 1080],
          "sampleRate" : 30,
          "bitDepth" : 0,
          "numChannels" : 0,
          "integratedLUFS" : 100.0,
          "peakLevel" : -1.0,
          "metaData" : ""
        },
        {
          "range" : [0, 474112],
          "type" : 2,
          "editRate" : 44100,
          "trackRect" : [0, 0, 0, 0],
          "sampleRate" : 44100,
          "bitDepth" : 16,
          "numChannels" : 2,
          "integratedLUFS" : -11.4329318048282,
          "peakLevel" : 0.9971923828125,
          "metaData" : ""
        }
      ],
      "metadata" : {
        "timeAdded" : "20200618T083600.507537"
      }
    },
    {
      "id" : 44,
      "src" : "C:\\Users\\ohund\\Documents\\Camtasia\\Medium\\blank\\1-blank-Experimental Setup.png",
      "rect" : [0, 0, 1920, 1080],
      "lastMod" : "20200618T091931",
      "sourceTracks" : [
        {
          "range" : [0, 1],
          "type" : 1,
          "editRate" : 10000000,
          "trackRect" : [0, 0, 1920, 1080],
          "sampleRate" : 0,
          "bitDepth" : 24,
          "numChannels" : 0,
          "integratedLUFS" : 100.0,
          "peakLevel" : -1.0,
          "metaData" : ""
        }
      ],
      "metadata" : {
        "timeAdded" : "20200618T091931.523575"
      }
    },
    {
      "id" : 45,
      "src" : "C:\\Users\\ohund\\Documents\\Camtasia\\Aufn. 06-18-20_001.trec",
      "rect" : [0, 0, 1920, 1080],
      "lastMod" : "20200618T104546",
      "sourceTracks" : [
        {
          "range" : [0, 125280],
          "type" : 0,
          "editRate" : 30000,
          "trackRect" : [0, 0, 1920, 1080],
          "sampleRate" : 29,
          "bitDepth" : 0,
          "numChannels" : 0,
          "integratedLUFS" : 100.0,
          "peakLevel" : -1.0,
          "metaData" : ""
        },
        {
          "range" : [0, 184320],
          "type" : 2,
          "editRate" : 44100,
          "trackRect" : [0, 0, 0, 0],
          "sampleRate" : 44100,
          "bitDepth" : 16,
          "numChannels" : 2,
          "integratedLUFS" : -11.6795744652454,
          "peakLevel" : 0.994384765625,
          "metaData" : ""
        }
      ],
      "metadata" : {
        "timeAdded" : "20200618T104546.277590"
      }
    }
  ],
  "timeline" : {
    "id" : 46,
    "sceneTrack" : {
      "scenes" : [
        {
          "csml" : {
            "tracks" : [
              {
                "trackIndex" : 0,
                "medias" : [
                  {
                    "id" : 47,
                    "_type" : "IMFile",
                    "src" : 1,
                    "trackNumber" : 0,
                    "trimStartSum" : -576,
                    "attributes" : {
                      "ident" : "01-A comparative study on different Models for Commun-A comparative study on different Models for Community Detection"
                    },
                    "parameters" : {
                      "sourceCrop0" : 0.0,
                      "sourceCrop1" : 0.0,
                      "sourceCrop2" : 0.0,
                      "sourceCrop3" : 0.0,
                      "geometryCrop0" : 0.0,
                      "geometryCrop1" : 0.0,
                      "geometryCrop2" : 0.0,
                      "geometryCrop3" : 0.0
                    },
                    "effects" : [

                    ],
                    "start" : 0,
                    "duration" : 677,
                    "mediaStart" : 0,
                    "mediaDuration" : 1,
                    "scalar" : 1,
                    "metadata" : {
                      "clipSpeedAttribute" : false,
                      "default-scale0" : 1.0,
                      "default-scale1" : 1.0,
                      "default-translation0" : 0.0,
                      "default-translation1" : 0.0
                    },
                    "animationTracks" : {

                    }
                  },
                  {
                    "id" : 48,
                    "_type" : "IMFile",
                    "src" : 1,
                    "trackNumber" : 0,
                    "trimStartSum" : 145,
                    "attributes" : {
                      "ident" : "01-A comparative study on different Models for Commun-A comparative study on different Models for Community Detection"
                    },
                    "parameters" : {
                      "sourceCrop0" : 0.0,
                      "sourceCrop1" : 0.0,
                      "sourceCrop2" : 0.0,
                      "sourceCrop3" : 0.0,
                      "geometryCrop0" : 0.0,
                      "geometryCrop1" : 0.0,
                      "geometryCrop2" : 0.0,
                      "geometryCrop3" : 0.0
                    },
                    "effects" : [

                    ],
                    "start" : 677,
                    "duration" : 5,
                    "mediaStart" : 0,
                    "mediaDuration" : 1,
                    "scalar" : 1,
                    "metadata" : {
                      "clipSpeedAttribute" : false,
                      "default-scale0" : 1.0,
                      "default-scale1" : 1.0,
                      "default-translation0" : 0.0,
                      "default-translation1" : 0.0
                    },
                    "animationTracks" : {

                    }
                  },
                  {
                    "id" : 49,
                    "_type" : "IMFile",
                    "src" : 2,
                    "trackNumber" : 0,
                    "trimStartSum" : -301,
                    "attributes" : {
                      "ident" : "02-A comparative study on different Models for Commun-Research Question"
                    },
                    "parameters" : {
                      "sourceCrop0" : 0.0,
                      "sourceCrop1" : 0.0,
                      "sourceCrop2" : 0.0,
                      "sourceCrop3" : 0.0,
                      "geometryCrop0" : 0.0,
                      "geometryCrop1" : 0.0,
                      "geometryCrop2" : 0.0,
                      "geometryCrop3" : 0.0
                    },
                    "effects" : [

                    ],
                    "start" : 682,
                    "duration" : 299,
                    "mediaStart" : 0,
                    "mediaDuration" : 1,
                    "scalar" : 1,
                    "metadata" : {
                      "clipSpeedAttribute" : false
                    },
                    "animationTracks" : {

                    }
                  },
                  {
                    "id" : 50,
                    "_type" : "IMFile",
                    "src" : 2,
                    "trackNumber" : 0,
                    "trimStartSum" : 15,
                    "attributes" : {
                      "ident" : "02-A comparative study on different Models for Commun-Research Question"
                    },
                    "parameters" : {
                      "sourceCrop0" : 0.0,
                      "sourceCrop1" : 0.0,
                      "sourceCrop2" : 0.0,
                      "sourceCrop3" : 0.0,
                      "geometryCrop0" : 0.0,
                      "geometryCrop1" : 0.0,
                      "geometryCrop2" : 0.0,
                      "geometryCrop3" : 0.0
                    },
                    "effects" : [

                    ],
                    "start" : 981,
                    "duration" : 5,
                    "mediaStart" : 0,
                    "mediaDuration" : 1,
                    "scalar" : 1,
                    "metadata" : {
                      "clipSpeedAttribute" : false
                    },
                    "animationTracks" : {

                    }
                  },
                  {
                    "id" : 51,
                    "_type" : "IMFile",
                    "src" : 3,
                    "trackNumber" : 0,
                    "trimStartSum" : -1467,
                    "attributes" : {
                      "ident" : "03-A comparative study on different Models for Commun-Experimental Setup"
                    },
                    "parameters" : {
                      "sourceCrop0" : 0.0,
                      "sourceCrop1" : 0.0,
                      "sourceCrop2" : 0.0,
                      "sourceCrop3" : 0.0,
                      "geometryCrop0" : 0.0,
                      "geometryCrop1" : 0.0,
                      "geometryCrop2" : 0.0,
                      "geometryCrop3" : 0.0
                    },
                    "effects" : [

                    ],
                    "start" : 986,
                    "duration" : 135,
                    "mediaStart" : 0,
                    "mediaDuration" : 1,
                    "scalar" : 1,
                    "metadata" : {
                      "clipSpeedAttribute" : false,
                      "default-translation0" : 0.0,
                      "default-translation1" : 0.0
                    },
                    "animationTracks" : {

                    }
                  },
                  {
                    "id" : 52,
                    "_type" : "IMFile",
                    "src" : 3,
                    "trackNumber" : 0,
                    "trimStartSum" : -1309,
                    "attributes" : {
                      "ident" : "03-A comparative study on different Models for Commun-Experimental Setup"
                    },
                    "parameters" : {
                      "sourceCrop0" : 0.0,
                      "sourceCrop1" : 0.0,
                      "sourceCrop2" : 0.0,
                      "sourceCrop3" : 0.0,
                      "geometryCrop0" : 0.0,
                      "geometryCrop1" : 0.0,
                      "geometryCrop2" : 0.0,
                      "geometryCrop3" : 0.0
                    },
                    "effects" : [

                    ],
                    "start" : 1121,
                    "duration" : 501,
                    "mediaStart" : 0,
                    "mediaDuration" : 1,
                    "scalar" : 1,
                    "metadata" : {
                      "clipSpeedAttribute" : false,
                      "default-translation0" : 0.0,
                      "default-translation1" : 0.0
                    },
                    "animationTracks" : {

                    }
                  },
                  {
                    "id" : 53,
                    "_type" : "IMFile",
                    "src" : 3,
                    "trackNumber" : 0,
                    "trimStartSum" : -764,
                    "attributes" : {
                      "ident" : "03-A comparative study on different Models for Commun-Experimental Setup"
                    },
                    "parameters" : {
                      "sourceCrop0" : 0.0,
                      "sourceCrop1" : 0.0,
                      "sourceCrop2" : 0.0,
                      "sourceCrop3" : 0.0,
                      "geometryCrop0" : 0.0,
                      "geometryCrop1" : 0.0,
                      "geometryCrop2" : 0.0,
                      "geometryCrop3" : 0.0
                    },
                    "effects" : [

                    ],
                    "start" : 1622,
                    "duration" : 229,
                    "mediaStart" : 0,
                    "mediaDuration" : 1,
                    "scalar" : 1,
                    "metadata" : {
                      "clipSpeedAttribute" : false,
                      "default-translation0" : 0.0,
                      "default-translation1" : 0.0
                    },
                    "animationTracks" : {

                    }
                  },
                  {
                    "id" : 54,
                    "_type" : "IMFile",
                    "src" : 3,
                    "trackNumber" : 0,
                    "trimStartSum" : -516,
                    "attributes" : {
                      "ident" : "03-A comparative study on different Models for Commun-Experimental Setup"
                    },
                    "parameters" : {
                      "sourceCrop0" : 0.0,
                      "sourceCrop1" : 0.0,
                      "sourceCrop2" : 0.0,
                      "sourceCrop3" : 0.0,
                      "geometryCrop0" : 0.0,
                      "geometryCrop1" : 0.0,
                      "geometryCrop2" : 0.0,
                      "geometryCrop3" : 0.0
                    },
                    "effects" : [

                    ],
                    "start" : 1851,
                    "duration" : 76,
                    "mediaStart" : 0,
                    "mediaDuration" : 1,
                    "scalar" : 1,
                    "metadata" : {
                      "clipSpeedAttribute" : false,
                      "default-translation0" : 0.0,
                      "default-translation1" : 0.0
                    },
                    "animationTracks" : {

                    }
                  },
                  {
                    "id" : 55,
                    "_type" : "IMFile",
                    "src" : 3,
                    "trackNumber" : 0,
                    "trimStartSum" : -420,
                    "attributes" : {
                      "ident" : "03-A comparative study on different Models for Commun-Experimental Setup"
                    },
                    "parameters" : {
                      "sourceCrop0" : 0.0,
                      "sourceCrop1" : 0.0,
                      "sourceCrop2" : 0.0,
                      "sourceCrop3" : 0.0,
                      "geometryCrop0" : 0.0,
                      "geometryCrop1" : 0.0,
                      "geometryCrop2" : 0.0,
                      "geometryCrop3" : 0.0
                    },
                    "effects" : [

                    ],
                    "start" : 1927,
                    "duration" : 117,
                    "mediaStart" : 0,
                    "mediaDuration" : 1,
                    "scalar" : 1,
                    "metadata" : {
                      "clipSpeedAttribute" : false,
                      "default-translation0" : 0.0,
                      "default-translation1" : 0.0
                    },
                    "animationTracks" : {

                    }
                  },
                  {
                    "id" : 56,
                    "_type" : "IMFile",
                    "src" : 4,
                    "trackNumber" : 0,
                    "trimStartSum" : 0,
                    "attributes" : {
                      "ident" : "04-A comparative study on different Models for Commun-Louvain-Core"
                    },
                    "parameters" : {
                      "sourceCrop0" : 0.0,
                      "sourceCrop1" : 0.0,
                      "sourceCrop2" : 0.0,
                      "sourceCrop3" : 0.0,
                      "geometryCrop0" : 0.0,
                      "geometryCrop1" : 0.0,
                      "geometryCrop2" : 0.0,
                      "geometryCrop3" : 0.0
                    },
                    "effects" : [

                    ],
                    "start" : 2044,
                    "duration" : 117,
                    "mediaStart" : 0,
                    "mediaDuration" : 1,
                    "scalar" : 1,
                    "metadata" : {
                      "clipSpeedAttribute" : false
                    },
                    "animationTracks" : {

                    }
                  },
                  {
                    "id" : 57,
                    "_type" : "IMFile",
                    "src" : 4,
                    "trackNumber" : 0,
                    "trimStartSum" : 130,
                    "attributes" : {
                      "ident" : "04-A comparative study on different Models for Commun-Louvain-Core"
                    },
                    "parameters" : {
                      "sourceCrop0" : 0.0,
                      "sourceCrop1" : 0.0,
                      "sourceCrop2" : 0.0,
                      "sourceCrop3" : 0.0,
                      "geometryCrop0" : 0.0,
                      "geometryCrop1" : 0.0,
                      "geometryCrop2" : 0.0,
                      "geometryCrop3" : 0.0
                    },
                    "effects" : [

                    ],
                    "start" : 2161,
                    "duration" : 449,
                    "mediaStart" : 0,
                    "mediaDuration" : 1,
                    "scalar" : 1,
                    "metadata" : {
                      "clipSpeedAttribute" : false
                    },
                    "animationTracks" : {

                    }
                  },
                  {
                    "id" : 58,
                    "_type" : "IMFile",
                    "src" : 5,
                    "trackNumber" : 0,
                    "trimStartSum" : 0,
                    "attributes" : {
                      "ident" : "05-A comparative study on different Models for Commun-Models"
                    },
                    "parameters" : {
                      "sourceCrop0" : 0.0,
                      "sourceCrop1" : 0.0,
                      "sourceCrop2" : 0.0,
                      "sourceCrop3" : 0.0,
                      "geometryCrop0" : 0.0,
                      "geometryCrop1" : 0.0,
                      "geometryCrop2" : 0.0,
                      "geometryCrop3" : 0.0
                    },
                    "effects" : [

                    ],
                    "start" : 2610,
                    "duration" : 390,
                    "mediaStart" : 0,
                    "mediaDuration" : 1,
                    "scalar" : 1,
                    "metadata" : {
                      "clipSpeedAttribute" : false
                    },
                    "animationTracks" : {

                    }
                  },
                  {
                    "id" : 59,
                    "_type" : "IMFile",
                    "src" : 7,
                    "trackNumber" : 0,
                    "trimStartSum" : -2368,
                    "attributes" : {
                      "ident" : "07-A comparative study on different Models for Commun-Models – MapEquation"
                    },
                    "parameters" : {
                      "translation0" : {
                        "type" : "double",
                        "defaultValue" : 0.0,
                        "keyframes" : [
                          {
                            "endTime" : -237,
                            "time" : -267,
                            "value" : -79.5528631753426,
                            "duration" : 30
                          },
                          {
                            "endTime" : 100,
                            "time" : 70,
                            "value" : -1.91344423029809e-14,
                            "duration" : 30
                          }
                        ]
                      },
                      "translation1" : {
                        "type" : "double",
                        "defaultValue" : 0.0,
                        "keyframes" : [
                          {
                            "endTime" : -237,
                            "time" : -267,
                            "value" : 971.452221029771,
                            "duration" : 30
                          },
                          {
                            "endTime" : 100,
                            "time" : 70,
                            "value" : 3.62031118221751e-05,
                            "duration" : 30
                          }
                        ]
                      },
                      "scale0" : {
                        "type" : "double",
                        "defaultValue" : 1.0,
                        "keyframes" : [
                          {
                            "endTime" : -237,
                            "time" : -267,
                            "value" : 2.42592351648487,
                            "duration" : 30
                          },
                          {
                            "endTime" : 100,
                            "time" : 70,
                            "value" : 1.00000004141665,
                            "duration" : 30
                          }
                        ]
                      },
                      "scale1" : {
                        "type" : "double",
                        "defaultValue" : 1.0,
                        "keyframes" : [
                          {
                            "endTime" : -237,
                            "time" : -267,
                            "value" : 2.42592420533425,
                            "duration" : 30
                          },
                          {
                            "endTime" : 100,
                            "time" : 70,
                            "value" : 1.00000011985877,
                            "duration" : 30
                          }
                        ]
                      },
                      "sourceCrop0" : 0.0,
                      "sourceCrop1" : 0.0,
                      "sourceCrop2" : 0.0,
                      "sourceCrop3" : 0.0,
                      "geometryCrop0" : 0.0,
                      "geometryCrop1" : 0.0,
                      "geometryCrop2" : 0.0,
                      "geometryCrop3" : 0.0
                    },
                    "effects" : [

                    ],
                    "start" : 3000,
                    "duration" : 2518,
                    "mediaStart" : 0,
                    "mediaDuration" : 1,
                    "scalar" : 1,
                    "metadata" : {
                      "clipSpeedAttribute" : false,
                      "default-scale0" : 1.0,
                      "default-scale1" : 1.0,
                      "default-translation0" : 0.0,
                      "default-translation1" : 0.0
                    },
                    "animationTracks" : {
                      "visual" : [
                        {
                          "endTime" : -237,
                          "duration" : 30,
                          "range" : [ -267, 30]
                        },
                        {
                          "endTime" : 100,
                          "duration" : 30,
                          "range" : [ 70, 30]
                        }
                      ]
                    }
                  },
                  {
                    "id" : 60,
                    "_type" : "IMFile",
                    "src" : 10,
                    "trackNumber" : 0,
                    "trimStartSum" : -1274,
                    "attributes" : {
                      "ident" : "10-A comparative study on different Models for Commun-Models – Node-Similarity"
                    },
                    "parameters" : {
                      "sourceCrop0" : 0.0,
                      "sourceCrop1" : 0.0,
                      "sourceCrop2" : 0.0,
                      "sourceCrop3" : 0.0,
                      "geometryCrop0" : 0.0,
                      "geometryCrop1" : 0.0,
                      "geometryCrop2" : 0.0,
                      "geometryCrop3" : 0.0
                    },
                    "effects" : [

                    ],
                    "start" : 5518,
                    "duration" : 706,
                    "mediaStart" : 0,
                    "mediaDuration" : 1,
                    "scalar" : 1,
                    "metadata" : {
                      "clipSpeedAttribute" : false
                    },
                    "animationTracks" : {

                    }
                  },
                  {
                    "id" : 61,
                    "_type" : "IMFile",
                    "src" : 10,
                    "trackNumber" : 0,
                    "trimStartSum" : -494,
                    "attributes" : {
                      "ident" : "10-A comparative study on different Models for Commun-Models – Node-Similarity"
                    },
                    "parameters" : {
                      "sourceCrop0" : 0.0,
                      "sourceCrop1" : 0.0,
                      "sourceCrop2" : 0.0,
                      "sourceCrop3" : 0.0,
                      "geometryCrop0" : 0.0,
                      "geometryCrop1" : 0.0,
                      "geometryCrop2" : 0.0,
                      "geometryCrop3" : 0.0
                    },
                    "effects" : [

                    ],
                    "start" : 6224,
                    "duration" : 214,
                    "mediaStart" : 0,
                    "mediaDuration" : 1,
                    "scalar" : 1,
                    "metadata" : {
                      "clipSpeedAttribute" : false
                    },
                    "animationTracks" : {

                    }
                  },
                  {
                    "id" : 62,
                    "_type" : "IMFile",
                    "src" : 10,
                    "trackNumber" : 0,
                    "trimStartSum" : -236,
                    "attributes" : {
                      "ident" : "10-A comparative study on different Models for Commun-Models – Node-Similarity"
                    },
                    "parameters" : {
                      "sourceCrop0" : 0.0,
                      "sourceCrop1" : 0.0,
                      "sourceCrop2" : 0.0,
                      "sourceCrop3" : 0.0,
                      "geometryCrop0" : 0.0,
                      "geometryCrop1" : 0.0,
                      "geometryCrop2" : 0.0,
                      "geometryCrop3" : 0.0
                    },
                    "effects" : [

                    ],
                    "start" : 6438,
                    "duration" : 1195,
                    "mediaStart" : 0,
                    "mediaDuration" : 1,
                    "scalar" : 1,
                    "metadata" : {
                      "clipSpeedAttribute" : false
                    },
                    "animationTracks" : {

                    }
                  },
                  {
                    "id" : 63,
                    "_type" : "IMFile",
                    "src" : 10,
                    "trackNumber" : 0,
                    "trimStartSum" : 1011,
                    "attributes" : {
                      "ident" : "10-A comparative study on different Models for Commun-Models – Node-Similarity"
                    },
                    "parameters" : {
                      "sourceCrop0" : 0.0,
                      "sourceCrop1" : 0.0,
                      "sourceCrop2" : 0.0,
                      "sourceCrop3" : 0.0,
                      "geometryCrop0" : 0.0,
                      "geometryCrop1" : 0.0,
                      "geometryCrop2" : 0.0,
                      "geometryCrop3" : 0.0
                    },
                    "effects" : [

                    ],
                    "start" : 7633,
                    "duration" : 223,
                    "mediaStart" : 0,
                    "mediaDuration" : 1,
                    "scalar" : 1,
                    "metadata" : {
                      "clipSpeedAttribute" : false
                    },
                    "animationTracks" : {

                    }
                  },
                  {
                    "id" : 64,
                    "_type" : "IMFile",
                    "src" : 10,
                    "trackNumber" : 0,
                    "trimStartSum" : 1279,
                    "attributes" : {
                      "ident" : "10-A comparative study on different Models for Commun-Models – Node-Similarity"
                    },
                    "parameters" : {
                      "sourceCrop0" : 0.0,
                      "sourceCrop1" : 0.0,
                      "sourceCrop2" : 0.0,
                      "sourceCrop3" : 0.0,
                      "geometryCrop0" : 0.0,
                      "geometryCrop1" : 0.0,
                      "geometryCrop2" : 0.0,
                      "geometryCrop3" : 0.0
                    },
                    "effects" : [

                    ],
                    "start" : 7856,
                    "duration" : 391,
                    "mediaStart" : 0,
                    "mediaDuration" : 1,
                    "scalar" : 1,
                    "metadata" : {
                      "clipSpeedAttribute" : false
                    },
                    "animationTracks" : {

                    }
                  },
                  {
                    "id" : 65,
                    "_type" : "IMFile",
                    "src" : 11,
                    "trackNumber" : 0,
                    "trimStartSum" : -937,
                    "attributes" : {
                      "ident" : "11-A comparative study on different Models for Commun-Models – Node-Similarity"
                    },
                    "parameters" : {
                      "sourceCrop0" : 0.0,
                      "sourceCrop1" : 0.0,
                      "sourceCrop2" : 0.0,
                      "sourceCrop3" : 0.0,
                      "geometryCrop0" : 0.0,
                      "geometryCrop1" : 0.0,
                      "geometryCrop2" : 0.0,
                      "geometryCrop3" : 0.0
                    },
                    "effects" : [

                    ],
                    "start" : 8247,
                    "duration" : 648,
                    "mediaStart" : 0,
                    "mediaDuration" : 1,
                    "scalar" : 1,
                    "metadata" : {
                      "clipSpeedAttribute" : false
                    },
                    "animationTracks" : {

                    }
                  },
                  {
                    "id" : 66,
                    "_type" : "IMFile",
                    "src" : 11,
                    "trackNumber" : 0,
                    "trimStartSum" : -251,
                    "attributes" : {
                      "ident" : "11-A comparative study on different Models for Commun-Models – Node-Similarity"
                    },
                    "parameters" : {
                      "sourceCrop0" : 0.0,
                      "sourceCrop1" : 0.0,
                      "sourceCrop2" : 0.0,
                      "sourceCrop3" : 0.0,
                      "geometryCrop0" : 0.0,
                      "geometryCrop1" : 0.0,
                      "geometryCrop2" : 0.0,
                      "geometryCrop3" : 0.0
                    },
                    "effects" : [

                    ],
                    "start" : 8895,
                    "duration" : 359,
                    "mediaStart" : 0,
                    "mediaDuration" : 1,
                    "scalar" : 1,
                    "metadata" : {
                      "clipSpeedAttribute" : false
                    },
                    "animationTracks" : {

                    }
                  },
                  {
                    "id" : 67,
                    "_type" : "IMFile",
                    "src" : 11,
                    "trackNumber" : 0,
                    "trimStartSum" : 150,
                    "attributes" : {
                      "ident" : "11-A comparative study on different Models for Commun-Models – Node-Similarity"
                    },
                    "parameters" : {
                      "translation0" : {
                        "type" : "double",
                        "defaultValue" : 0.0,
                        "keyframes" : [
                          {
                            "endTime" : 611,
                            "time" : 581,
                            "value" : 693.823341362925,
                            "duration" : 30
                          },
                          {
                            "endTime" : 1221,
                            "time" : 1191,
                            "value" : -9.50760971605291e-05,
                            "duration" : 30
                          },
                          {
                            "endTime" : 1309,
                            "time" : 1279,
                            "value" : -1326.97309832674,
                            "duration" : 30
                          }
                        ]
                      },
                      "translation1" : {
                        "type" : "double",
                        "defaultValue" : 0.0,
                        "keyframes" : [
                          {
                            "endTime" : 611,
                            "time" : 581,
                            "value" : 60.9948699362337,
                            "duration" : 30
                          },
                          {
                            "endTime" : 1221,
                            "time" : 1191,
                            "value" : 1.58588882719357e-05,
                            "duration" : 30
                          },
                          {
                            "endTime" : 1309,
                            "time" : 1279,
                            "value" : 42.4622785448247,
                            "duration" : 30
                          }
                        ]
                      },
                      "scale0" : {
                        "type" : "double",
                        "defaultValue" : 1.0,
                        "keyframes" : [
                          {
                            "endTime" : 611,
                            "time" : 581,
                            "value" : 1.92825667594704,
                            "duration" : 30
                          },
                          {
                            "endTime" : 1221,
                            "time" : 1191,
                            "value" : 0.99999995860079,
                            "duration" : 30
                          },
                          {
                            "endTime" : 1309,
                            "time" : 1279,
                            "value" : 2.49372372261027,
                            "duration" : 30
                          }
                        ]
                      },
                      "scale1" : {
                        "type" : "double",
                        "defaultValue" : 1.0,
                        "keyframes" : [
                          {
                            "endTime" : 611,
                            "time" : 581,
                            "value" : 1.92825675203859,
                            "duration" : 30
                          },
                          {
                            "endTime" : 1221,
                            "time" : 1191,
                            "value" : 1.00000008684447,
                            "duration" : 30
                          },
                          {
                            "endTime" : 1309,
                            "time" : 1279,
                            "value" : 2.49372416779256,
                            "duration" : 30
                          }
                        ]
                      },
                      "sourceCrop0" : 0.0,
                      "sourceCrop1" : 0.0,
                      "sourceCrop2" : 0.0,
                      "sourceCrop3" : 0.0,
                      "geometryCrop0" : 0.0,
                      "geometryCrop1" : 0.0,
                      "geometryCrop2" : 0.0,
                      "geometryCrop3" : 0.0
                    },
                    "effects" : [

                    ],
                    "start" : 9254,
                    "duration" : 1964,
                    "mediaStart" : 0,
                    "mediaDuration" : 1,
                    "scalar" : 1,
                    "metadata" : {
                      "clipSpeedAttribute" : false,
                      "default-scale0" : 1.0,
                      "default-scale1" : 1.0,
                      "default-translation0" : 0.0,
                      "default-translation1" : 0.0
                    },
                    "animationTracks" : {
                      "visual" : [
                        {
                          "endTime" : 611,
                          "duration" : 30,
                          "range" : [ 581, 30]
                        },
                        {
                          "endTime" : 1221,
                          "duration" : 30,
                          "range" : [ 1191, 30]
                        },
                        {
                          "endTime" : 1309,
                          "duration" : 30,
                          "range" : [ 1279, 30]
                        }
                      ]
                    }
                  },
                  {
                    "id" : 68,
                    "_type" : "IMFile",
                    "src" : 12,
                    "trackNumber" : 0,
                    "trimStartSum" : -725,
                    "attributes" : {
                      "ident" : "12-A comparative study on different Models for Commun-Models - Baselines"
                    },
                    "parameters" : {
                      "sourceCrop0" : 0.0,
                      "sourceCrop1" : 0.0,
                      "sourceCrop2" : 0.0,
                      "sourceCrop3" : 0.0,
                      "geometryCrop0" : 0.0,
                      "geometryCrop1" : 0.0,
                      "geometryCrop2" : 0.0,
                      "geometryCrop3" : 0.0
                    },
                    "effects" : [

                    ],
                    "start" : 11218,
                    "duration" : 875,
                    "mediaStart" : 0,
                    "mediaDuration" : 1,
                    "scalar" : 1,
                    "metadata" : {
                      "clipSpeedAttribute" : false
                    },
                    "animationTracks" : {

                    }
                  },
                  {
                    "id" : 69,
                    "_type" : "IMFile",
                    "src" : 13,
                    "trackNumber" : 0,
                    "trimStartSum" : -1521,
                    "attributes" : {
                      "ident" : "13-A comparative study on different Models for Commun-Results - Baselines"
                    },
                    "parameters" : {
                      "sourceCrop0" : 0.0,
                      "sourceCrop1" : 0.0,
                      "sourceCrop2" : 0.0,
                      "sourceCrop3" : 0.0,
                      "geometryCrop0" : 0.0,
                      "geometryCrop1" : 0.0,
                      "geometryCrop2" : 0.0,
                      "geometryCrop3" : 0.0
                    },
                    "effects" : [

                    ],
                    "start" : 12093,
                    "duration" : 804,
                    "mediaStart" : 0,
                    "mediaDuration" : 1,
                    "scalar" : 1,
                    "metadata" : {
                      "clipSpeedAttribute" : false
                    },
                    "animationTracks" : {

                    }
                  },
                  {
                    "id" : 70,
                    "_type" : "IMFile",
                    "src" : 13,
                    "trackNumber" : 0,
                    "trimStartSum" : -701,
                    "attributes" : {
                      "ident" : "13-A comparative study on different Models for Commun-Results - Baselines"
                    },
                    "parameters" : {
                      "sourceCrop0" : 0.0,
                      "sourceCrop1" : 0.0,
                      "sourceCrop2" : 0.0,
                      "sourceCrop3" : 0.0,
                      "geometryCrop0" : 0.0,
                      "geometryCrop1" : 0.0,
                      "geometryCrop2" : 0.0,
                      "geometryCrop3" : 0.0
                    },
                    "effects" : [

                    ],
                    "start" : 12897,
                    "duration" : 122,
                    "mediaStart" : 0,
                    "mediaDuration" : 1,
                    "scalar" : 1,
                    "metadata" : {
                      "clipSpeedAttribute" : false
                    },
                    "animationTracks" : {

                    }
                  },
                  {
                    "id" : 71,
                    "_type" : "IMFile",
                    "src" : 13,
                    "trackNumber" : 0,
                    "trimStartSum" : -568,
                    "attributes" : {
                      "ident" : "13-A comparative study on different Models for Commun-Results - Baselines"
                    },
                    "parameters" : {
                      "sourceCrop0" : 0.0,
                      "sourceCrop1" : 0.0,
                      "sourceCrop2" : 0.0,
                      "sourceCrop3" : 0.0,
                      "geometryCrop0" : 0.0,
                      "geometryCrop1" : 0.0,
                      "geometryCrop2" : 0.0,
                      "geometryCrop3" : 0.0
                    },
                    "effects" : [

                    ],
                    "start" : 13019,
                    "duration" : 235,
                    "mediaStart" : 0,
                    "mediaDuration" : 1,
                    "scalar" : 1,
                    "metadata" : {
                      "clipSpeedAttribute" : false
                    },
                    "animationTracks" : {

                    }
                  },
                  {
                    "id" : 72,
                    "_type" : "IMFile",
                    "src" : 13,
                    "trackNumber" : 0,
                    "trimStartSum" : -310,
                    "attributes" : {
                      "ident" : "13-A comparative study on different Models for Commun-Results - Baselines"
                    },
                    "parameters" : {
                      "sourceCrop0" : 0.0,
                      "sourceCrop1" : 0.0,
                      "sourceCrop2" : 0.0,
                      "sourceCrop3" : 0.0,
                      "geometryCrop0" : 0.0,
                      "geometryCrop1" : 0.0,
                      "geometryCrop2" : 0.0,
                      "geometryCrop3" : 0.0
                    },
                    "effects" : [

                    ],
                    "start" : 13254,
                    "duration" : 423,
                    "mediaStart" : 0,
                    "mediaDuration" : 1,
                    "scalar" : 1,
                    "metadata" : {
                      "clipSpeedAttribute" : false
                    },
                    "animationTracks" : {

                    }
                  },
                  {
                    "id" : 73,
                    "_type" : "IMFile",
                    "src" : 14,
                    "trackNumber" : 0,
                    "trimStartSum" : -844,
                    "attributes" : {
                      "ident" : "14-A comparative study on different Models for Commun-Results - Models"
                    },
                    "parameters" : {
                      "sourceCrop0" : 0.0,
                      "sourceCrop1" : 0.0,
                      "sourceCrop2" : 0.0,
                      "sourceCrop3" : 0.0,
                      "geometryCrop0" : 0.0,
                      "geometryCrop1" : 0.0,
                      "geometryCrop2" : 0.0,
                      "geometryCrop3" : 0.0
                    },
                    "effects" : [

                    ],
                    "start" : 13677,
                    "duration" : 918,
                    "mediaStart" : 0,
                    "mediaDuration" : 1,
                    "scalar" : 1,
                    "metadata" : {
                      "clipSpeedAttribute" : false
                    },
                    "animationTracks" : {

                    }
                  },
                  {
                    "id" : 74,
                    "_type" : "IMFile",
                    "src" : 15,
                    "trackNumber" : 0,
                    "trimStartSum" : -1230,
                    "attributes" : {
                      "ident" : "15-A comparative study on different Models for Commun-Results –MapEquation in Depth"
                    },
                    "parameters" : {
                      "translation0" : {
                        "type" : "double",
                        "defaultValue" : 0.0,
                        "keyframes" : [
                          {
                            "endTime" : -1036,
                            "time" : -1066,
                            "value" : 2091.95120209888,
                            "duration" : 30
                          },
                          {
                            "endTime" : -716,
                            "time" : -746,
                            "value" : 0.000122741458085329,
                            "duration" : 30
                          }
                        ]
                      },
                      "translation1" : {
                        "type" : "double",
                        "defaultValue" : 0.0,
                        "keyframes" : [
                          {
                            "endTime" : -1036,
                            "time" : -1066,
                            "value" : 1176.72117010549,
                            "duration" : 30
                          },
                          {
                            "endTime" : -716,
                            "time" : -746,
                            "value" : -4.34764440342406e-05,
                            "duration" : 30
                          }
                        ]
                      },
                      "scale0" : {
                        "type" : "double",
                        "defaultValue" : 1.0,
                        "keyframes" : [
                          {
                            "endTime" : -1036,
                            "time" : -1066,
                            "value" : 4.12655718136284,
                            "duration" : 30
                          },
                          {
                            "endTime" : -716,
                            "time" : -746,
                            "value" : 1.00000009823726,
                            "duration" : 30
                          }
                        ]
                      },
                      "scale1" : {
                        "type" : "double",
                        "defaultValue" : 1.0,
                        "keyframes" : [
                          {
                            "endTime" : -1036,
                            "time" : -1066,
                            "value" : 4.12655442104676,
                            "duration" : 30
                          },
                          {
                            "endTime" : -716,
                            "time" : -746,
                            "value" : 1.00000007634127,
                            "duration" : 30
                          }
                        ]
                      },
                      "sourceCrop0" : 0.0,
                      "sourceCrop1" : 0.0,
                      "sourceCrop2" : 0.0,
                      "sourceCrop3" : 0.0,
                      "geometryCrop0" : 0.0,
                      "geometryCrop1" : 0.0,
                      "geometryCrop2" : 0.0,
                      "geometryCrop3" : 0.0
                    },
                    "effects" : [

                    ],
                    "start" : 14595,
                    "duration" : 1318,
                    "mediaStart" : 0,
                    "mediaDuration" : 1,
                    "scalar" : 1,
                    "metadata" : {
                      "clipSpeedAttribute" : false,
                      "default-scale0" : 1.0,
                      "default-scale1" : 1.0,
                      "default-translation0" : 0.0,
                      "default-translation1" : 0.0
                    },
                    "animationTracks" : {
                      "visual" : [
                        {
                          "endTime" : -1036,
                          "duration" : 30,
                          "range" : [ -1066, 30]
                        },
                        {
                          "endTime" : -716,
                          "duration" : 30,
                          "range" : [ -746, 30]
                        }
                      ]
                    }
                  },
                  {
                    "id" : 75,
                    "_type" : "IMFile",
                    "src" : 16,
                    "trackNumber" : 0,
                    "trimStartSum" : -926,
                    "attributes" : {
                      "ident" : "16-A comparative study on different Models for Commun-Results - Models"
                    },
                    "parameters" : {
                      "sourceCrop0" : 0.0,
                      "sourceCrop1" : 0.0,
                      "sourceCrop2" : 0.0,
                      "sourceCrop3" : 0.0,
                      "geometryCrop0" : 0.0,
                      "geometryCrop1" : 0.0,
                      "geometryCrop2" : 0.0,
                      "geometryCrop3" : 0.0
                    },
                    "effects" : [

                    ],
                    "start" : 15913,
                    "duration" : 610,
                    "mediaStart" : 0,
                    "mediaDuration" : 1,
                    "scalar" : 1,
                    "metadata" : {
                      "clipSpeedAttribute" : false
                    },
                    "animationTracks" : {

                    }
                  },
                  {
                    "id" : 76,
                    "_type" : "IMFile",
                    "src" : 16,
                    "trackNumber" : 0,
                    "trimStartSum" : -239,
                    "attributes" : {
                      "ident" : "16-A comparative study on different Models for Commun-Results - Models"
                    },
                    "parameters" : {
                      "sourceCrop0" : 0.0,
                      "sourceCrop1" : 0.0,
                      "sourceCrop2" : 0.0,
                      "sourceCrop3" : 0.0,
                      "geometryCrop0" : 0.0,
                      "geometryCrop1" : 0.0,
                      "geometryCrop2" : 0.0,
                      "geometryCrop3" : 0.0
                    },
                    "effects" : [

                    ],
                    "start" : 16523,
                    "duration" : 368,
                    "mediaStart" : 0,
                    "mediaDuration" : 1,
                    "scalar" : 1,
                    "metadata" : {
                      "clipSpeedAttribute" : false
                    },
                    "animationTracks" : {

                    }
                  },
                  {
                    "id" : 77,
                    "_type" : "IMFile",
                    "src" : 17,
                    "trackNumber" : 0,
                    "trimStartSum" : -1199,
                    "attributes" : {
                      "ident" : "17-A comparative study on different Models for Commun-Summary"
                    },
                    "parameters" : {
                      "sourceCrop0" : 0.0,
                      "sourceCrop1" : 0.0,
                      "sourceCrop2" : 0.0,
                      "sourceCrop3" : 0.0,
                      "geometryCrop0" : 0.0,
                      "geometryCrop1" : 0.0,
                      "geometryCrop2" : 0.0,
                      "geometryCrop3" : 0.0
                    },
                    "effects" : [

                    ],
                    "start" : 16891,
                    "duration" : 344,
                    "mediaStart" : 0,
                    "mediaDuration" : 1,
                    "scalar" : 1,
                    "metadata" : {
                      "clipSpeedAttribute" : false
                    },
                    "animationTracks" : {

                    }
                  },
                  {
                    "id" : 78,
                    "_type" : "IMFile",
                    "src" : 17,
                    "trackNumber" : 0,
                    "trimStartSum" : -840,
                    "attributes" : {
                      "ident" : "17-A comparative study on different Models for Commun-Summary"
                    },
                    "parameters" : {
                      "sourceCrop0" : 0.0,
                      "sourceCrop1" : 0.0,
                      "sourceCrop2" : 0.0,
                      "sourceCrop3" : 0.0,
                      "geometryCrop0" : 0.0,
                      "geometryCrop1" : 0.0,
                      "geometryCrop2" : 0.0,
                      "geometryCrop3" : 0.0
                    },
                    "effects" : [

                    ],
                    "start" : 17235,
                    "duration" : 96,
                    "mediaStart" : 0,
                    "mediaDuration" : 1,
                    "scalar" : 1,
                    "metadata" : {
                      "clipSpeedAttribute" : false
                    },
                    "animationTracks" : {

                    }
                  },
                  {
                    "id" : 79,
                    "_type" : "IMFile",
                    "src" : 17,
                    "trackNumber" : 0,
                    "trimStartSum" : -711,
                    "attributes" : {
                      "ident" : "17-A comparative study on different Models for Commun-Summary"
                    },
                    "parameters" : {
                      "sourceCrop0" : 0.0,
                      "sourceCrop1" : 0.0,
                      "sourceCrop2" : 0.0,
                      "sourceCrop3" : 0.0,
                      "geometryCrop0" : 0.0,
                      "geometryCrop1" : 0.0,
                      "geometryCrop2" : 0.0,
                      "geometryCrop3" : 0.0
                    },
                    "effects" : [

                    ],
                    "start" : 17331,
                    "duration" : 122,
                    "mediaStart" : 0,
                    "mediaDuration" : 1,
                    "scalar" : 1,
                    "metadata" : {
                      "clipSpeedAttribute" : false
                    },
                    "animationTracks" : {

                    }
                  },
                  {
                    "id" : 80,
                    "_type" : "IMFile",
                    "src" : 17,
                    "trackNumber" : 0,
                    "trimStartSum" : -569,
                    "attributes" : {
                      "ident" : "17-A comparative study on different Models for Commun-Summary"
                    },
                    "parameters" : {
                      "sourceCrop0" : 0.0,
                      "sourceCrop1" : 0.0,
                      "sourceCrop2" : 0.0,
                      "sourceCrop3" : 0.0,
                      "geometryCrop0" : 0.0,
                      "geometryCrop1" : 0.0,
                      "geometryCrop2" : 0.0,
                      "geometryCrop3" : 0.0
                    },
                    "effects" : [

                    ],
                    "start" : 17453,
                    "duration" : 189,
                    "mediaStart" : 0,
                    "mediaDuration" : 1,
                    "scalar" : 1,
                    "metadata" : {
                      "clipSpeedAttribute" : false
                    },
                    "animationTracks" : {

                    }
                  },
                  {
                    "id" : 81,
                    "_type" : "IMFile",
                    "src" : 17,
                    "trackNumber" : 0,
                    "trimStartSum" : -340,
                    "attributes" : {
                      "ident" : "17-A comparative study on different Models for Commun-Summary"
                    },
                    "parameters" : {
                      "sourceCrop0" : 0.0,
                      "sourceCrop1" : 0.0,
                      "sourceCrop2" : 0.0,
                      "sourceCrop3" : 0.0,
                      "geometryCrop0" : 0.0,
                      "geometryCrop1" : 0.0,
                      "geometryCrop2" : 0.0,
                      "geometryCrop3" : 0.0
                    },
                    "effects" : [

                    ],
                    "start" : 17642,
                    "duration" : 329,
                    "mediaStart" : 0,
                    "mediaDuration" : 1,
                    "scalar" : 1,
                    "metadata" : {
                      "clipSpeedAttribute" : false
                    },
                    "animationTracks" : {

                    }
                  }
                ]
              },
              {
                "trackIndex" : 1,
                "medias" : [
                  {
                    "id" : 82,
                    "_type" : "Callout",
                    "def" : {
                      "kind" : "remix",
                      "shape" : "shape-rectangle",
                      "style" : "basic",
                      "fill-color-blue" : 1.0,
                      "fill-color-green" : 1.0,
                      "fill-color-opacity" : 1.0,
                      "fill-color-red" : 1.0,
                      "height" : 233.864023308549,
                      "stroke-color-blue" : 1.0,
                      "stroke-color-green" : 1.0,
                      "stroke-color-opacity" : 1.0,
                      "stroke-color-red" : 1.0,
                      "stroke-width" : 0.0,
                      "width" : 415.758257949189,
                      "fill-style" : "solid",
                      "stroke-style" : "solid"
                    },
                    "attributes" : {
                      "autoRotateText" : true
                    },
                    "parameters" : {
                      "translation0" : 709.212462306919,
                      "translation1" : -389.067988345464,
                      "sourceCrop0" : 0.0,
                      "sourceCrop1" : 0.0,
                      "sourceCrop2" : 0.0,
                      "sourceCrop3" : 0.0,
                      "geometryCrop0" : 0.0,
                      "geometryCrop1" : 0.0,
                      "geometryCrop2" : 0.0,
                      "geometryCrop3" : 0.0
                    },
                    "effects" : [

                    ],
                    "start" : 0,
                    "duration" : 981,
                    "mediaStart" : 0,
                    "mediaDuration" : 981,
                    "scalar" : 1,
                    "metadata" : {
                      "clipSpeedAttribute" : false,
                      "default-translation0" : 0.0,
                      "default-translation1" : 0.0
                    },
                    "animationTracks" : {

                    }
                  },
                  {
                    "id" : 83,
                    "_type" : "Callout",
                    "def" : {
                      "kind" : "remix",
                      "shape" : "shape-rectangle",
                      "style" : "basic",
                      "fill-color-blue" : 1.0,
                      "fill-color-green" : 1.0,
                      "fill-color-opacity" : 1.0,
                      "fill-color-red" : 1.0,
                      "height" : 233.864023308549,
                      "stroke-color-blue" : 1.0,
                      "stroke-color-green" : 1.0,
                      "stroke-color-opacity" : 1.0,
                      "stroke-color-red" : 1.0,
                      "stroke-width" : 0.0,
                      "width" : 415.758257949189,
                      "fill-style" : "solid",
                      "stroke-style" : "solid"
                    },
                    "attributes" : {
                      "autoRotateText" : true
                    },
                    "parameters" : {
                      "translation0" : 709.212462306919,
                      "translation1" : -389.067988345464,
                      "sourceCrop0" : 0.0,
                      "sourceCrop1" : 0.0,
                      "sourceCrop2" : 0.0,
                      "sourceCrop3" : 0.0,
                      "geometryCrop0" : 0.0,
                      "geometryCrop1" : 0.0,
                      "geometryCrop2" : 0.0,
                      "geometryCrop3" : 0.0
                    },
                    "effects" : [

                    ],
                    "start" : 2044,
                    "duration" : 117,
                    "mediaStart" : 2173,
                    "mediaDuration" : 117,
                    "scalar" : 1,
                    "metadata" : {
                      "clipSpeedAttribute" : false,
                      "default-translation0" : 0.0,
                      "default-translation1" : 0.0
                    },
                    "animationTracks" : {

                    }
                  },
                  {
                    "id" : 84,
                    "_type" : "Callout",
                    "def" : {
                      "kind" : "remix",
                      "shape" : "shape-rectangle",
                      "style" : "basic",
                      "fill-color-blue" : 1.0,
                      "fill-color-green" : 1.0,
                      "fill-color-opacity" : 1.0,
                      "fill-color-red" : 1.0,
                      "height" : 233.864023308549,
                      "stroke-color-blue" : 1.0,
                      "stroke-color-green" : 1.0,
                      "stroke-color-opacity" : 1.0,
                      "stroke-color-red" : 1.0,
                      "stroke-width" : 0.0,
                      "width" : 415.758257949189,
                      "fill-style" : "solid",
                      "stroke-style" : "solid"
                    },
                    "attributes" : {
                      "autoRotateText" : true
                    },
                    "parameters" : {
                      "translation0" : 709.212462306919,
                      "translation1" : -389.067988345464,
                      "sourceCrop0" : 0.0,
                      "sourceCrop1" : 0.0,
                      "sourceCrop2" : 0.0,
                      "sourceCrop3" : 0.0,
                      "geometryCrop0" : 0.0,
                      "geometryCrop1" : 0.0,
                      "geometryCrop2" : 0.0,
                      "geometryCrop3" : 0.0
                    },
                    "effects" : [

                    ],
                    "start" : 2161,
                    "duration" : 839,
                    "mediaStart" : 2303,
                    "mediaDuration" : 839,
                    "scalar" : 1,
                    "metadata" : {
                      "clipSpeedAttribute" : false,
                      "default-translation0" : 0.0,
                      "default-translation1" : 0.0
                    },
                    "animationTracks" : {

                    }
                  },
                  {
                    "id" : 85,
                    "_type" : "Callout",
                    "def" : {
                      "kind" : "remix",
                      "shape" : "shape-rectangle",
                      "style" : "basic",
                      "fill-color-blue" : 1.0,
                      "fill-color-green" : 1.0,
                      "fill-color-opacity" : 1.0,
                      "fill-color-red" : 1.0,
                      "height" : 233.864023308549,
                      "stroke-color-blue" : 1.0,
                      "stroke-color-green" : 1.0,
                      "stroke-color-opacity" : 1.0,
                      "stroke-color-red" : 1.0,
                      "stroke-width" : 0.0,
                      "width" : 415.758257949189,
                      "fill-style" : "solid",
                      "stroke-style" : "solid"
                    },
                    "attributes" : {
                      "autoRotateText" : true
                    },
                    "parameters" : {
                      "translation0" : {
                        "type" : "double",
                        "defaultValue" : 709.212462306919,
                        "keyframes" : [
                          {
                            "endTime" : 5288,
                            "time" : 5258,
                            "value" : 1640.94232731916,
                            "duration" : 30
                          },
                          {
                            "endTime" : 5625,
                            "time" : 5595,
                            "value" : 709.212491680126,
                            "duration" : 30
                          }
                        ]
                      },
                      "translation1" : {
                        "type" : "double",
                        "defaultValue" : -389.067988345464,
                        "keyframes" : [
                          {
                            "endTime" : 5288,
                            "time" : 5258,
                            "value" : 27.6027705818047,
                            "duration" : 30
                          },
                          {
                            "endTime" : 5625,
                            "time" : 5595,
                            "value" : -389.067998775562,
                            "duration" : 30
                          }
                        ]
                      },
                      "scale0" : {
                        "type" : "double",
                        "defaultValue" : 1.0,
                        "keyframes" : [
                          {
                            "endTime" : 5288,
                            "time" : 5258,
                            "value" : 2.42592351648487,
                            "duration" : 30
                          },
                          {
                            "endTime" : 5625,
                            "time" : 5595,
                            "value" : 1.00000004141665,
                            "duration" : 30
                          }
                        ]
                      },
                      "scale1" : {
                        "type" : "double",
                        "defaultValue" : 1.0,
                        "keyframes" : [
                          {
                            "endTime" : 5288,
                            "time" : 5258,
                            "value" : 2.42592420533425,
                            "duration" : 30
                          },
                          {
                            "endTime" : 5625,
                            "time" : 5595,
                            "value" : 1.00000011985877,
                            "duration" : 30
                          }
                        ]
                      },
                      "sourceCrop0" : 0.0,
                      "sourceCrop1" : 0.0,
                      "sourceCrop2" : 0.0,
                      "sourceCrop3" : 0.0,
                      "geometryCrop0" : 0.0,
                      "geometryCrop1" : 0.0,
                      "geometryCrop2" : 0.0,
                      "geometryCrop3" : 0.0
                    },
                    "effects" : [

                    ],
                    "start" : 3000,
                    "duration" : 3224,
                    "mediaStart" : 3157,
                    "mediaDuration" : 3224,
                    "scalar" : 1,
                    "metadata" : {
                      "clipSpeedAttribute" : false,
                      "default-scale0" : 1.0,
                      "default-scale1" : 1.0,
                      "default-translation0" : 0.0,
                      "default-translation1" : 0.0
                    },
                    "animationTracks" : {
                      "visual" : [
                        {
                          "endTime" : 5288,
                          "duration" : 30,
                          "range" : [ 5258, 30]
                        },
                        {
                          "endTime" : 5625,
                          "duration" : 30,
                          "range" : [ 5595, 30]
                        }
                      ]
                    }
                  },
                  {
                    "id" : 86,
                    "_type" : "Callout",
                    "def" : {
                      "kind" : "remix",
                      "shape" : "shape-rectangle",
                      "style" : "basic",
                      "fill-color-blue" : 1.0,
                      "fill-color-green" : 1.0,
                      "fill-color-opacity" : 1.0,
                      "fill-color-red" : 1.0,
                      "height" : 233.864023308549,
                      "stroke-color-blue" : 1.0,
                      "stroke-color-green" : 1.0,
                      "stroke-color-opacity" : 1.0,
                      "stroke-color-red" : 1.0,
                      "stroke-width" : 0.0,
                      "width" : 415.758257949189,
                      "fill-style" : "solid",
                      "stroke-style" : "solid"
                    },
                    "attributes" : {
                      "autoRotateText" : true
                    },
                    "parameters" : {
                      "translation0" : {
                        "type" : "double",
                        "defaultValue" : 709.212462306919,
                        "keyframes" : [
                          {
                            "endTime" : 5288,
                            "time" : 5258,
                            "value" : 1640.94232731916,
                            "duration" : 30
                          },
                          {
                            "endTime" : 5625,
                            "time" : 5595,
                            "value" : 709.212491680126,
                            "duration" : 30
                          }
                        ]
                      },
                      "translation1" : {
                        "type" : "double",
                        "defaultValue" : -389.067988345464,
                        "keyframes" : [
                          {
                            "endTime" : 5288,
                            "time" : 5258,
                            "value" : 27.6027705818047,
                            "duration" : 30
                          },
                          {
                            "endTime" : 5625,
                            "time" : 5595,
                            "value" : -389.067998775562,
                            "duration" : 30
                          }
                        ]
                      },
                      "scale0" : {
                        "type" : "double",
                        "defaultValue" : 1.0,
                        "keyframes" : [
                          {
                            "endTime" : 5288,
                            "time" : 5258,
                            "value" : 2.42592351648487,
                            "duration" : 30
                          },
                          {
                            "endTime" : 5625,
                            "time" : 5595,
                            "value" : 1.00000004141665,
                            "duration" : 30
                          }
                        ]
                      },
                      "scale1" : {
                        "type" : "double",
                        "defaultValue" : 1.0,
                        "keyframes" : [
                          {
                            "endTime" : 5288,
                            "time" : 5258,
                            "value" : 2.42592420533425,
                            "duration" : 30
                          },
                          {
                            "endTime" : 5625,
                            "time" : 5595,
                            "value" : 1.00000011985877,
                            "duration" : 30
                          }
                        ]
                      },
                      "sourceCrop0" : 0.0,
                      "sourceCrop1" : 0.0,
                      "sourceCrop2" : 0.0,
                      "sourceCrop3" : 0.0,
                      "geometryCrop0" : 0.0,
                      "geometryCrop1" : 0.0,
                      "geometryCrop2" : 0.0,
                      "geometryCrop3" : 0.0
                    },
                    "effects" : [

                    ],
                    "start" : 6224,
                    "duration" : 214,
                    "mediaStart" : 6455,
                    "mediaDuration" : 214,
                    "scalar" : 1,
                    "metadata" : {
                      "clipSpeedAttribute" : false,
                      "default-scale0" : 1.0,
                      "default-scale1" : 1.0,
                      "default-translation0" : 0.0,
                      "default-translation1" : 0.0
                    },
                    "animationTracks" : {
                      "visual" : [
                        {
                          "endTime" : 5288,
                          "duration" : 30,
                          "range" : [ 5258, 30]
                        },
                        {
                          "endTime" : 5625,
                          "duration" : 30,
                          "range" : [ 5595, 30]
                        }
                      ]
                    }
                  },
                  {
                    "id" : 87,
                    "_type" : "Callout",
                    "def" : {
                      "kind" : "remix",
                      "shape" : "shape-rectangle",
                      "style" : "basic",
                      "fill-color-blue" : 1.0,
                      "fill-color-green" : 1.0,
                      "fill-color-opacity" : 1.0,
                      "fill-color-red" : 1.0,
                      "height" : 233.864023308549,
                      "stroke-color-blue" : 1.0,
                      "stroke-color-green" : 1.0,
                      "stroke-color-opacity" : 1.0,
                      "stroke-color-red" : 1.0,
                      "stroke-width" : 0.0,
                      "width" : 415.758257949189,
                      "fill-style" : "solid",
                      "stroke-style" : "solid"
                    },
                    "attributes" : {
                      "autoRotateText" : true
                    },
                    "parameters" : {
                      "translation0" : {
                        "type" : "double",
                        "defaultValue" : 709.212462306919,
                        "keyframes" : [
                          {
                            "endTime" : 5288,
                            "time" : 5258,
                            "value" : 1640.94232731916,
                            "duration" : 30
                          },
                          {
                            "endTime" : 5625,
                            "time" : 5595,
                            "value" : 709.212491680126,
                            "duration" : 30
                          }
                        ]
                      },
                      "translation1" : {
                        "type" : "double",
                        "defaultValue" : -389.067988345464,
                        "keyframes" : [
                          {
                            "endTime" : 5288,
                            "time" : 5258,
                            "value" : 27.6027705818047,
                            "duration" : 30
                          },
                          {
                            "endTime" : 5625,
                            "time" : 5595,
                            "value" : -389.067998775562,
                            "duration" : 30
                          }
                        ]
                      },
                      "scale0" : {
                        "type" : "double",
                        "defaultValue" : 1.0,
                        "keyframes" : [
                          {
                            "endTime" : 5288,
                            "time" : 5258,
                            "value" : 2.42592351648487,
                            "duration" : 30
                          },
                          {
                            "endTime" : 5625,
                            "time" : 5595,
                            "value" : 1.00000004141665,
                            "duration" : 30
                          }
                        ]
                      },
                      "scale1" : {
                        "type" : "double",
                        "defaultValue" : 1.0,
                        "keyframes" : [
                          {
                            "endTime" : 5288,
                            "time" : 5258,
                            "value" : 2.42592420533425,
                            "duration" : 30
                          },
                          {
                            "endTime" : 5625,
                            "time" : 5595,
                            "value" : 1.00000011985877,
                            "duration" : 30
                          }
                        ]
                      },
                      "sourceCrop0" : 0.0,
                      "sourceCrop1" : 0.0,
                      "sourceCrop2" : 0.0,
                      "sourceCrop3" : 0.0,
                      "geometryCrop0" : 0.0,
                      "geometryCrop1" : 0.0,
                      "geometryCrop2" : 0.0,
                      "geometryCrop3" : 0.0
                    },
                    "effects" : [

                    ],
                    "start" : 6438,
                    "duration" : 1195,
                    "mediaStart" : 6713,
                    "mediaDuration" : 1195,
                    "scalar" : 1,
                    "metadata" : {
                      "clipSpeedAttribute" : false,
                      "default-scale0" : 1.0,
                      "default-scale1" : 1.0,
                      "default-translation0" : 0.0,
                      "default-translation1" : 0.0
                    },
                    "animationTracks" : {
                      "visual" : [
                        {
                          "endTime" : 5288,
                          "duration" : 30,
                          "range" : [ 5258, 30]
                        },
                        {
                          "endTime" : 5625,
                          "duration" : 30,
                          "range" : [ 5595, 30]
                        }
                      ]
                    }
                  },
                  {
                    "id" : 88,
                    "_type" : "Callout",
                    "def" : {
                      "kind" : "remix",
                      "shape" : "shape-rectangle",
                      "style" : "basic",
                      "fill-color-blue" : 1.0,
                      "fill-color-green" : 1.0,
                      "fill-color-opacity" : 1.0,
                      "fill-color-red" : 1.0,
                      "height" : 233.864023308549,
                      "stroke-color-blue" : 1.0,
                      "stroke-color-green" : 1.0,
                      "stroke-color-opacity" : 1.0,
                      "stroke-color-red" : 1.0,
                      "stroke-width" : 0.0,
                      "width" : 415.758257949189,
                      "fill-style" : "solid",
                      "stroke-style" : "solid"
                    },
                    "attributes" : {
                      "autoRotateText" : true
                    },
                    "parameters" : {
                      "translation0" : {
                        "type" : "double",
                        "defaultValue" : 709.212462306919,
                        "keyframes" : [
                          {
                            "endTime" : 5288,
                            "time" : 5258,
                            "value" : 1640.94232731916,
                            "duration" : 30
                          },
                          {
                            "endTime" : 5625,
                            "time" : 5595,
                            "value" : 709.212491680126,
                            "duration" : 30
                          }
                        ]
                      },
                      "translation1" : {
                        "type" : "double",
                        "defaultValue" : -389.067988345464,
                        "keyframes" : [
                          {
                            "endTime" : 5288,
                            "time" : 5258,
                            "value" : 27.6027705818047,
                            "duration" : 30
                          },
                          {
                            "endTime" : 5625,
                            "time" : 5595,
                            "value" : -389.067998775562,
                            "duration" : 30
                          }
                        ]
                      },
                      "scale0" : {
                        "type" : "double",
                        "defaultValue" : 1.0,
                        "keyframes" : [
                          {
                            "endTime" : 5288,
                            "time" : 5258,
                            "value" : 2.42592351648487,
                            "duration" : 30
                          },
                          {
                            "endTime" : 5625,
                            "time" : 5595,
                            "value" : 1.00000004141665,
                            "duration" : 30
                          }
                        ]
                      },
                      "scale1" : {
                        "type" : "double",
                        "defaultValue" : 1.0,
                        "keyframes" : [
                          {
                            "endTime" : 5288,
                            "time" : 5258,
                            "value" : 2.42592420533425,
                            "duration" : 30
                          },
                          {
                            "endTime" : 5625,
                            "time" : 5595,
                            "value" : 1.00000011985877,
                            "duration" : 30
                          }
                        ]
                      },
                      "sourceCrop0" : 0.0,
                      "sourceCrop1" : 0.0,
                      "sourceCrop2" : 0.0,
                      "sourceCrop3" : 0.0,
                      "geometryCrop0" : 0.0,
                      "geometryCrop1" : 0.0,
                      "geometryCrop2" : 0.0,
                      "geometryCrop3" : 0.0
                    },
                    "effects" : [

                    ],
                    "start" : 7633,
                    "duration" : 223,
                    "mediaStart" : 7960,
                    "mediaDuration" : 223,
                    "scalar" : 1,
                    "metadata" : {
                      "clipSpeedAttribute" : false,
                      "default-scale0" : 1.0,
                      "default-scale1" : 1.0,
                      "default-translation0" : 0.0,
                      "default-translation1" : 0.0
                    },
                    "animationTracks" : {
                      "visual" : [
                        {
                          "endTime" : 5288,
                          "duration" : 30,
                          "range" : [ 5258, 30]
                        },
                        {
                          "endTime" : 5625,
                          "duration" : 30,
                          "range" : [ 5595, 30]
                        }
                      ]
                    }
                  },
                  {
                    "id" : 89,
                    "_type" : "Callout",
                    "def" : {
                      "kind" : "remix",
                      "shape" : "shape-rectangle",
                      "style" : "basic",
                      "fill-color-blue" : 1.0,
                      "fill-color-green" : 1.0,
                      "fill-color-opacity" : 1.0,
                      "fill-color-red" : 1.0,
                      "height" : 233.864023308549,
                      "stroke-color-blue" : 1.0,
                      "stroke-color-green" : 1.0,
                      "stroke-color-opacity" : 1.0,
                      "stroke-color-red" : 1.0,
                      "stroke-width" : 0.0,
                      "width" : 415.758257949189,
                      "fill-style" : "solid",
                      "stroke-style" : "solid"
                    },
                    "attributes" : {
                      "autoRotateText" : true
                    },
                    "parameters" : {
                      "translation0" : {
                        "type" : "double",
                        "defaultValue" : 709.212462306919,
                        "keyframes" : [
                          {
                            "endTime" : 5288,
                            "time" : 5258,
                            "value" : 1640.94232731916,
                            "duration" : 30
                          },
                          {
                            "endTime" : 5625,
                            "time" : 5595,
                            "value" : 709.212491680126,
                            "duration" : 30
                          }
                        ]
                      },
                      "translation1" : {
                        "type" : "double",
                        "defaultValue" : -389.067988345464,
                        "keyframes" : [
                          {
                            "endTime" : 5288,
                            "time" : 5258,
                            "value" : 27.6027705818047,
                            "duration" : 30
                          },
                          {
                            "endTime" : 5625,
                            "time" : 5595,
                            "value" : -389.067998775562,
                            "duration" : 30
                          }
                        ]
                      },
                      "scale0" : {
                        "type" : "double",
                        "defaultValue" : 1.0,
                        "keyframes" : [
                          {
                            "endTime" : 5288,
                            "time" : 5258,
                            "value" : 2.42592351648487,
                            "duration" : 30
                          },
                          {
                            "endTime" : 5625,
                            "time" : 5595,
                            "value" : 1.00000004141665,
                            "duration" : 30
                          }
                        ]
                      },
                      "scale1" : {
                        "type" : "double",
                        "defaultValue" : 1.0,
                        "keyframes" : [
                          {
                            "endTime" : 5288,
                            "time" : 5258,
                            "value" : 2.42592420533425,
                            "duration" : 30
                          },
                          {
                            "endTime" : 5625,
                            "time" : 5595,
                            "value" : 1.00000011985877,
                            "duration" : 30
                          }
                        ]
                      },
                      "sourceCrop0" : 0.0,
                      "sourceCrop1" : 0.0,
                      "sourceCrop2" : 0.0,
                      "sourceCrop3" : 0.0,
                      "geometryCrop0" : 0.0,
                      "geometryCrop1" : 0.0,
                      "geometryCrop2" : 0.0,
                      "geometryCrop3" : 0.0
                    },
                    "effects" : [

                    ],
                    "start" : 7856,
                    "duration" : 1039,
                    "mediaStart" : 8228,
                    "mediaDuration" : 1039,
                    "scalar" : 1,
                    "metadata" : {
                      "clipSpeedAttribute" : false,
                      "default-scale0" : 1.0,
                      "default-scale1" : 1.0,
                      "default-translation0" : 0.0,
                      "default-translation1" : 0.0
                    },
                    "animationTracks" : {
                      "visual" : [
                        {
                          "endTime" : 5288,
                          "duration" : 30,
                          "range" : [ 5258, 30]
                        },
                        {
                          "endTime" : 5625,
                          "duration" : 30,
                          "range" : [ 5595, 30]
                        }
                      ]
                    }
                  },
                  {
                    "id" : 90,
                    "_type" : "Callout",
                    "def" : {
                      "kind" : "remix",
                      "shape" : "shape-rectangle",
                      "style" : "basic",
                      "fill-color-blue" : 1.0,
                      "fill-color-green" : 1.0,
                      "fill-color-opacity" : 1.0,
                      "fill-color-red" : 1.0,
                      "height" : 233.864023308549,
                      "stroke-color-blue" : 1.0,
                      "stroke-color-green" : 1.0,
                      "stroke-color-opacity" : 1.0,
                      "stroke-color-red" : 1.0,
                      "stroke-width" : 0.0,
                      "width" : 415.758257949189,
                      "fill-style" : "solid",
                      "stroke-style" : "solid"
                    },
                    "attributes" : {
                      "autoRotateText" : true
                    },
                    "parameters" : {
                      "translation0" : {
                        "type" : "double",
                        "defaultValue" : 709.212462306919,
                        "keyframes" : [
                          {
                            "endTime" : 5288,
                            "time" : 5258,
                            "value" : 1640.94232731916,
                            "duration" : 30
                          },
                          {
                            "endTime" : 5625,
                            "time" : 5595,
                            "value" : 709.212491680126,
                            "duration" : 30
                          }
                        ]
                      },
                      "translation1" : {
                        "type" : "double",
                        "defaultValue" : -389.067988345464,
                        "keyframes" : [
                          {
                            "endTime" : 5288,
                            "time" : 5258,
                            "value" : 27.6027705818047,
                            "duration" : 30
                          },
                          {
                            "endTime" : 5625,
                            "time" : 5595,
                            "value" : -389.067998775562,
                            "duration" : 30
                          }
                        ]
                      },
                      "scale0" : {
                        "type" : "double",
                        "defaultValue" : 1.0,
                        "keyframes" : [
                          {
                            "endTime" : 5288,
                            "time" : 5258,
                            "value" : 2.42592351648487,
                            "duration" : 30
                          },
                          {
                            "endTime" : 5625,
                            "time" : 5595,
                            "value" : 1.00000004141665,
                            "duration" : 30
                          }
                        ]
                      },
                      "scale1" : {
                        "type" : "double",
                        "defaultValue" : 1.0,
                        "keyframes" : [
                          {
                            "endTime" : 5288,
                            "time" : 5258,
                            "value" : 2.42592420533425,
                            "duration" : 30
                          },
                          {
                            "endTime" : 5625,
                            "time" : 5595,
                            "value" : 1.00000011985877,
                            "duration" : 30
                          }
                        ]
                      },
                      "sourceCrop0" : 0.0,
                      "sourceCrop1" : 0.0,
                      "sourceCrop2" : 0.0,
                      "sourceCrop3" : 0.0,
                      "geometryCrop0" : 0.0,
                      "geometryCrop1" : 0.0,
                      "geometryCrop2" : 0.0,
                      "geometryCrop3" : 0.0
                    },
                    "effects" : [

                    ],
                    "start" : 8895,
                    "duration" : 359,
                    "mediaStart" : 9305,
                    "mediaDuration" : 359,
                    "scalar" : 1,
                    "metadata" : {
                      "clipSpeedAttribute" : false,
                      "default-scale0" : 1.0,
                      "default-scale1" : 1.0,
                      "default-translation0" : 0.0,
                      "default-translation1" : 0.0
                    },
                    "animationTracks" : {
                      "visual" : [
                        {
                          "endTime" : 5288,
                          "duration" : 30,
                          "range" : [ 5258, 30]
                        },
                        {
                          "endTime" : 5625,
                          "duration" : 30,
                          "range" : [ 5595, 30]
                        }
                      ]
                    }
                  },
                  {
                    "id" : 91,
                    "_type" : "Callout",
                    "def" : {
                      "kind" : "remix",
                      "shape" : "shape-rectangle",
                      "style" : "basic",
                      "fill-color-blue" : 1.0,
                      "fill-color-green" : 1.0,
                      "fill-color-opacity" : 1.0,
                      "fill-color-red" : 1.0,
                      "height" : 233.864023308549,
                      "stroke-color-blue" : 1.0,
                      "stroke-color-green" : 1.0,
                      "stroke-color-opacity" : 1.0,
                      "stroke-color-red" : 1.0,
                      "stroke-width" : 0.0,
                      "width" : 415.758257949189,
                      "fill-style" : "solid",
                      "stroke-style" : "solid"
                    },
                    "attributes" : {
                      "autoRotateText" : true
                    },
                    "parameters" : {
                      "translation0" : {
                        "type" : "double",
                        "defaultValue" : 709.212462306919,
                        "keyframes" : [
                          {
                            "endTime" : 5288,
                            "time" : 5258,
                            "value" : 1640.94232731916,
                            "duration" : 30
                          },
                          {
                            "endTime" : 5625,
                            "time" : 5595,
                            "value" : 709.212491680126,
                            "duration" : 30
                          },
                          {
                            "endTime" : 10167,
                            "time" : 10137,
                            "value" : 2061.36706311016,
                            "duration" : 30
                          },
                          {
                            "endTime" : 10777,
                            "time" : 10747,
                            "value" : 709.212367243192,
                            "duration" : 30
                          },
                          {
                            "endTime" : 10865,
                            "time" : 10835,
                            "value" : 441.606916547525,
                            "duration" : 30
                          }
                        ]
                      },
                      "translation1" : {
                        "type" : "double",
                        "defaultValue" : -389.067988345464,
                        "keyframes" : [
                          {
                            "endTime" : 5288,
                            "time" : 5258,
                            "value" : 27.6027705818047,
                            "duration" : 30
                          },
                          {
                            "endTime" : 5625,
                            "time" : 5595,
                            "value" : -389.067998775562,
                            "duration" : 30
                          },
                          {
                            "endTime" : 10167,
                            "time" : 10137,
                            "value" : -689.228125704885,
                            "duration" : 30
                          },
                          {
                            "endTime" : 10777,
                            "time" : 10747,
                            "value" : -389.06801670508,
                            "duration" : 30
                          },
                          {
                            "endTime" : 10865,
                            "time" : 10835,
                            "value" : -927.765992916481,
                            "duration" : 30
                          }
                        ]
                      },
                      "scale0" : {
                        "type" : "double",
                        "defaultValue" : 1.0,
                        "keyframes" : [
                          {
                            "endTime" : 5288,
                            "time" : 5258,
                            "value" : 2.42592351648487,
                            "duration" : 30
                          },
                          {
                            "endTime" : 5625,
                            "time" : 5595,
                            "value" : 1.00000004141665,
                            "duration" : 30
                          },
                          {
                            "endTime" : 10167,
                            "time" : 10137,
                            "value" : 1.92825675580898,
                            "duration" : 30
                          },
                          {
                            "endTime" : 10777,
                            "time" : 10747,
                            "value" : 1.00000000001744,
                            "duration" : 30
                          },
                          {
                            "endTime" : 10865,
                            "time" : 10835,
                            "value" : 2.49372382589196,
                            "duration" : 30
                          }
                        ]
                      },
                      "scale1" : {
                        "type" : "double",
                        "defaultValue" : 1.0,
                        "keyframes" : [
                          {
                            "endTime" : 5288,
                            "time" : 5258,
                            "value" : 2.42592420533425,
                            "duration" : 30
                          },
                          {
                            "endTime" : 5625,
                            "time" : 5595,
                            "value" : 1.00000011985877,
                            "duration" : 30
                          },
                          {
                            "endTime" : 10167,
                            "time" : 10137,
                            "value" : 1.92825698315707,
                            "duration" : 30
                          },
                          {
                            "endTime" : 10777,
                            "time" : 10747,
                            "value" : 1.00000020670326,
                            "duration" : 30
                          },
                          {
                            "endTime" : 10865,
                            "time" : 10835,
                            "value" : 2.49372446668727,
                            "duration" : 30
                          }
                        ]
                      },
                      "sourceCrop0" : 0.0,
                      "sourceCrop1" : 0.0,
                      "sourceCrop2" : 0.0,
                      "sourceCrop3" : 0.0,
                      "geometryCrop0" : 0.0,
                      "geometryCrop1" : 0.0,
                      "geometryCrop2" : 0.0,
                      "geometryCrop3" : 0.0
                    },
                    "effects" : [

                    ],
                    "start" : 9254,
                    "duration" : 1964,
                    "mediaStart" : 9706,
                    "mediaDuration" : 1964,
                    "scalar" : 1,
                    "metadata" : {
                      "clipSpeedAttribute" : false,
                      "default-scale0" : 1.0,
                      "default-scale1" : 1.0,
                      "default-translation0" : 0.0,
                      "default-translation1" : 0.0
                    },
                    "animationTracks" : {
                      "visual" : [
                        {
                          "endTime" : 5288,
                          "duration" : 30,
                          "range" : [ 5258, 30]
                        },
                        {
                          "endTime" : 5625,
                          "duration" : 30,
                          "range" : [ 5595, 30]
                        },
                        {
                          "endTime" : 10167,
                          "duration" : 30,
                          "range" : [ 10137, 30]
                        },
                        {
                          "endTime" : 10777,
                          "duration" : 30,
                          "range" : [ 10747, 30]
                        },
                        {
                          "endTime" : 10865,
                          "duration" : 30,
                          "range" : [ 10835, 30]
                        }
                      ]
                    }
                  },
                  {
                    "id" : 92,
                    "_type" : "Callout",
                    "def" : {
                      "kind" : "remix",
                      "shape" : "shape-rectangle",
                      "style" : "basic",
                      "fill-color-blue" : 1.0,
                      "fill-color-green" : 1.0,
                      "fill-color-opacity" : 1.0,
                      "fill-color-red" : 1.0,
                      "height" : 233.864023308549,
                      "stroke-color-blue" : 1.0,
                      "stroke-color-green" : 1.0,
                      "stroke-color-opacity" : 1.0,
                      "stroke-color-red" : 1.0,
                      "stroke-width" : 0.0,
                      "width" : 415.758257949189,
                      "fill-style" : "solid",
                      "stroke-style" : "solid"
                    },
                    "attributes" : {
                      "autoRotateText" : true
                    },
                    "parameters" : {
                      "translation0" : {
                        "type" : "double",
                        "defaultValue" : 709.212462306919,
                        "keyframes" : [
                          {
                            "endTime" : 5288,
                            "time" : 5258,
                            "value" : 1640.94232731916,
                            "duration" : 30
                          },
                          {
                            "endTime" : 5625,
                            "time" : 5595,
                            "value" : 709.212491680126,
                            "duration" : 30
                          },
                          {
                            "endTime" : 10167,
                            "time" : 10137,
                            "value" : 2061.36706311016,
                            "duration" : 30
                          },
                          {
                            "endTime" : 10777,
                            "time" : 10747,
                            "value" : 709.212367243192,
                            "duration" : 30
                          },
                          {
                            "endTime" : 10865,
                            "time" : 10835,
                            "value" : 441.606916547525,
                            "duration" : 30
                          }
                        ]
                      },
                      "translation1" : {
                        "type" : "double",
                        "defaultValue" : -389.067988345464,
                        "keyframes" : [
                          {
                            "endTime" : 5288,
                            "time" : 5258,
                            "value" : 27.6027705818047,
                            "duration" : 30
                          },
                          {
                            "endTime" : 5625,
                            "time" : 5595,
                            "value" : -389.067998775562,
                            "duration" : 30
                          },
                          {
                            "endTime" : 10167,
                            "time" : 10137,
                            "value" : -689.228125704885,
                            "duration" : 30
                          },
                          {
                            "endTime" : 10777,
                            "time" : 10747,
                            "value" : -389.06801670508,
                            "duration" : 30
                          },
                          {
                            "endTime" : 10865,
                            "time" : 10835,
                            "value" : -927.765992916481,
                            "duration" : 30
                          }
                        ]
                      },
                      "scale0" : {
                        "type" : "double",
                        "defaultValue" : 1.0,
                        "keyframes" : [
                          {
                            "endTime" : 5288,
                            "time" : 5258,
                            "value" : 2.42592351648487,
                            "duration" : 30
                          },
                          {
                            "endTime" : 5625,
                            "time" : 5595,
                            "value" : 1.00000004141665,
                            "duration" : 30
                          },
                          {
                            "endTime" : 10167,
                            "time" : 10137,
                            "value" : 1.92825675580898,
                            "duration" : 30
                          },
                          {
                            "endTime" : 10777,
                            "time" : 10747,
                            "value" : 1.00000000001744,
                            "duration" : 30
                          },
                          {
                            "endTime" : 10865,
                            "time" : 10835,
                            "value" : 2.49372382589196,
                            "duration" : 30
                          }
                        ]
                      },
                      "scale1" : {
                        "type" : "double",
                        "defaultValue" : 1.0,
                        "keyframes" : [
                          {
                            "endTime" : 5288,
                            "time" : 5258,
                            "value" : 2.42592420533425,
                            "duration" : 30
                          },
                          {
                            "endTime" : 5625,
                            "time" : 5595,
                            "value" : 1.00000011985877,
                            "duration" : 30
                          },
                          {
                            "endTime" : 10167,
                            "time" : 10137,
                            "value" : 1.92825698315707,
                            "duration" : 30
                          },
                          {
                            "endTime" : 10777,
                            "time" : 10747,
                            "value" : 1.00000020670326,
                            "duration" : 30
                          },
                          {
                            "endTime" : 10865,
                            "time" : 10835,
                            "value" : 2.49372446668727,
                            "duration" : 30
                          }
                        ]
                      },
                      "sourceCrop0" : 0.0,
                      "sourceCrop1" : 0.0,
                      "sourceCrop2" : 0.0,
                      "sourceCrop3" : 0.0,
                      "geometryCrop0" : 0.0,
                      "geometryCrop1" : 0.0,
                      "geometryCrop2" : 0.0,
                      "geometryCrop3" : 0.0
                    },
                    "effects" : [

                    ],
                    "start" : 11218,
                    "duration" : 1679,
                    "mediaStart" : 11708,
                    "mediaDuration" : 1679,
                    "scalar" : 1,
                    "metadata" : {
                      "clipSpeedAttribute" : false,
                      "default-scale0" : 1.0,
                      "default-scale1" : 1.0,
                      "default-translation0" : 0.0,
                      "default-translation1" : 0.0
                    },
                    "animationTracks" : {
                      "visual" : [
                        {
                          "endTime" : 5288,
                          "duration" : 30,
                          "range" : [ 5258, 30]
                        },
                        {
                          "endTime" : 5625,
                          "duration" : 30,
                          "range" : [ 5595, 30]
                        },
                        {
                          "endTime" : 10167,
                          "duration" : 30,
                          "range" : [ 10137, 30]
                        },
                        {
                          "endTime" : 10777,
                          "duration" : 30,
                          "range" : [ 10747, 30]
                        },
                        {
                          "endTime" : 10865,
                          "duration" : 30,
                          "range" : [ 10835, 30]
                        }
                      ]
                    }
                  },
                  {
                    "id" : 93,
                    "_type" : "Callout",
                    "def" : {
                      "kind" : "remix",
                      "shape" : "shape-rectangle",
                      "style" : "basic",
                      "fill-color-blue" : 1.0,
                      "fill-color-green" : 1.0,
                      "fill-color-opacity" : 1.0,
                      "fill-color-red" : 1.0,
                      "height" : 233.864023308549,
                      "stroke-color-blue" : 1.0,
                      "stroke-color-green" : 1.0,
                      "stroke-color-opacity" : 1.0,
                      "stroke-color-red" : 1.0,
                      "stroke-width" : 0.0,
                      "width" : 415.758257949189,
                      "fill-style" : "solid",
                      "stroke-style" : "solid"
                    },
                    "attributes" : {
                      "autoRotateText" : true
                    },
                    "parameters" : {
                      "translation0" : {
                        "type" : "double",
                        "defaultValue" : 709.212462306919,
                        "keyframes" : [
                          {
                            "endTime" : 5288,
                            "time" : 5258,
                            "value" : 1640.94232731916,
                            "duration" : 30
                          },
                          {
                            "endTime" : 5625,
                            "time" : 5595,
                            "value" : 709.212491680126,
                            "duration" : 30
                          },
                          {
                            "endTime" : 10167,
                            "time" : 10137,
                            "value" : 2061.36706311016,
                            "duration" : 30
                          },
                          {
                            "endTime" : 10777,
                            "time" : 10747,
                            "value" : 709.212367243192,
                            "duration" : 30
                          },
                          {
                            "endTime" : 10865,
                            "time" : 10835,
                            "value" : 441.606916547525,
                            "duration" : 30
                          }
                        ]
                      },
                      "translation1" : {
                        "type" : "double",
                        "defaultValue" : -389.067988345464,
                        "keyframes" : [
                          {
                            "endTime" : 5288,
                            "time" : 5258,
                            "value" : 27.6027705818047,
                            "duration" : 30
                          },
                          {
                            "endTime" : 5625,
                            "time" : 5595,
                            "value" : -389.067998775562,
                            "duration" : 30
                          },
                          {
                            "endTime" : 10167,
                            "time" : 10137,
                            "value" : -689.228125704885,
                            "duration" : 30
                          },
                          {
                            "endTime" : 10777,
                            "time" : 10747,
                            "value" : -389.06801670508,
                            "duration" : 30
                          },
                          {
                            "endTime" : 10865,
                            "time" : 10835,
                            "value" : -927.765992916481,
                            "duration" : 30
                          }
                        ]
                      },
                      "scale0" : {
                        "type" : "double",
                        "defaultValue" : 1.0,
                        "keyframes" : [
                          {
                            "endTime" : 5288,
                            "time" : 5258,
                            "value" : 2.42592351648487,
                            "duration" : 30
                          },
                          {
                            "endTime" : 5625,
                            "time" : 5595,
                            "value" : 1.00000004141665,
                            "duration" : 30
                          },
                          {
                            "endTime" : 10167,
                            "time" : 10137,
                            "value" : 1.92825675580898,
                            "duration" : 30
                          },
                          {
                            "endTime" : 10777,
                            "time" : 10747,
                            "value" : 1.00000000001744,
                            "duration" : 30
                          },
                          {
                            "endTime" : 10865,
                            "time" : 10835,
                            "value" : 2.49372382589196,
                            "duration" : 30
                          }
                        ]
                      },
                      "scale1" : {
                        "type" : "double",
                        "defaultValue" : 1.0,
                        "keyframes" : [
                          {
                            "endTime" : 5288,
                            "time" : 5258,
                            "value" : 2.42592420533425,
                            "duration" : 30
                          },
                          {
                            "endTime" : 5625,
                            "time" : 5595,
                            "value" : 1.00000011985877,
                            "duration" : 30
                          },
                          {
                            "endTime" : 10167,
                            "time" : 10137,
                            "value" : 1.92825698315707,
                            "duration" : 30
                          },
                          {
                            "endTime" : 10777,
                            "time" : 10747,
                            "value" : 1.00000020670326,
                            "duration" : 30
                          },
                          {
                            "endTime" : 10865,
                            "time" : 10835,
                            "value" : 2.49372446668727,
                            "duration" : 30
                          }
                        ]
                      },
                      "sourceCrop0" : 0.0,
                      "sourceCrop1" : 0.0,
                      "sourceCrop2" : 0.0,
                      "sourceCrop3" : 0.0,
                      "geometryCrop0" : 0.0,
                      "geometryCrop1" : 0.0,
                      "geometryCrop2" : 0.0,
                      "geometryCrop3" : 0.0
                    },
                    "effects" : [

                    ],
                    "start" : 12897,
                    "duration" : 122,
                    "mediaStart" : 13403,
                    "mediaDuration" : 122,
                    "scalar" : 1,
                    "metadata" : {
                      "clipSpeedAttribute" : false,
                      "default-scale0" : 1.0,
                      "default-scale1" : 1.0,
                      "default-translation0" : 0.0,
                      "default-translation1" : 0.0
                    },
                    "animationTracks" : {
                      "visual" : [
                        {
                          "endTime" : 5288,
                          "duration" : 30,
                          "range" : [ 5258, 30]
                        },
                        {
                          "endTime" : 5625,
                          "duration" : 30,
                          "range" : [ 5595, 30]
                        },
                        {
                          "endTime" : 10167,
                          "duration" : 30,
                          "range" : [ 10137, 30]
                        },
                        {
                          "endTime" : 10777,
                          "duration" : 30,
                          "range" : [ 10747, 30]
                        },
                        {
                          "endTime" : 10865,
                          "duration" : 30,
                          "range" : [ 10835, 30]
                        }
                      ]
                    }
                  },
                  {
                    "id" : 94,
                    "_type" : "Callout",
                    "def" : {
                      "kind" : "remix",
                      "shape" : "shape-rectangle",
                      "style" : "basic",
                      "fill-color-blue" : 1.0,
                      "fill-color-green" : 1.0,
                      "fill-color-opacity" : 1.0,
                      "fill-color-red" : 1.0,
                      "height" : 233.864023308549,
                      "stroke-color-blue" : 1.0,
                      "stroke-color-green" : 1.0,
                      "stroke-color-opacity" : 1.0,
                      "stroke-color-red" : 1.0,
                      "stroke-width" : 0.0,
                      "width" : 415.758257949189,
                      "fill-style" : "solid",
                      "stroke-style" : "solid"
                    },
                    "attributes" : {
                      "autoRotateText" : true
                    },
                    "parameters" : {
                      "translation0" : {
                        "type" : "double",
                        "defaultValue" : 709.212462306919,
                        "keyframes" : [
                          {
                            "endTime" : 5288,
                            "time" : 5258,
                            "value" : 1640.94232731916,
                            "duration" : 30
                          },
                          {
                            "endTime" : 5625,
                            "time" : 5595,
                            "value" : 709.212491680126,
                            "duration" : 30
                          },
                          {
                            "endTime" : 10167,
                            "time" : 10137,
                            "value" : 2061.36706311016,
                            "duration" : 30
                          },
                          {
                            "endTime" : 10777,
                            "time" : 10747,
                            "value" : 709.212367243192,
                            "duration" : 30
                          },
                          {
                            "endTime" : 10865,
                            "time" : 10835,
                            "value" : 441.606916547525,
                            "duration" : 30
                          }
                        ]
                      },
                      "translation1" : {
                        "type" : "double",
                        "defaultValue" : -389.067988345464,
                        "keyframes" : [
                          {
                            "endTime" : 5288,
                            "time" : 5258,
                            "value" : 27.6027705818047,
                            "duration" : 30
                          },
                          {
                            "endTime" : 5625,
                            "time" : 5595,
                            "value" : -389.067998775562,
                            "duration" : 30
                          },
                          {
                            "endTime" : 10167,
                            "time" : 10137,
                            "value" : -689.228125704885,
                            "duration" : 30
                          },
                          {
                            "endTime" : 10777,
                            "time" : 10747,
                            "value" : -389.06801670508,
                            "duration" : 30
                          },
                          {
                            "endTime" : 10865,
                            "time" : 10835,
                            "value" : -927.765992916481,
                            "duration" : 30
                          }
                        ]
                      },
                      "scale0" : {
                        "type" : "double",
                        "defaultValue" : 1.0,
                        "keyframes" : [
                          {
                            "endTime" : 5288,
                            "time" : 5258,
                            "value" : 2.42592351648487,
                            "duration" : 30
                          },
                          {
                            "endTime" : 5625,
                            "time" : 5595,
                            "value" : 1.00000004141665,
                            "duration" : 30
                          },
                          {
                            "endTime" : 10167,
                            "time" : 10137,
                            "value" : 1.92825675580898,
                            "duration" : 30
                          },
                          {
                            "endTime" : 10777,
                            "time" : 10747,
                            "value" : 1.00000000001744,
                            "duration" : 30
                          },
                          {
                            "endTime" : 10865,
                            "time" : 10835,
                            "value" : 2.49372382589196,
                            "duration" : 30
                          }
                        ]
                      },
                      "scale1" : {
                        "type" : "double",
                        "defaultValue" : 1.0,
                        "keyframes" : [
                          {
                            "endTime" : 5288,
                            "time" : 5258,
                            "value" : 2.42592420533425,
                            "duration" : 30
                          },
                          {
                            "endTime" : 5625,
                            "time" : 5595,
                            "value" : 1.00000011985877,
                            "duration" : 30
                          },
                          {
                            "endTime" : 10167,
                            "time" : 10137,
                            "value" : 1.92825698315707,
                            "duration" : 30
                          },
                          {
                            "endTime" : 10777,
                            "time" : 10747,
                            "value" : 1.00000020670326,
                            "duration" : 30
                          },
                          {
                            "endTime" : 10865,
                            "time" : 10835,
                            "value" : 2.49372446668727,
                            "duration" : 30
                          }
                        ]
                      },
                      "sourceCrop0" : 0.0,
                      "sourceCrop1" : 0.0,
                      "sourceCrop2" : 0.0,
                      "sourceCrop3" : 0.0,
                      "geometryCrop0" : 0.0,
                      "geometryCrop1" : 0.0,
                      "geometryCrop2" : 0.0,
                      "geometryCrop3" : 0.0
                    },
                    "effects" : [

                    ],
                    "start" : 13019,
                    "duration" : 235,
                    "mediaStart" : 13536,
                    "mediaDuration" : 235,
                    "scalar" : 1,
                    "metadata" : {
                      "clipSpeedAttribute" : false,
                      "default-scale0" : 1.0,
                      "default-scale1" : 1.0,
                      "default-translation0" : 0.0,
                      "default-translation1" : 0.0
                    },
                    "animationTracks" : {
                      "visual" : [
                        {
                          "endTime" : 5288,
                          "duration" : 30,
                          "range" : [ 5258, 30]
                        },
                        {
                          "endTime" : 5625,
                          "duration" : 30,
                          "range" : [ 5595, 30]
                        },
                        {
                          "endTime" : 10167,
                          "duration" : 30,
                          "range" : [ 10137, 30]
                        },
                        {
                          "endTime" : 10777,
                          "duration" : 30,
                          "range" : [ 10747, 30]
                        },
                        {
                          "endTime" : 10865,
                          "duration" : 30,
                          "range" : [ 10835, 30]
                        }
                      ]
                    }
                  },
                  {
                    "id" : 95,
                    "_type" : "Callout",
                    "def" : {
                      "kind" : "remix",
                      "shape" : "shape-rectangle",
                      "style" : "basic",
                      "fill-color-blue" : 1.0,
                      "fill-color-green" : 1.0,
                      "fill-color-opacity" : 1.0,
                      "fill-color-red" : 1.0,
                      "height" : 233.864023308549,
                      "stroke-color-blue" : 1.0,
                      "stroke-color-green" : 1.0,
                      "stroke-color-opacity" : 1.0,
                      "stroke-color-red" : 1.0,
                      "stroke-width" : 0.0,
                      "width" : 415.758257949189,
                      "fill-style" : "solid",
                      "stroke-style" : "solid"
                    },
                    "attributes" : {
                      "autoRotateText" : true
                    },
                    "parameters" : {
                      "translation0" : {
                        "type" : "double",
                        "defaultValue" : 709.212462306919,
                        "keyframes" : [
                          {
                            "endTime" : 5288,
                            "time" : 5258,
                            "value" : 1640.94232731916,
                            "duration" : 30
                          },
                          {
                            "endTime" : 5625,
                            "time" : 5595,
                            "value" : 709.212491680126,
                            "duration" : 30
                          },
                          {
                            "endTime" : 10167,
                            "time" : 10137,
                            "value" : 2061.36706311016,
                            "duration" : 30
                          },
                          {
                            "endTime" : 10777,
                            "time" : 10747,
                            "value" : 709.212367243192,
                            "duration" : 30
                          },
                          {
                            "endTime" : 10865,
                            "time" : 10835,
                            "value" : 441.606916547525,
                            "duration" : 30
                          }
                        ]
                      },
                      "translation1" : {
                        "type" : "double",
                        "defaultValue" : -389.067988345464,
                        "keyframes" : [
                          {
                            "endTime" : 5288,
                            "time" : 5258,
                            "value" : 27.6027705818047,
                            "duration" : 30
                          },
                          {
                            "endTime" : 5625,
                            "time" : 5595,
                            "value" : -389.067998775562,
                            "duration" : 30
                          },
                          {
                            "endTime" : 10167,
                            "time" : 10137,
                            "value" : -689.228125704885,
                            "duration" : 30
                          },
                          {
                            "endTime" : 10777,
                            "time" : 10747,
                            "value" : -389.06801670508,
                            "duration" : 30
                          },
                          {
                            "endTime" : 10865,
                            "time" : 10835,
                            "value" : -927.765992916481,
                            "duration" : 30
                          }
                        ]
                      },
                      "scale0" : {
                        "type" : "double",
                        "defaultValue" : 1.0,
                        "keyframes" : [
                          {
                            "endTime" : 5288,
                            "time" : 5258,
                            "value" : 2.42592351648487,
                            "duration" : 30
                          },
                          {
                            "endTime" : 5625,
                            "time" : 5595,
                            "value" : 1.00000004141665,
                            "duration" : 30
                          },
                          {
                            "endTime" : 10167,
                            "time" : 10137,
                            "value" : 1.92825675580898,
                            "duration" : 30
                          },
                          {
                            "endTime" : 10777,
                            "time" : 10747,
                            "value" : 1.00000000001744,
                            "duration" : 30
                          },
                          {
                            "endTime" : 10865,
                            "time" : 10835,
                            "value" : 2.49372382589196,
                            "duration" : 30
                          }
                        ]
                      },
                      "scale1" : {
                        "type" : "double",
                        "defaultValue" : 1.0,
                        "keyframes" : [
                          {
                            "endTime" : 5288,
                            "time" : 5258,
                            "value" : 2.42592420533425,
                            "duration" : 30
                          },
                          {
                            "endTime" : 5625,
                            "time" : 5595,
                            "value" : 1.00000011985877,
                            "duration" : 30
                          },
                          {
                            "endTime" : 10167,
                            "time" : 10137,
                            "value" : 1.92825698315707,
                            "duration" : 30
                          },
                          {
                            "endTime" : 10777,
                            "time" : 10747,
                            "value" : 1.00000020670326,
                            "duration" : 30
                          },
                          {
                            "endTime" : 10865,
                            "time" : 10835,
                            "value" : 2.49372446668727,
                            "duration" : 30
                          }
                        ]
                      },
                      "sourceCrop0" : 0.0,
                      "sourceCrop1" : 0.0,
                      "sourceCrop2" : 0.0,
                      "sourceCrop3" : 0.0,
                      "geometryCrop0" : 0.0,
                      "geometryCrop1" : 0.0,
                      "geometryCrop2" : 0.0,
                      "geometryCrop3" : 0.0
                    },
                    "effects" : [

                    ],
                    "start" : 13254,
                    "duration" : 423,
                    "mediaStart" : 13794,
                    "mediaDuration" : 423,
                    "scalar" : 1,
                    "metadata" : {
                      "clipSpeedAttribute" : false,
                      "default-scale0" : 1.0,
                      "default-scale1" : 1.0,
                      "default-translation0" : 0.0,
                      "default-translation1" : 0.0
                    },
                    "animationTracks" : {
                      "visual" : [
                        {
                          "endTime" : 5288,
                          "duration" : 30,
                          "range" : [ 5258, 30]
                        },
                        {
                          "endTime" : 5625,
                          "duration" : 30,
                          "range" : [ 5595, 30]
                        },
                        {
                          "endTime" : 10167,
                          "duration" : 30,
                          "range" : [ 10137, 30]
                        },
                        {
                          "endTime" : 10777,
                          "duration" : 30,
                          "range" : [ 10747, 30]
                        },
                        {
                          "endTime" : 10865,
                          "duration" : 30,
                          "range" : [ 10835, 30]
                        }
                      ]
                    }
                  },
                  {
                    "id" : 96,
                    "_type" : "Callout",
                    "def" : {
                      "kind" : "remix",
                      "shape" : "shape-rectangle",
                      "style" : "basic",
                      "fill-color-blue" : 1.0,
                      "fill-color-green" : 1.0,
                      "fill-color-opacity" : 1.0,
                      "fill-color-red" : 1.0,
                      "height" : 233.864023308549,
                      "stroke-color-blue" : 1.0,
                      "stroke-color-green" : 1.0,
                      "stroke-color-opacity" : 1.0,
                      "stroke-color-red" : 1.0,
                      "stroke-width" : 0.0,
                      "width" : 415.758257949189,
                      "fill-style" : "solid",
                      "stroke-style" : "solid"
                    },
                    "attributes" : {
                      "autoRotateText" : true
                    },
                    "parameters" : {
                      "translation0" : {
                        "type" : "double",
                        "defaultValue" : 709.212462306919,
                        "keyframes" : [
                          {
                            "endTime" : 5288,
                            "time" : 5258,
                            "value" : 1640.94232731916,
                            "duration" : 30
                          },
                          {
                            "endTime" : 5625,
                            "time" : 5595,
                            "value" : 709.212491680126,
                            "duration" : 30
                          },
                          {
                            "endTime" : 10167,
                            "time" : 10137,
                            "value" : 2061.36706311016,
                            "duration" : 30
                          },
                          {
                            "endTime" : 10777,
                            "time" : 10747,
                            "value" : 709.212367243192,
                            "duration" : 30
                          },
                          {
                            "endTime" : 10865,
                            "time" : 10835,
                            "value" : 441.606916547525,
                            "duration" : 30
                          }
                        ]
                      },
                      "translation1" : {
                        "type" : "double",
                        "defaultValue" : -389.067988345464,
                        "keyframes" : [
                          {
                            "endTime" : 5288,
                            "time" : 5258,
                            "value" : 27.6027705818047,
                            "duration" : 30
                          },
                          {
                            "endTime" : 5625,
                            "time" : 5595,
                            "value" : -389.067998775562,
                            "duration" : 30
                          },
                          {
                            "endTime" : 10167,
                            "time" : 10137,
                            "value" : -689.228125704885,
                            "duration" : 30
                          },
                          {
                            "endTime" : 10777,
                            "time" : 10747,
                            "value" : -389.06801670508,
                            "duration" : 30
                          },
                          {
                            "endTime" : 10865,
                            "time" : 10835,
                            "value" : -927.765992916481,
                            "duration" : 30
                          }
                        ]
                      },
                      "scale0" : {
                        "type" : "double",
                        "defaultValue" : 1.0,
                        "keyframes" : [
                          {
                            "endTime" : 5288,
                            "time" : 5258,
                            "value" : 2.42592351648487,
                            "duration" : 30
                          },
                          {
                            "endTime" : 5625,
                            "time" : 5595,
                            "value" : 1.00000004141665,
                            "duration" : 30
                          },
                          {
                            "endTime" : 10167,
                            "time" : 10137,
                            "value" : 1.92825675580898,
                            "duration" : 30
                          },
                          {
                            "endTime" : 10777,
                            "time" : 10747,
                            "value" : 1.00000000001744,
                            "duration" : 30
                          },
                          {
                            "endTime" : 10865,
                            "time" : 10835,
                            "value" : 2.49372382589196,
                            "duration" : 30
                          }
                        ]
                      },
                      "scale1" : {
                        "type" : "double",
                        "defaultValue" : 1.0,
                        "keyframes" : [
                          {
                            "endTime" : 5288,
                            "time" : 5258,
                            "value" : 2.42592420533425,
                            "duration" : 30
                          },
                          {
                            "endTime" : 5625,
                            "time" : 5595,
                            "value" : 1.00000011985877,
                            "duration" : 30
                          },
                          {
                            "endTime" : 10167,
                            "time" : 10137,
                            "value" : 1.92825698315707,
                            "duration" : 30
                          },
                          {
                            "endTime" : 10777,
                            "time" : 10747,
                            "value" : 1.00000020670326,
                            "duration" : 30
                          },
                          {
                            "endTime" : 10865,
                            "time" : 10835,
                            "value" : 2.49372446668727,
                            "duration" : 30
                          }
                        ]
                      },
                      "sourceCrop0" : 0.0,
                      "sourceCrop1" : 0.0,
                      "sourceCrop2" : 0.0,
                      "sourceCrop3" : 0.0,
                      "geometryCrop0" : 0.0,
                      "geometryCrop1" : 0.0,
                      "geometryCrop2" : 0.0,
                      "geometryCrop3" : 0.0
                    },
                    "effects" : [

                    ],
                    "start" : 13677,
                    "duration" : 918,
                    "mediaStart" : 14254,
                    "mediaDuration" : 918,
                    "scalar" : 1,
                    "metadata" : {
                      "clipSpeedAttribute" : false,
                      "default-scale0" : 1.0,
                      "default-scale1" : 1.0,
                      "default-translation0" : 0.0,
                      "default-translation1" : 0.0
                    },
                    "animationTracks" : {
                      "visual" : [
                        {
                          "endTime" : 5288,
                          "duration" : 30,
                          "range" : [ 5258, 30]
                        },
                        {
                          "endTime" : 5625,
                          "duration" : 30,
                          "range" : [ 5595, 30]
                        },
                        {
                          "endTime" : 10167,
                          "duration" : 30,
                          "range" : [ 10137, 30]
                        },
                        {
                          "endTime" : 10777,
                          "duration" : 30,
                          "range" : [ 10747, 30]
                        },
                        {
                          "endTime" : 10865,
                          "duration" : 30,
                          "range" : [ 10835, 30]
                        }
                      ]
                    }
                  }
                ]
              },
              {
                "trackIndex" : 2,
                "medias" : [
                  {
                    "id" : 97,
                    "_type" : "Callout",
                    "def" : {
                      "kind" : "remix",
                      "shape" : "shape-rectangle",
                      "style" : "basic",
                      "fill-color-blue" : 0.0,
                      "fill-color-green" : 0.0,
                      "fill-color-opacity" : 1.0,
                      "fill-color-red" : 0.0,
                      "height" : 233.864020096266,
                      "stroke-color-blue" : 1.0,
                      "stroke-color-green" : 1.0,
                      "stroke-color-opacity" : 1.0,
                      "stroke-color-red" : 1.0,
                      "stroke-width" : 0.0,
                      "width" : 415.758261027844,
                      "fill-style" : "solid",
                      "stroke-style" : "solid"
                    },
                    "attributes" : {
                      "autoRotateText" : true
                    },
                    "parameters" : {
                      "translation0" : 709.212466924985,
                      "translation1" : -389.067989951525,
                      "sourceCrop0" : 0.0,
                      "sourceCrop1" : 0.0,
                      "sourceCrop2" : 0.0,
                      "sourceCrop3" : 0.0,
                      "geometryCrop0" : 0.0,
                      "geometryCrop1" : 0.0,
                      "geometryCrop2" : 0.0,
                      "geometryCrop3" : 0.0
                    },
                    "effects" : [

                    ],
                    "start" : 0,
                    "duration" : 981,
                    "mediaStart" : -743,
                    "mediaDuration" : 981,
                    "scalar" : 1,
                    "metadata" : {
                      "clipSpeedAttribute" : false,
                      "default-translation0" : 0.0,
                      "default-translation1" : 0.0
                    },
                    "animationTracks" : {

                    }
                  },
                  {
                    "id" : 98,
                    "_type" : "Callout",
                    "def" : {
                      "kind" : "remix",
                      "shape" : "shape-rectangle",
                      "style" : "basic",
                      "fill-color-blue" : 0.0,
                      "fill-color-green" : 0.0,
                      "fill-color-opacity" : 1.0,
                      "fill-color-red" : 0.0,
                      "height" : 233.864020096266,
                      "stroke-color-blue" : 1.0,
                      "stroke-color-green" : 1.0,
                      "stroke-color-opacity" : 1.0,
                      "stroke-color-red" : 1.0,
                      "stroke-width" : 0.0,
                      "width" : 415.758261027844,
                      "fill-style" : "solid",
                      "stroke-style" : "solid"
                    },
                    "attributes" : {
                      "autoRotateText" : true
                    },
                    "parameters" : {
                      "translation0" : 709.212466924985,
                      "translation1" : -389.067989951525,
                      "sourceCrop0" : 0.0,
                      "sourceCrop1" : 0.0,
                      "sourceCrop2" : 0.0,
                      "sourceCrop3" : 0.0,
                      "geometryCrop0" : 0.0,
                      "geometryCrop1" : 0.0,
                      "geometryCrop2" : 0.0,
                      "geometryCrop3" : 0.0
                    },
                    "effects" : [

                    ],
                    "start" : 2044,
                    "duration" : 117,
                    "mediaStart" : 1430,
                    "mediaDuration" : 117,
                    "scalar" : 1,
                    "metadata" : {
                      "clipSpeedAttribute" : false,
                      "default-translation0" : 0.0,
                      "default-translation1" : 0.0
                    },
                    "animationTracks" : {

                    }
                  },
                  {
                    "id" : 99,
                    "_type" : "Callout",
                    "def" : {
                      "kind" : "remix",
                      "shape" : "shape-rectangle",
                      "style" : "basic",
                      "fill-color-blue" : 0.0,
                      "fill-color-green" : 0.0,
                      "fill-color-opacity" : 1.0,
                      "fill-color-red" : 0.0,
                      "height" : 233.864020096266,
                      "stroke-color-blue" : 1.0,
                      "stroke-color-green" : 1.0,
                      "stroke-color-opacity" : 1.0,
                      "stroke-color-red" : 1.0,
                      "stroke-width" : 0.0,
                      "width" : 415.758261027844,
                      "fill-style" : "solid",
                      "stroke-style" : "solid"
                    },
                    "attributes" : {
                      "autoRotateText" : true
                    },
                    "parameters" : {
                      "translation0" : 709.212466924985,
                      "translation1" : -389.067989951525,
                      "sourceCrop0" : 0.0,
                      "sourceCrop1" : 0.0,
                      "sourceCrop2" : 0.0,
                      "sourceCrop3" : 0.0,
                      "geometryCrop0" : 0.0,
                      "geometryCrop1" : 0.0,
                      "geometryCrop2" : 0.0,
                      "geometryCrop3" : 0.0
                    },
                    "effects" : [

                    ],
                    "start" : 2161,
                    "duration" : 839,
                    "mediaStart" : 1560,
                    "mediaDuration" : 839,
                    "scalar" : 1,
                    "metadata" : {
                      "clipSpeedAttribute" : false,
                      "default-translation0" : 0.0,
                      "default-translation1" : 0.0
                    },
                    "animationTracks" : {

                    }
                  },
                  {
                    "id" : 100,
                    "_type" : "Callout",
                    "def" : {
                      "kind" : "remix",
                      "shape" : "shape-rectangle",
                      "style" : "basic",
                      "fill-color-blue" : 0.0,
                      "fill-color-green" : 0.0,
                      "fill-color-opacity" : 1.0,
                      "fill-color-red" : 0.0,
                      "height" : 233.864020096266,
                      "stroke-color-blue" : 1.0,
                      "stroke-color-green" : 1.0,
                      "stroke-color-opacity" : 1.0,
                      "stroke-color-red" : 1.0,
                      "stroke-width" : 0.0,
                      "width" : 415.758261027844,
                      "fill-style" : "solid",
                      "stroke-style" : "solid"
                    },
                    "attributes" : {
                      "autoRotateText" : true
                    },
                    "parameters" : {
                      "translation0" : {
                        "type" : "double",
                        "defaultValue" : 709.212466924985,
                        "keyframes" : [
                          {
                            "endTime" : 4545,
                            "time" : 4515,
                            "value" : 1640.94233852223,
                            "duration" : 30
                          },
                          {
                            "endTime" : 4882,
                            "time" : 4852,
                            "value" : 709.212496298192,
                            "duration" : 30
                          }
                        ]
                      },
                      "translation1" : {
                        "type" : "double",
                        "defaultValue" : -389.067989951525,
                        "keyframes" : [
                          {
                            "endTime" : 4545,
                            "time" : 4515,
                            "value" : 27.6027666856225,
                            "duration" : 30
                          },
                          {
                            "endTime" : 4882,
                            "time" : 4852,
                            "value" : -389.068000381624,
                            "duration" : 30
                          }
                        ]
                      },
                      "scale0" : {
                        "type" : "double",
                        "defaultValue" : 1.0,
                        "keyframes" : [
                          {
                            "endTime" : 4545,
                            "time" : 4515,
                            "value" : 2.42592351648487,
                            "duration" : 30
                          },
                          {
                            "endTime" : 4882,
                            "time" : 4852,
                            "value" : 1.00000004141665,
                            "duration" : 30
                          }
                        ]
                      },
                      "scale1" : {
                        "type" : "double",
                        "defaultValue" : 1.0,
                        "keyframes" : [
                          {
                            "endTime" : 4545,
                            "time" : 4515,
                            "value" : 2.42592420533425,
                            "duration" : 30
                          },
                          {
                            "endTime" : 4882,
                            "time" : 4852,
                            "value" : 1.00000011985877,
                            "duration" : 30
                          }
                        ]
                      },
                      "sourceCrop0" : 0.0,
                      "sourceCrop1" : 0.0,
                      "sourceCrop2" : 0.0,
                      "sourceCrop3" : 0.0,
                      "geometryCrop0" : 0.0,
                      "geometryCrop1" : 0.0,
                      "geometryCrop2" : 0.0,
                      "geometryCrop3" : 0.0
                    },
                    "effects" : [

                    ],
                    "start" : 3000,
                    "duration" : 3224,
                    "mediaStart" : 2414,
                    "mediaDuration" : 3224,
                    "scalar" : 1,
                    "metadata" : {
                      "clipSpeedAttribute" : false,
                      "default-scale0" : 1.0,
                      "default-scale1" : 1.0,
                      "default-translation0" : 0.0,
                      "default-translation1" : 0.0
                    },
                    "animationTracks" : {
                      "visual" : [
                        {
                          "endTime" : 4545,
                          "duration" : 30,
                          "range" : [ 4515, 30]
                        },
                        {
                          "endTime" : 4882,
                          "duration" : 30,
                          "range" : [ 4852, 30]
                        }
                      ]
                    }
                  },
                  {
                    "id" : 101,
                    "_type" : "Callout",
                    "def" : {
                      "kind" : "remix",
                      "shape" : "shape-rectangle",
                      "style" : "basic",
                      "fill-color-blue" : 0.0,
                      "fill-color-green" : 0.0,
                      "fill-color-opacity" : 1.0,
                      "fill-color-red" : 0.0,
                      "height" : 233.864020096266,
                      "stroke-color-blue" : 1.0,
                      "stroke-color-green" : 1.0,
                      "stroke-color-opacity" : 1.0,
                      "stroke-color-red" : 1.0,
                      "stroke-width" : 0.0,
                      "width" : 415.758261027844,
                      "fill-style" : "solid",
                      "stroke-style" : "solid"
                    },
                    "attributes" : {
                      "autoRotateText" : true
                    },
                    "parameters" : {
                      "translation0" : {
                        "type" : "double",
                        "defaultValue" : 709.212466924985,
                        "keyframes" : [
                          {
                            "endTime" : 4545,
                            "time" : 4515,
                            "value" : 1640.94233852223,
                            "duration" : 30
                          },
                          {
                            "endTime" : 4882,
                            "time" : 4852,
                            "value" : 709.212496298192,
                            "duration" : 30
                          }
                        ]
                      },
                      "translation1" : {
                        "type" : "double",
                        "defaultValue" : -389.067989951525,
                        "keyframes" : [
                          {
                            "endTime" : 4545,
                            "time" : 4515,
                            "value" : 27.6027666856225,
                            "duration" : 30
                          },
                          {
                            "endTime" : 4882,
                            "time" : 4852,
                            "value" : -389.068000381624,
                            "duration" : 30
                          }
                        ]
                      },
                      "scale0" : {
                        "type" : "double",
                        "defaultValue" : 1.0,
                        "keyframes" : [
                          {
                            "endTime" : 4545,
                            "time" : 4515,
                            "value" : 2.42592351648487,
                            "duration" : 30
                          },
                          {
                            "endTime" : 4882,
                            "time" : 4852,
                            "value" : 1.00000004141665,
                            "duration" : 30
                          }
                        ]
                      },
                      "scale1" : {
                        "type" : "double",
                        "defaultValue" : 1.0,
                        "keyframes" : [
                          {
                            "endTime" : 4545,
                            "time" : 4515,
                            "value" : 2.42592420533425,
                            "duration" : 30
                          },
                          {
                            "endTime" : 4882,
                            "time" : 4852,
                            "value" : 1.00000011985877,
                            "duration" : 30
                          }
                        ]
                      },
                      "sourceCrop0" : 0.0,
                      "sourceCrop1" : 0.0,
                      "sourceCrop2" : 0.0,
                      "sourceCrop3" : 0.0,
                      "geometryCrop0" : 0.0,
                      "geometryCrop1" : 0.0,
                      "geometryCrop2" : 0.0,
                      "geometryCrop3" : 0.0
                    },
                    "effects" : [

                    ],
                    "start" : 6224,
                    "duration" : 214,
                    "mediaStart" : 5712,
                    "mediaDuration" : 214,
                    "scalar" : 1,
                    "metadata" : {
                      "clipSpeedAttribute" : false,
                      "default-scale0" : 1.0,
                      "default-scale1" : 1.0,
                      "default-translation0" : 0.0,
                      "default-translation1" : 0.0
                    },
                    "animationTracks" : {
                      "visual" : [
                        {
                          "endTime" : 4545,
                          "duration" : 30,
                          "range" : [ 4515, 30]
                        },
                        {
                          "endTime" : 4882,
                          "duration" : 30,
                          "range" : [ 4852, 30]
                        }
                      ]
                    }
                  },
                  {
                    "id" : 102,
                    "_type" : "Callout",
                    "def" : {
                      "kind" : "remix",
                      "shape" : "shape-rectangle",
                      "style" : "basic",
                      "fill-color-blue" : 0.0,
                      "fill-color-green" : 0.0,
                      "fill-color-opacity" : 1.0,
                      "fill-color-red" : 0.0,
                      "height" : 233.864020096266,
                      "stroke-color-blue" : 1.0,
                      "stroke-color-green" : 1.0,
                      "stroke-color-opacity" : 1.0,
                      "stroke-color-red" : 1.0,
                      "stroke-width" : 0.0,
                      "width" : 415.758261027844,
                      "fill-style" : "solid",
                      "stroke-style" : "solid"
                    },
                    "attributes" : {
                      "autoRotateText" : true
                    },
                    "parameters" : {
                      "translation0" : {
                        "type" : "double",
                        "defaultValue" : 709.212466924985,
                        "keyframes" : [
                          {
                            "endTime" : 4545,
                            "time" : 4515,
                            "value" : 1640.94233852223,
                            "duration" : 30
                          },
                          {
                            "endTime" : 4882,
                            "time" : 4852,
                            "value" : 709.212496298192,
                            "duration" : 30
                          }
                        ]
                      },
                      "translation1" : {
                        "type" : "double",
                        "defaultValue" : -389.067989951525,
                        "keyframes" : [
                          {
                            "endTime" : 4545,
                            "time" : 4515,
                            "value" : 27.6027666856225,
                            "duration" : 30
                          },
                          {
                            "endTime" : 4882,
                            "time" : 4852,
                            "value" : -389.068000381624,
                            "duration" : 30
                          }
                        ]
                      },
                      "scale0" : {
                        "type" : "double",
                        "defaultValue" : 1.0,
                        "keyframes" : [
                          {
                            "endTime" : 4545,
                            "time" : 4515,
                            "value" : 2.42592351648487,
                            "duration" : 30
                          },
                          {
                            "endTime" : 4882,
                            "time" : 4852,
                            "value" : 1.00000004141665,
                            "duration" : 30
                          }
                        ]
                      },
                      "scale1" : {
                        "type" : "double",
                        "defaultValue" : 1.0,
                        "keyframes" : [
                          {
                            "endTime" : 4545,
                            "time" : 4515,
                            "value" : 2.42592420533425,
                            "duration" : 30
                          },
                          {
                            "endTime" : 4882,
                            "time" : 4852,
                            "value" : 1.00000011985877,
                            "duration" : 30
                          }
                        ]
                      },
                      "sourceCrop0" : 0.0,
                      "sourceCrop1" : 0.0,
                      "sourceCrop2" : 0.0,
                      "sourceCrop3" : 0.0,
                      "geometryCrop0" : 0.0,
                      "geometryCrop1" : 0.0,
                      "geometryCrop2" : 0.0,
                      "geometryCrop3" : 0.0
                    },
                    "effects" : [

                    ],
                    "start" : 6438,
                    "duration" : 1195,
                    "mediaStart" : 5970,
                    "mediaDuration" : 1195,
                    "scalar" : 1,
                    "metadata" : {
                      "clipSpeedAttribute" : false,
                      "default-scale0" : 1.0,
                      "default-scale1" : 1.0,
                      "default-translation0" : 0.0,
                      "default-translation1" : 0.0
                    },
                    "animationTracks" : {
                      "visual" : [
                        {
                          "endTime" : 4545,
                          "duration" : 30,
                          "range" : [ 4515, 30]
                        },
                        {
                          "endTime" : 4882,
                          "duration" : 30,
                          "range" : [ 4852, 30]
                        }
                      ]
                    }
                  },
                  {
                    "id" : 103,
                    "_type" : "Callout",
                    "def" : {
                      "kind" : "remix",
                      "shape" : "shape-rectangle",
                      "style" : "basic",
                      "fill-color-blue" : 0.0,
                      "fill-color-green" : 0.0,
                      "fill-color-opacity" : 1.0,
                      "fill-color-red" : 0.0,
                      "height" : 233.864020096266,
                      "stroke-color-blue" : 1.0,
                      "stroke-color-green" : 1.0,
                      "stroke-color-opacity" : 1.0,
                      "stroke-color-red" : 1.0,
                      "stroke-width" : 0.0,
                      "width" : 415.758261027844,
                      "fill-style" : "solid",
                      "stroke-style" : "solid"
                    },
                    "attributes" : {
                      "autoRotateText" : true
                    },
                    "parameters" : {
                      "translation0" : {
                        "type" : "double",
                        "defaultValue" : 709.212466924985,
                        "keyframes" : [
                          {
                            "endTime" : 4545,
                            "time" : 4515,
                            "value" : 1640.94233852223,
                            "duration" : 30
                          },
                          {
                            "endTime" : 4882,
                            "time" : 4852,
                            "value" : 709.212496298192,
                            "duration" : 30
                          }
                        ]
                      },
                      "translation1" : {
                        "type" : "double",
                        "defaultValue" : -389.067989951525,
                        "keyframes" : [
                          {
                            "endTime" : 4545,
                            "time" : 4515,
                            "value" : 27.6027666856225,
                            "duration" : 30
                          },
                          {
                            "endTime" : 4882,
                            "time" : 4852,
                            "value" : -389.068000381624,
                            "duration" : 30
                          }
                        ]
                      },
                      "scale0" : {
                        "type" : "double",
                        "defaultValue" : 1.0,
                        "keyframes" : [
                          {
                            "endTime" : 4545,
                            "time" : 4515,
                            "value" : 2.42592351648487,
                            "duration" : 30
                          },
                          {
                            "endTime" : 4882,
                            "time" : 4852,
                            "value" : 1.00000004141665,
                            "duration" : 30
                          }
                        ]
                      },
                      "scale1" : {
                        "type" : "double",
                        "defaultValue" : 1.0,
                        "keyframes" : [
                          {
                            "endTime" : 4545,
                            "time" : 4515,
                            "value" : 2.42592420533425,
                            "duration" : 30
                          },
                          {
                            "endTime" : 4882,
                            "time" : 4852,
                            "value" : 1.00000011985877,
                            "duration" : 30
                          }
                        ]
                      },
                      "sourceCrop0" : 0.0,
                      "sourceCrop1" : 0.0,
                      "sourceCrop2" : 0.0,
                      "sourceCrop3" : 0.0,
                      "geometryCrop0" : 0.0,
                      "geometryCrop1" : 0.0,
                      "geometryCrop2" : 0.0,
                      "geometryCrop3" : 0.0
                    },
                    "effects" : [

                    ],
                    "start" : 7633,
                    "duration" : 223,
                    "mediaStart" : 7217,
                    "mediaDuration" : 223,
                    "scalar" : 1,
                    "metadata" : {
                      "clipSpeedAttribute" : false,
                      "default-scale0" : 1.0,
                      "default-scale1" : 1.0,
                      "default-translation0" : 0.0,
                      "default-translation1" : 0.0
                    },
                    "animationTracks" : {
                      "visual" : [
                        {
                          "endTime" : 4545,
                          "duration" : 30,
                          "range" : [ 4515, 30]
                        },
                        {
                          "endTime" : 4882,
                          "duration" : 30,
                          "range" : [ 4852, 30]
                        }
                      ]
                    }
                  },
                  {
                    "id" : 104,
                    "_type" : "Callout",
                    "def" : {
                      "kind" : "remix",
                      "shape" : "shape-rectangle",
                      "style" : "basic",
                      "fill-color-blue" : 0.0,
                      "fill-color-green" : 0.0,
                      "fill-color-opacity" : 1.0,
                      "fill-color-red" : 0.0,
                      "height" : 233.864020096266,
                      "stroke-color-blue" : 1.0,
                      "stroke-color-green" : 1.0,
                      "stroke-color-opacity" : 1.0,
                      "stroke-color-red" : 1.0,
                      "stroke-width" : 0.0,
                      "width" : 415.758261027844,
                      "fill-style" : "solid",
                      "stroke-style" : "solid"
                    },
                    "attributes" : {
                      "autoRotateText" : true
                    },
                    "parameters" : {
                      "translation0" : {
                        "type" : "double",
                        "defaultValue" : 709.212466924985,
                        "keyframes" : [
                          {
                            "endTime" : 4545,
                            "time" : 4515,
                            "value" : 1640.94233852223,
                            "duration" : 30
                          },
                          {
                            "endTime" : 4882,
                            "time" : 4852,
                            "value" : 709.212496298192,
                            "duration" : 30
                          }
                        ]
                      },
                      "translation1" : {
                        "type" : "double",
                        "defaultValue" : -389.067989951525,
                        "keyframes" : [
                          {
                            "endTime" : 4545,
                            "time" : 4515,
                            "value" : 27.6027666856225,
                            "duration" : 30
                          },
                          {
                            "endTime" : 4882,
                            "time" : 4852,
                            "value" : -389.068000381624,
                            "duration" : 30
                          }
                        ]
                      },
                      "scale0" : {
                        "type" : "double",
                        "defaultValue" : 1.0,
                        "keyframes" : [
                          {
                            "endTime" : 4545,
                            "time" : 4515,
                            "value" : 2.42592351648487,
                            "duration" : 30
                          },
                          {
                            "endTime" : 4882,
                            "time" : 4852,
                            "value" : 1.00000004141665,
                            "duration" : 30
                          }
                        ]
                      },
                      "scale1" : {
                        "type" : "double",
                        "defaultValue" : 1.0,
                        "keyframes" : [
                          {
                            "endTime" : 4545,
                            "time" : 4515,
                            "value" : 2.42592420533425,
                            "duration" : 30
                          },
                          {
                            "endTime" : 4882,
                            "time" : 4852,
                            "value" : 1.00000011985877,
                            "duration" : 30
                          }
                        ]
                      },
                      "sourceCrop0" : 0.0,
                      "sourceCrop1" : 0.0,
                      "sourceCrop2" : 0.0,
                      "sourceCrop3" : 0.0,
                      "geometryCrop0" : 0.0,
                      "geometryCrop1" : 0.0,
                      "geometryCrop2" : 0.0,
                      "geometryCrop3" : 0.0
                    },
                    "effects" : [

                    ],
                    "start" : 7856,
                    "duration" : 1039,
                    "mediaStart" : 7485,
                    "mediaDuration" : 1039,
                    "scalar" : 1,
                    "metadata" : {
                      "clipSpeedAttribute" : false,
                      "default-scale0" : 1.0,
                      "default-scale1" : 1.0,
                      "default-translation0" : 0.0,
                      "default-translation1" : 0.0
                    },
                    "animationTracks" : {
                      "visual" : [
                        {
                          "endTime" : 4545,
                          "duration" : 30,
                          "range" : [ 4515, 30]
                        },
                        {
                          "endTime" : 4882,
                          "duration" : 30,
                          "range" : [ 4852, 30]
                        }
                      ]
                    }
                  },
                  {
                    "id" : 105,
                    "_type" : "Callout",
                    "def" : {
                      "kind" : "remix",
                      "shape" : "shape-rectangle",
                      "style" : "basic",
                      "fill-color-blue" : 0.0,
                      "fill-color-green" : 0.0,
                      "fill-color-opacity" : 1.0,
                      "fill-color-red" : 0.0,
                      "height" : 233.864020096266,
                      "stroke-color-blue" : 1.0,
                      "stroke-color-green" : 1.0,
                      "stroke-color-opacity" : 1.0,
                      "stroke-color-red" : 1.0,
                      "stroke-width" : 0.0,
                      "width" : 415.758261027844,
                      "fill-style" : "solid",
                      "stroke-style" : "solid"
                    },
                    "attributes" : {
                      "autoRotateText" : true
                    },
                    "parameters" : {
                      "translation0" : {
                        "type" : "double",
                        "defaultValue" : 709.212466924985,
                        "keyframes" : [
                          {
                            "endTime" : 4545,
                            "time" : 4515,
                            "value" : 1640.94233852223,
                            "duration" : 30
                          },
                          {
                            "endTime" : 4882,
                            "time" : 4852,
                            "value" : 709.212496298192,
                            "duration" : 30
                          }
                        ]
                      },
                      "translation1" : {
                        "type" : "double",
                        "defaultValue" : -389.067989951525,
                        "keyframes" : [
                          {
                            "endTime" : 4545,
                            "time" : 4515,
                            "value" : 27.6027666856225,
                            "duration" : 30
                          },
                          {
                            "endTime" : 4882,
                            "time" : 4852,
                            "value" : -389.068000381624,
                            "duration" : 30
                          }
                        ]
                      },
                      "scale0" : {
                        "type" : "double",
                        "defaultValue" : 1.0,
                        "keyframes" : [
                          {
                            "endTime" : 4545,
                            "time" : 4515,
                            "value" : 2.42592351648487,
                            "duration" : 30
                          },
                          {
                            "endTime" : 4882,
                            "time" : 4852,
                            "value" : 1.00000004141665,
                            "duration" : 30
                          }
                        ]
                      },
                      "scale1" : {
                        "type" : "double",
                        "defaultValue" : 1.0,
                        "keyframes" : [
                          {
                            "endTime" : 4545,
                            "time" : 4515,
                            "value" : 2.42592420533425,
                            "duration" : 30
                          },
                          {
                            "endTime" : 4882,
                            "time" : 4852,
                            "value" : 1.00000011985877,
                            "duration" : 30
                          }
                        ]
                      },
                      "sourceCrop0" : 0.0,
                      "sourceCrop1" : 0.0,
                      "sourceCrop2" : 0.0,
                      "sourceCrop3" : 0.0,
                      "geometryCrop0" : 0.0,
                      "geometryCrop1" : 0.0,
                      "geometryCrop2" : 0.0,
                      "geometryCrop3" : 0.0
                    },
                    "effects" : [

                    ],
                    "start" : 8895,
                    "duration" : 359,
                    "mediaStart" : 8562,
                    "mediaDuration" : 359,
                    "scalar" : 1,
                    "metadata" : {
                      "clipSpeedAttribute" : false,
                      "default-scale0" : 1.0,
                      "default-scale1" : 1.0,
                      "default-translation0" : 0.0,
                      "default-translation1" : 0.0
                    },
                    "animationTracks" : {
                      "visual" : [
                        {
                          "endTime" : 4545,
                          "duration" : 30,
                          "range" : [ 4515, 30]
                        },
                        {
                          "endTime" : 4882,
                          "duration" : 30,
                          "range" : [ 4852, 30]
                        }
                      ]
                    }
                  },
                  {
                    "id" : 106,
                    "_type" : "Callout",
                    "def" : {
                      "kind" : "remix",
                      "shape" : "shape-rectangle",
                      "style" : "basic",
                      "fill-color-blue" : 0.0,
                      "fill-color-green" : 0.0,
                      "fill-color-opacity" : 1.0,
                      "fill-color-red" : 0.0,
                      "height" : 233.864020096266,
                      "stroke-color-blue" : 1.0,
                      "stroke-color-green" : 1.0,
                      "stroke-color-opacity" : 1.0,
                      "stroke-color-red" : 1.0,
                      "stroke-width" : 0.0,
                      "width" : 415.758261027844,
                      "fill-style" : "solid",
                      "stroke-style" : "solid"
                    },
                    "attributes" : {
                      "autoRotateText" : true
                    },
                    "parameters" : {
                      "translation0" : {
                        "type" : "double",
                        "defaultValue" : 709.212466924985,
                        "keyframes" : [
                          {
                            "endTime" : 4545,
                            "time" : 4515,
                            "value" : 1640.94233852223,
                            "duration" : 30
                          },
                          {
                            "endTime" : 4882,
                            "time" : 4852,
                            "value" : 709.212496298192,
                            "duration" : 30
                          },
                          {
                            "endTime" : 9424,
                            "time" : 9394,
                            "value" : 2061.36707201498,
                            "duration" : 30
                          },
                          {
                            "endTime" : 10034,
                            "time" : 10004,
                            "value" : 709.212371861257,
                            "duration" : 30
                          },
                          {
                            "endTime" : 10122,
                            "time" : 10092,
                            "value" : 441.606928063704,
                            "duration" : 30
                          }
                        ]
                      },
                      "translation1" : {
                        "type" : "double",
                        "defaultValue" : -389.067989951525,
                        "keyframes" : [
                          {
                            "endTime" : 4545,
                            "time" : 4515,
                            "value" : 27.6027666856225,
                            "duration" : 30
                          },
                          {
                            "endTime" : 4882,
                            "time" : 4852,
                            "value" : -389.068000381624,
                            "duration" : 30
                          },
                          {
                            "endTime" : 9424,
                            "time" : 9394,
                            "value" : -689.228128801783,
                            "duration" : 30
                          },
                          {
                            "endTime" : 10034,
                            "time" : 10004,
                            "value" : -389.068018311142,
                            "duration" : 30
                          },
                          {
                            "endTime" : 10122,
                            "time" : 10092,
                            "value" : -927.765996921555,
                            "duration" : 30
                          }
                        ]
                      },
                      "scale0" : {
                        "type" : "double",
                        "defaultValue" : 1.0,
                        "keyframes" : [
                          {
                            "endTime" : 4545,
                            "time" : 4515,
                            "value" : 2.42592351648487,
                            "duration" : 30
                          },
                          {
                            "endTime" : 4882,
                            "time" : 4852,
                            "value" : 1.00000004141665,
                            "duration" : 30
                          },
                          {
                            "endTime" : 9424,
                            "time" : 9394,
                            "value" : 1.92825675580898,
                            "duration" : 30
                          },
                          {
                            "endTime" : 10034,
                            "time" : 10004,
                            "value" : 1.00000000001744,
                            "duration" : 30
                          },
                          {
                            "endTime" : 10122,
                            "time" : 10092,
                            "value" : 2.49372382589196,
                            "duration" : 30
                          }
                        ]
                      },
                      "scale1" : {
                        "type" : "double",
                        "defaultValue" : 1.0,
                        "keyframes" : [
                          {
                            "endTime" : 4545,
                            "time" : 4515,
                            "value" : 2.42592420533425,
                            "duration" : 30
                          },
                          {
                            "endTime" : 4882,
                            "time" : 4852,
                            "value" : 1.00000011985877,
                            "duration" : 30
                          },
                          {
                            "endTime" : 9424,
                            "time" : 9394,
                            "value" : 1.92825698315707,
                            "duration" : 30
                          },
                          {
                            "endTime" : 10034,
                            "time" : 10004,
                            "value" : 1.00000020670326,
                            "duration" : 30
                          },
                          {
                            "endTime" : 10122,
                            "time" : 10092,
                            "value" : 2.49372446668727,
                            "duration" : 30
                          }
                        ]
                      },
                      "sourceCrop0" : 0.0,
                      "sourceCrop1" : 0.0,
                      "sourceCrop2" : 0.0,
                      "sourceCrop3" : 0.0,
                      "geometryCrop0" : 0.0,
                      "geometryCrop1" : 0.0,
                      "geometryCrop2" : 0.0,
                      "geometryCrop3" : 0.0
                    },
                    "effects" : [

                    ],
                    "start" : 9254,
                    "duration" : 1964,
                    "mediaStart" : 8963,
                    "mediaDuration" : 1964,
                    "scalar" : 1,
                    "metadata" : {
                      "clipSpeedAttribute" : false,
                      "default-scale0" : 1.0,
                      "default-scale1" : 1.0,
                      "default-translation0" : 0.0,
                      "default-translation1" : 0.0
                    },
                    "animationTracks" : {
                      "visual" : [
                        {
                          "endTime" : 4545,
                          "duration" : 30,
                          "range" : [ 4515, 30]
                        },
                        {
                          "endTime" : 4882,
                          "duration" : 30,
                          "range" : [ 4852, 30]
                        },
                        {
                          "endTime" : 9424,
                          "duration" : 30,
                          "range" : [ 9394, 30]
                        },
                        {
                          "endTime" : 10034,
                          "duration" : 30,
                          "range" : [ 10004, 30]
                        },
                        {
                          "endTime" : 10122,
                          "duration" : 30,
                          "range" : [ 10092, 30]
                        }
                      ]
                    }
                  },
                  {
                    "id" : 107,
                    "_type" : "Callout",
                    "def" : {
                      "kind" : "remix",
                      "shape" : "shape-rectangle",
                      "style" : "basic",
                      "fill-color-blue" : 0.0,
                      "fill-color-green" : 0.0,
                      "fill-color-opacity" : 1.0,
                      "fill-color-red" : 0.0,
                      "height" : 233.864020096266,
                      "stroke-color-blue" : 1.0,
                      "stroke-color-green" : 1.0,
                      "stroke-color-opacity" : 1.0,
                      "stroke-color-red" : 1.0,
                      "stroke-width" : 0.0,
                      "width" : 415.758261027844,
                      "fill-style" : "solid",
                      "stroke-style" : "solid"
                    },
                    "attributes" : {
                      "autoRotateText" : true
                    },
                    "parameters" : {
                      "translation0" : {
                        "type" : "double",
                        "defaultValue" : 709.212466924985,
                        "keyframes" : [
                          {
                            "endTime" : 4545,
                            "time" : 4515,
                            "value" : 1640.94233852223,
                            "duration" : 30
                          },
                          {
                            "endTime" : 4882,
                            "time" : 4852,
                            "value" : 709.212496298192,
                            "duration" : 30
                          },
                          {
                            "endTime" : 9424,
                            "time" : 9394,
                            "value" : 2061.36707201498,
                            "duration" : 30
                          },
                          {
                            "endTime" : 10034,
                            "time" : 10004,
                            "value" : 709.212371861257,
                            "duration" : 30
                          },
                          {
                            "endTime" : 10122,
                            "time" : 10092,
                            "value" : 441.606928063704,
                            "duration" : 30
                          }
                        ]
                      },
                      "translation1" : {
                        "type" : "double",
                        "defaultValue" : -389.067989951525,
                        "keyframes" : [
                          {
                            "endTime" : 4545,
                            "time" : 4515,
                            "value" : 27.6027666856225,
                            "duration" : 30
                          },
                          {
                            "endTime" : 4882,
                            "time" : 4852,
                            "value" : -389.068000381624,
                            "duration" : 30
                          },
                          {
                            "endTime" : 9424,
                            "time" : 9394,
                            "value" : -689.228128801783,
                            "duration" : 30
                          },
                          {
                            "endTime" : 10034,
                            "time" : 10004,
                            "value" : -389.068018311142,
                            "duration" : 30
                          },
                          {
                            "endTime" : 10122,
                            "time" : 10092,
                            "value" : -927.765996921555,
                            "duration" : 30
                          }
                        ]
                      },
                      "scale0" : {
                        "type" : "double",
                        "defaultValue" : 1.0,
                        "keyframes" : [
                          {
                            "endTime" : 4545,
                            "time" : 4515,
                            "value" : 2.42592351648487,
                            "duration" : 30
                          },
                          {
                            "endTime" : 4882,
                            "time" : 4852,
                            "value" : 1.00000004141665,
                            "duration" : 30
                          },
                          {
                            "endTime" : 9424,
                            "time" : 9394,
                            "value" : 1.92825675580898,
                            "duration" : 30
                          },
                          {
                            "endTime" : 10034,
                            "time" : 10004,
                            "value" : 1.00000000001744,
                            "duration" : 30
                          },
                          {
                            "endTime" : 10122,
                            "time" : 10092,
                            "value" : 2.49372382589196,
                            "duration" : 30
                          }
                        ]
                      },
                      "scale1" : {
                        "type" : "double",
                        "defaultValue" : 1.0,
                        "keyframes" : [
                          {
                            "endTime" : 4545,
                            "time" : 4515,
                            "value" : 2.42592420533425,
                            "duration" : 30
                          },
                          {
                            "endTime" : 4882,
                            "time" : 4852,
                            "value" : 1.00000011985877,
                            "duration" : 30
                          },
                          {
                            "endTime" : 9424,
                            "time" : 9394,
                            "value" : 1.92825698315707,
                            "duration" : 30
                          },
                          {
                            "endTime" : 10034,
                            "time" : 10004,
                            "value" : 1.00000020670326,
                            "duration" : 30
                          },
                          {
                            "endTime" : 10122,
                            "time" : 10092,
                            "value" : 2.49372446668727,
                            "duration" : 30
                          }
                        ]
                      },
                      "sourceCrop0" : 0.0,
                      "sourceCrop1" : 0.0,
                      "sourceCrop2" : 0.0,
                      "sourceCrop3" : 0.0,
                      "geometryCrop0" : 0.0,
                      "geometryCrop1" : 0.0,
                      "geometryCrop2" : 0.0,
                      "geometryCrop3" : 0.0
                    },
                    "effects" : [

                    ],
                    "start" : 11218,
                    "duration" : 1679,
                    "mediaStart" : 10965,
                    "mediaDuration" : 1679,
                    "scalar" : 1,
                    "metadata" : {
                      "clipSpeedAttribute" : false,
                      "default-scale0" : 1.0,
                      "default-scale1" : 1.0,
                      "default-translation0" : 0.0,
                      "default-translation1" : 0.0
                    },
                    "animationTracks" : {
                      "visual" : [
                        {
                          "endTime" : 4545,
                          "duration" : 30,
                          "range" : [ 4515, 30]
                        },
                        {
                          "endTime" : 4882,
                          "duration" : 30,
                          "range" : [ 4852, 30]
                        },
                        {
                          "endTime" : 9424,
                          "duration" : 30,
                          "range" : [ 9394, 30]
                        },
                        {
                          "endTime" : 10034,
                          "duration" : 30,
                          "range" : [ 10004, 30]
                        },
                        {
                          "endTime" : 10122,
                          "duration" : 30,
                          "range" : [ 10092, 30]
                        }
                      ]
                    }
                  },
                  {
                    "id" : 108,
                    "_type" : "Callout",
                    "def" : {
                      "kind" : "remix",
                      "shape" : "shape-rectangle",
                      "style" : "basic",
                      "fill-color-blue" : 0.0,
                      "fill-color-green" : 0.0,
                      "fill-color-opacity" : 1.0,
                      "fill-color-red" : 0.0,
                      "height" : 233.864020096266,
                      "stroke-color-blue" : 1.0,
                      "stroke-color-green" : 1.0,
                      "stroke-color-opacity" : 1.0,
                      "stroke-color-red" : 1.0,
                      "stroke-width" : 0.0,
                      "width" : 415.758261027844,
                      "fill-style" : "solid",
                      "stroke-style" : "solid"
                    },
                    "attributes" : {
                      "autoRotateText" : true
                    },
                    "parameters" : {
                      "translation0" : {
                        "type" : "double",
                        "defaultValue" : 709.212466924985,
                        "keyframes" : [
                          {
                            "endTime" : 4545,
                            "time" : 4515,
                            "value" : 1640.94233852223,
                            "duration" : 30
                          },
                          {
                            "endTime" : 4882,
                            "time" : 4852,
                            "value" : 709.212496298192,
                            "duration" : 30
                          },
                          {
                            "endTime" : 9424,
                            "time" : 9394,
                            "value" : 2061.36707201498,
                            "duration" : 30
                          },
                          {
                            "endTime" : 10034,
                            "time" : 10004,
                            "value" : 709.212371861257,
                            "duration" : 30
                          },
                          {
                            "endTime" : 10122,
                            "time" : 10092,
                            "value" : 441.606928063704,
                            "duration" : 30
                          }
                        ]
                      },
                      "translation1" : {
                        "type" : "double",
                        "defaultValue" : -389.067989951525,
                        "keyframes" : [
                          {
                            "endTime" : 4545,
                            "time" : 4515,
                            "value" : 27.6027666856225,
                            "duration" : 30
                          },
                          {
                            "endTime" : 4882,
                            "time" : 4852,
                            "value" : -389.068000381624,
                            "duration" : 30
                          },
                          {
                            "endTime" : 9424,
                            "time" : 9394,
                            "value" : -689.228128801783,
                            "duration" : 30
                          },
                          {
                            "endTime" : 10034,
                            "time" : 10004,
                            "value" : -389.068018311142,
                            "duration" : 30
                          },
                          {
                            "endTime" : 10122,
                            "time" : 10092,
                            "value" : -927.765996921555,
                            "duration" : 30
                          }
                        ]
                      },
                      "scale0" : {
                        "type" : "double",
                        "defaultValue" : 1.0,
                        "keyframes" : [
                          {
                            "endTime" : 4545,
                            "time" : 4515,
                            "value" : 2.42592351648487,
                            "duration" : 30
                          },
                          {
                            "endTime" : 4882,
                            "time" : 4852,
                            "value" : 1.00000004141665,
                            "duration" : 30
                          },
                          {
                            "endTime" : 9424,
                            "time" : 9394,
                            "value" : 1.92825675580898,
                            "duration" : 30
                          },
                          {
                            "endTime" : 10034,
                            "time" : 10004,
                            "value" : 1.00000000001744,
                            "duration" : 30
                          },
                          {
                            "endTime" : 10122,
                            "time" : 10092,
                            "value" : 2.49372382589196,
                            "duration" : 30
                          }
                        ]
                      },
                      "scale1" : {
                        "type" : "double",
                        "defaultValue" : 1.0,
                        "keyframes" : [
                          {
                            "endTime" : 4545,
                            "time" : 4515,
                            "value" : 2.42592420533425,
                            "duration" : 30
                          },
                          {
                            "endTime" : 4882,
                            "time" : 4852,
                            "value" : 1.00000011985877,
                            "duration" : 30
                          },
                          {
                            "endTime" : 9424,
                            "time" : 9394,
                            "value" : 1.92825698315707,
                            "duration" : 30
                          },
                          {
                            "endTime" : 10034,
                            "time" : 10004,
                            "value" : 1.00000020670326,
                            "duration" : 30
                          },
                          {
                            "endTime" : 10122,
                            "time" : 10092,
                            "value" : 2.49372446668727,
                            "duration" : 30
                          }
                        ]
                      },
                      "sourceCrop0" : 0.0,
                      "sourceCrop1" : 0.0,
                      "sourceCrop2" : 0.0,
                      "sourceCrop3" : 0.0,
                      "geometryCrop0" : 0.0,
                      "geometryCrop1" : 0.0,
                      "geometryCrop2" : 0.0,
                      "geometryCrop3" : 0.0
                    },
                    "effects" : [

                    ],
                    "start" : 12897,
                    "duration" : 122,
                    "mediaStart" : 12660,
                    "mediaDuration" : 122,
                    "scalar" : 1,
                    "metadata" : {
                      "clipSpeedAttribute" : false,
                      "default-scale0" : 1.0,
                      "default-scale1" : 1.0,
                      "default-translation0" : 0.0,
                      "default-translation1" : 0.0
                    },
                    "animationTracks" : {
                      "visual" : [
                        {
                          "endTime" : 4545,
                          "duration" : 30,
                          "range" : [ 4515, 30]
                        },
                        {
                          "endTime" : 4882,
                          "duration" : 30,
                          "range" : [ 4852, 30]
                        },
                        {
                          "endTime" : 9424,
                          "duration" : 30,
                          "range" : [ 9394, 30]
                        },
                        {
                          "endTime" : 10034,
                          "duration" : 30,
                          "range" : [ 10004, 30]
                        },
                        {
                          "endTime" : 10122,
                          "duration" : 30,
                          "range" : [ 10092, 30]
                        }
                      ]
                    }
                  },
                  {
                    "id" : 109,
                    "_type" : "Callout",
                    "def" : {
                      "kind" : "remix",
                      "shape" : "shape-rectangle",
                      "style" : "basic",
                      "fill-color-blue" : 0.0,
                      "fill-color-green" : 0.0,
                      "fill-color-opacity" : 1.0,
                      "fill-color-red" : 0.0,
                      "height" : 233.864020096266,
                      "stroke-color-blue" : 1.0,
                      "stroke-color-green" : 1.0,
                      "stroke-color-opacity" : 1.0,
                      "stroke-color-red" : 1.0,
                      "stroke-width" : 0.0,
                      "width" : 415.758261027844,
                      "fill-style" : "solid",
                      "stroke-style" : "solid"
                    },
                    "attributes" : {
                      "autoRotateText" : true
                    },
                    "parameters" : {
                      "translation0" : {
                        "type" : "double",
                        "defaultValue" : 709.212466924985,
                        "keyframes" : [
                          {
                            "endTime" : 4545,
                            "time" : 4515,
                            "value" : 1640.94233852223,
                            "duration" : 30
                          },
                          {
                            "endTime" : 4882,
                            "time" : 4852,
                            "value" : 709.212496298192,
                            "duration" : 30
                          },
                          {
                            "endTime" : 9424,
                            "time" : 9394,
                            "value" : 2061.36707201498,
                            "duration" : 30
                          },
                          {
                            "endTime" : 10034,
                            "time" : 10004,
                            "value" : 709.212371861257,
                            "duration" : 30
                          },
                          {
                            "endTime" : 10122,
                            "time" : 10092,
                            "value" : 441.606928063704,
                            "duration" : 30
                          }
                        ]
                      },
                      "translation1" : {
                        "type" : "double",
                        "defaultValue" : -389.067989951525,
                        "keyframes" : [
                          {
                            "endTime" : 4545,
                            "time" : 4515,
                            "value" : 27.6027666856225,
                            "duration" : 30
                          },
                          {
                            "endTime" : 4882,
                            "time" : 4852,
                            "value" : -389.068000381624,
                            "duration" : 30
                          },
                          {
                            "endTime" : 9424,
                            "time" : 9394,
                            "value" : -689.228128801783,
                            "duration" : 30
                          },
                          {
                            "endTime" : 10034,
                            "time" : 10004,
                            "value" : -389.068018311142,
                            "duration" : 30
                          },
                          {
                            "endTime" : 10122,
                            "time" : 10092,
                            "value" : -927.765996921555,
                            "duration" : 30
                          }
                        ]
                      },
                      "scale0" : {
                        "type" : "double",
                        "defaultValue" : 1.0,
                        "keyframes" : [
                          {
                            "endTime" : 4545,
                            "time" : 4515,
                            "value" : 2.42592351648487,
                            "duration" : 30
                          },
                          {
                            "endTime" : 4882,
                            "time" : 4852,
                            "value" : 1.00000004141665,
                            "duration" : 30
                          },
                          {
                            "endTime" : 9424,
                            "time" : 9394,
                            "value" : 1.92825675580898,
                            "duration" : 30
                          },
                          {
                            "endTime" : 10034,
                            "time" : 10004,
                            "value" : 1.00000000001744,
                            "duration" : 30
                          },
                          {
                            "endTime" : 10122,
                            "time" : 10092,
                            "value" : 2.49372382589196,
                            "duration" : 30
                          }
                        ]
                      },
                      "scale1" : {
                        "type" : "double",
                        "defaultValue" : 1.0,
                        "keyframes" : [
                          {
                            "endTime" : 4545,
                            "time" : 4515,
                            "value" : 2.42592420533425,
                            "duration" : 30
                          },
                          {
                            "endTime" : 4882,
                            "time" : 4852,
                            "value" : 1.00000011985877,
                            "duration" : 30
                          },
                          {
                            "endTime" : 9424,
                            "time" : 9394,
                            "value" : 1.92825698315707,
                            "duration" : 30
                          },
                          {
                            "endTime" : 10034,
                            "time" : 10004,
                            "value" : 1.00000020670326,
                            "duration" : 30
                          },
                          {
                            "endTime" : 10122,
                            "time" : 10092,
                            "value" : 2.49372446668727,
                            "duration" : 30
                          }
                        ]
                      },
                      "sourceCrop0" : 0.0,
                      "sourceCrop1" : 0.0,
                      "sourceCrop2" : 0.0,
                      "sourceCrop3" : 0.0,
                      "geometryCrop0" : 0.0,
                      "geometryCrop1" : 0.0,
                      "geometryCrop2" : 0.0,
                      "geometryCrop3" : 0.0
                    },
                    "effects" : [

                    ],
                    "start" : 13019,
                    "duration" : 235,
                    "mediaStart" : 12793,
                    "mediaDuration" : 235,
                    "scalar" : 1,
                    "metadata" : {
                      "clipSpeedAttribute" : false,
                      "default-scale0" : 1.0,
                      "default-scale1" : 1.0,
                      "default-translation0" : 0.0,
                      "default-translation1" : 0.0
                    },
                    "animationTracks" : {
                      "visual" : [
                        {
                          "endTime" : 4545,
                          "duration" : 30,
                          "range" : [ 4515, 30]
                        },
                        {
                          "endTime" : 4882,
                          "duration" : 30,
                          "range" : [ 4852, 30]
                        },
                        {
                          "endTime" : 9424,
                          "duration" : 30,
                          "range" : [ 9394, 30]
                        },
                        {
                          "endTime" : 10034,
                          "duration" : 30,
                          "range" : [ 10004, 30]
                        },
                        {
                          "endTime" : 10122,
                          "duration" : 30,
                          "range" : [ 10092, 30]
                        }
                      ]
                    }
                  },
                  {
                    "id" : 110,
                    "_type" : "Callout",
                    "def" : {
                      "kind" : "remix",
                      "shape" : "shape-rectangle",
                      "style" : "basic",
                      "fill-color-blue" : 0.0,
                      "fill-color-green" : 0.0,
                      "fill-color-opacity" : 1.0,
                      "fill-color-red" : 0.0,
                      "height" : 233.864020096266,
                      "stroke-color-blue" : 1.0,
                      "stroke-color-green" : 1.0,
                      "stroke-color-opacity" : 1.0,
                      "stroke-color-red" : 1.0,
                      "stroke-width" : 0.0,
                      "width" : 415.758261027844,
                      "fill-style" : "solid",
                      "stroke-style" : "solid"
                    },
                    "attributes" : {
                      "autoRotateText" : true
                    },
                    "parameters" : {
                      "translation0" : {
                        "type" : "double",
                        "defaultValue" : 709.212466924985,
                        "keyframes" : [
                          {
                            "endTime" : 4545,
                            "time" : 4515,
                            "value" : 1640.94233852223,
                            "duration" : 30
                          },
                          {
                            "endTime" : 4882,
                            "time" : 4852,
                            "value" : 709.212496298192,
                            "duration" : 30
                          },
                          {
                            "endTime" : 9424,
                            "time" : 9394,
                            "value" : 2061.36707201498,
                            "duration" : 30
                          },
                          {
                            "endTime" : 10034,
                            "time" : 10004,
                            "value" : 709.212371861257,
                            "duration" : 30
                          },
                          {
                            "endTime" : 10122,
                            "time" : 10092,
                            "value" : 441.606928063704,
                            "duration" : 30
                          }
                        ]
                      },
                      "translation1" : {
                        "type" : "double",
                        "defaultValue" : -389.067989951525,
                        "keyframes" : [
                          {
                            "endTime" : 4545,
                            "time" : 4515,
                            "value" : 27.6027666856225,
                            "duration" : 30
                          },
                          {
                            "endTime" : 4882,
                            "time" : 4852,
                            "value" : -389.068000381624,
                            "duration" : 30
                          },
                          {
                            "endTime" : 9424,
                            "time" : 9394,
                            "value" : -689.228128801783,
                            "duration" : 30
                          },
                          {
                            "endTime" : 10034,
                            "time" : 10004,
                            "value" : -389.068018311142,
                            "duration" : 30
                          },
                          {
                            "endTime" : 10122,
                            "time" : 10092,
                            "value" : -927.765996921555,
                            "duration" : 30
                          }
                        ]
                      },
                      "scale0" : {
                        "type" : "double",
                        "defaultValue" : 1.0,
                        "keyframes" : [
                          {
                            "endTime" : 4545,
                            "time" : 4515,
                            "value" : 2.42592351648487,
                            "duration" : 30
                          },
                          {
                            "endTime" : 4882,
                            "time" : 4852,
                            "value" : 1.00000004141665,
                            "duration" : 30
                          },
                          {
                            "endTime" : 9424,
                            "time" : 9394,
                            "value" : 1.92825675580898,
                            "duration" : 30
                          },
                          {
                            "endTime" : 10034,
                            "time" : 10004,
                            "value" : 1.00000000001744,
                            "duration" : 30
                          },
                          {
                            "endTime" : 10122,
                            "time" : 10092,
                            "value" : 2.49372382589196,
                            "duration" : 30
                          }
                        ]
                      },
                      "scale1" : {
                        "type" : "double",
                        "defaultValue" : 1.0,
                        "keyframes" : [
                          {
                            "endTime" : 4545,
                            "time" : 4515,
                            "value" : 2.42592420533425,
                            "duration" : 30
                          },
                          {
                            "endTime" : 4882,
                            "time" : 4852,
                            "value" : 1.00000011985877,
                            "duration" : 30
                          },
                          {
                            "endTime" : 9424,
                            "time" : 9394,
                            "value" : 1.92825698315707,
                            "duration" : 30
                          },
                          {
                            "endTime" : 10034,
                            "time" : 10004,
                            "value" : 1.00000020670326,
                            "duration" : 30
                          },
                          {
                            "endTime" : 10122,
                            "time" : 10092,
                            "value" : 2.49372446668727,
                            "duration" : 30
                          }
                        ]
                      },
                      "sourceCrop0" : 0.0,
                      "sourceCrop1" : 0.0,
                      "sourceCrop2" : 0.0,
                      "sourceCrop3" : 0.0,
                      "geometryCrop0" : 0.0,
                      "geometryCrop1" : 0.0,
                      "geometryCrop2" : 0.0,
                      "geometryCrop3" : 0.0
                    },
                    "effects" : [

                    ],
                    "start" : 13254,
                    "duration" : 423,
                    "mediaStart" : 13051,
                    "mediaDuration" : 423,
                    "scalar" : 1,
                    "metadata" : {
                      "clipSpeedAttribute" : false,
                      "default-scale0" : 1.0,
                      "default-scale1" : 1.0,
                      "default-translation0" : 0.0,
                      "default-translation1" : 0.0
                    },
                    "animationTracks" : {
                      "visual" : [
                        {
                          "endTime" : 4545,
                          "duration" : 30,
                          "range" : [ 4515, 30]
                        },
                        {
                          "endTime" : 4882,
                          "duration" : 30,
                          "range" : [ 4852, 30]
                        },
                        {
                          "endTime" : 9424,
                          "duration" : 30,
                          "range" : [ 9394, 30]
                        },
                        {
                          "endTime" : 10034,
                          "duration" : 30,
                          "range" : [ 10004, 30]
                        },
                        {
                          "endTime" : 10122,
                          "duration" : 30,
                          "range" : [ 10092, 30]
                        }
                      ]
                    }
                  },
                  {
                    "id" : 111,
                    "_type" : "Callout",
                    "def" : {
                      "kind" : "remix",
                      "shape" : "shape-rectangle",
                      "style" : "basic",
                      "fill-color-blue" : 0.0,
                      "fill-color-green" : 0.0,
                      "fill-color-opacity" : 1.0,
                      "fill-color-red" : 0.0,
                      "height" : 233.864020096266,
                      "stroke-color-blue" : 1.0,
                      "stroke-color-green" : 1.0,
                      "stroke-color-opacity" : 1.0,
                      "stroke-color-red" : 1.0,
                      "stroke-width" : 0.0,
                      "width" : 415.758261027844,
                      "fill-style" : "solid",
                      "stroke-style" : "solid"
                    },
                    "attributes" : {
                      "autoRotateText" : true
                    },
                    "parameters" : {
                      "translation0" : {
                        "type" : "double",
                        "defaultValue" : 709.212466924985,
                        "keyframes" : [
                          {
                            "endTime" : 4545,
                            "time" : 4515,
                            "value" : 1640.94233852223,
                            "duration" : 30
                          },
                          {
                            "endTime" : 4882,
                            "time" : 4852,
                            "value" : 709.212496298192,
                            "duration" : 30
                          },
                          {
                            "endTime" : 9424,
                            "time" : 9394,
                            "value" : 2061.36707201498,
                            "duration" : 30
                          },
                          {
                            "endTime" : 10034,
                            "time" : 10004,
                            "value" : 709.212371861257,
                            "duration" : 30
                          },
                          {
                            "endTime" : 10122,
                            "time" : 10092,
                            "value" : 441.606928063704,
                            "duration" : 30
                          }
                        ]
                      },
                      "translation1" : {
                        "type" : "double",
                        "defaultValue" : -389.067989951525,
                        "keyframes" : [
                          {
                            "endTime" : 4545,
                            "time" : 4515,
                            "value" : 27.6027666856225,
                            "duration" : 30
                          },
                          {
                            "endTime" : 4882,
                            "time" : 4852,
                            "value" : -389.068000381624,
                            "duration" : 30
                          },
                          {
                            "endTime" : 9424,
                            "time" : 9394,
                            "value" : -689.228128801783,
                            "duration" : 30
                          },
                          {
                            "endTime" : 10034,
                            "time" : 10004,
                            "value" : -389.068018311142,
                            "duration" : 30
                          },
                          {
                            "endTime" : 10122,
                            "time" : 10092,
                            "value" : -927.765996921555,
                            "duration" : 30
                          }
                        ]
                      },
                      "scale0" : {
                        "type" : "double",
                        "defaultValue" : 1.0,
                        "keyframes" : [
                          {
                            "endTime" : 4545,
                            "time" : 4515,
                            "value" : 2.42592351648487,
                            "duration" : 30
                          },
                          {
                            "endTime" : 4882,
                            "time" : 4852,
                            "value" : 1.00000004141665,
                            "duration" : 30
                          },
                          {
                            "endTime" : 9424,
                            "time" : 9394,
                            "value" : 1.92825675580898,
                            "duration" : 30
                          },
                          {
                            "endTime" : 10034,
                            "time" : 10004,
                            "value" : 1.00000000001744,
                            "duration" : 30
                          },
                          {
                            "endTime" : 10122,
                            "time" : 10092,
                            "value" : 2.49372382589196,
                            "duration" : 30
                          }
                        ]
                      },
                      "scale1" : {
                        "type" : "double",
                        "defaultValue" : 1.0,
                        "keyframes" : [
                          {
                            "endTime" : 4545,
                            "time" : 4515,
                            "value" : 2.42592420533425,
                            "duration" : 30
                          },
                          {
                            "endTime" : 4882,
                            "time" : 4852,
                            "value" : 1.00000011985877,
                            "duration" : 30
                          },
                          {
                            "endTime" : 9424,
                            "time" : 9394,
                            "value" : 1.92825698315707,
                            "duration" : 30
                          },
                          {
                            "endTime" : 10034,
                            "time" : 10004,
                            "value" : 1.00000020670326,
                            "duration" : 30
                          },
                          {
                            "endTime" : 10122,
                            "time" : 10092,
                            "value" : 2.49372446668727,
                            "duration" : 30
                          }
                        ]
                      },
                      "sourceCrop0" : 0.0,
                      "sourceCrop1" : 0.0,
                      "sourceCrop2" : 0.0,
                      "sourceCrop3" : 0.0,
                      "geometryCrop0" : 0.0,
                      "geometryCrop1" : 0.0,
                      "geometryCrop2" : 0.0,
                      "geometryCrop3" : 0.0
                    },
                    "effects" : [

                    ],
                    "start" : 13677,
                    "duration" : 918,
                    "mediaStart" : 13511,
                    "mediaDuration" : 918,
                    "scalar" : 1,
                    "metadata" : {
                      "clipSpeedAttribute" : false,
                      "default-scale0" : 1.0,
                      "default-scale1" : 1.0,
                      "default-translation0" : 0.0,
                      "default-translation1" : 0.0
                    },
                    "animationTracks" : {
                      "visual" : [
                        {
                          "endTime" : 4545,
                          "duration" : 30,
                          "range" : [ 4515, 30]
                        },
                        {
                          "endTime" : 4882,
                          "duration" : 30,
                          "range" : [ 4852, 30]
                        },
                        {
                          "endTime" : 9424,
                          "duration" : 30,
                          "range" : [ 9394, 30]
                        },
                        {
                          "endTime" : 10034,
                          "duration" : 30,
                          "range" : [ 10004, 30]
                        },
                        {
                          "endTime" : 10122,
                          "duration" : 30,
                          "range" : [ 10092, 30]
                        }
                      ]
                    }
                  }
                ]
              },
              {
                "trackIndex" : 3,
                "medias" : [
                  {
                    "id" : 112,
                    "_type" : "UnifiedMedia",
                    "video" : 
                        {
                          "id" : 113,
                          "_type" : "VMFile",
                          "src" : 18,
                          "trackNumber" : 0,
                          "attributes" : {
                            "ident" : "Aufn. 06-17-20_009"
                          },
                          "parameters" : {
                            "translation0" : 709.212463461252,
                            "translation1" : -389.067989951714,
                            "scale0" : 0.216540765762323,
                            "scale1" : 0.216540765762323,
                            "sourceCrop0" : 0.0,
                            "sourceCrop1" : 0.0,
                            "sourceCrop2" : 0.0,
                            "sourceCrop3" : 0.0,
                            "geometryCrop0" : 0.0,
                            "geometryCrop1" : 0.0,
                            "geometryCrop2" : 0.0,
                            "geometryCrop3" : 0.0
                          },
                          "effects" : [

                          ],
                          "start" : 0,
                          "duration" : 677,
                          "mediaStart" : 0,
                          "mediaDuration" : 677,
                          "scalar" : 1,
                          "animationTracks" : {

                          }
                        },
                    "audio" : 
                        {
                          "id" : 114,
                          "_type" : "AMFile",
                          "src" : 18,
                          "trackNumber" : 1,
                          "attributes" : {
                            "ident" : "",
                            "gain" : 1.0,
                            "mixToMono" : false
                          },
                            "channelNumber" : "0,1",
                          "effects" : [

                          ],
                          "start" : 0,
                          "duration" : 677,
                          "mediaStart" : 0,
                          "mediaDuration" : 677,
                          "scalar" : 1,
                          "animationTracks" : {

                          }
                        }
,
                    "start" : 0,
                    "duration" : 677,
                    "mediaStart" : 0,
                    "mediaDuration" : 721,
                    "scalar" : 1,
                    "metadata" : {
                      "clipSpeedAttribute" : false,
                      "default-scale0" : 1.0,
                      "default-scale1" : 1.0,
                      "default-translation0" : 0.0,
                      "default-translation1" : 0.0
                    }
                  },
                  {
                    "id" : 115,
                    "_type" : "UnifiedMedia",
                    "video" : 
                        {
                          "id" : 116,
                          "_type" : "VMFile",
                          "src" : 43,
                          "trackNumber" : 0,
                          "attributes" : {
                            "ident" : "Aufn. 06-18-20"
                          },
                          "parameters" : {
                            "translation0" : 716.000000000055,
                            "translation1" : -385.999999999925,
                            "scale0" : 0.233333333333262,
                            "scale1" : 0.233333333333262,
                            "sourceCrop0" : 0.0,
                            "sourceCrop1" : 0.0,
                            "sourceCrop2" : 0.0,
                            "sourceCrop3" : 0.0,
                            "geometryCrop0" : 39.9999999949034,
                            "geometryCrop1" : 52.0113424431815,
                            "geometryCrop2" : 98.1788945093897,
                            "geometryCrop3" : 25.7142857154829
                          },
                          "effects" : [

                          ],
                          "start" : 677,
                          "duration" : 304,
                          "mediaStart" : 0,
                          "mediaDuration" : 304,
                          "scalar" : 1,
                          "animationTracks" : {

                          }
                        },
                    "audio" : 
                        {
                          "id" : 117,
                          "_type" : "AMFile",
                          "src" : 43,
                          "trackNumber" : 1,
                          "attributes" : {
                            "ident" : "",
                            "gain" : 1.0,
                            "mixToMono" : false
                          },
                            "channelNumber" : "0,1",
                          "effects" : [

                          ],
                          "start" : 677,
                          "duration" : 304,
                          "mediaStart" : 0,
                          "mediaDuration" : 304,
                          "scalar" : 1,
                          "animationTracks" : {

                          }
                        }
,
                    "start" : 677,
                    "duration" : 304,
                    "mediaStart" : 0,
                    "mediaDuration" : 321,
                    "scalar" : 1,
                    "metadata" : {
                      "clipSpeedAttribute" : false,
                      "default-scale0" : 1.0,
                      "default-scale1" : 1.0,
                      "default-translation0" : 0.0,
                      "default-translation1" : 0.0
                    }
                  },
                  {
                    "id" : 118,
                    "_type" : "StitchedMedia",
                    "minMediaStart" : 0,
                    "attributes" : {
                      "ident" : "Aufn. 06-17-20_011",
                      "gain" : 1.0,
                      "mixToMono" : false
                    },
                    "parameters" : {
                      "volume" : 1.0,
                      "cursorOpacity" : 1.0,
                      "cursorScale" : 1.0
                    },
                    "medias" : [
                        {
                          "id" : 119,
                          "_type" : "AMFile",
                          "src" : 20,
                          "trackNumber" : 1,
                          "attributes" : {
                            "ident" : "",
                            "gain" : 1.0,
                            "mixToMono" : false
                          },
                            "channelNumber" : "0,1",
                          "effects" : [

                          ],
                          "start" : 0,
                          "duration" : 140,
                          "mediaStart" : 0,
                          "mediaDuration" : 140,
                          "scalar" : 1,
                          "animationTracks" : {

                          }
                        },
                        {
                          "id" : 120,
                          "_type" : "AMFile",
                          "src" : 20,
                          "trackNumber" : 1,
                          "attributes" : {
                            "ident" : "",
                            "gain" : 1.0,
                            "mixToMono" : false
                          },
                            "channelNumber" : "0,1",
                          "effects" : [

                          ],
                          "start" : 140,
                          "duration" : 501,
                          "mediaStart" : 163,
                          "mediaDuration" : 501,
                          "scalar" : 1,
                          "animationTracks" : {

                          }
                        },
                        {
                          "id" : 121,
                          "_type" : "AMFile",
                          "src" : 20,
                          "trackNumber" : 1,
                          "attributes" : {
                            "ident" : "",
                            "gain" : 1.0,
                            "mixToMono" : false
                          },
                            "channelNumber" : "0,1",
                          "effects" : [

                          ],
                          "start" : 641,
                          "duration" : 153,
                          "mediaStart" : 758,
                          "mediaDuration" : 153,
                          "scalar" : 1,
                          "animationTracks" : {

                          }
                        },
                        {
                          "id" : 122,
                          "_type" : "AMFile",
                          "src" : 20,
                          "trackNumber" : 1,
                          "attributes" : {
                            "ident" : "",
                            "gain" : 1.0,
                            "mixToMono" : false
                          },
                            "channelNumber" : "0,1",
                          "effects" : [

                          ],
                          "start" : 794,
                          "duration" : 76,
                          "mediaStart" : 989,
                          "mediaDuration" : 76,
                          "scalar" : 1,
                          "animationTracks" : {

                          }
                        },
                        {
                          "id" : 123,
                          "_type" : "AMFile",
                          "src" : 20,
                          "trackNumber" : 1,
                          "attributes" : {
                            "ident" : "",
                            "gain" : 1.0,
                            "mixToMono" : false
                          },
                            "channelNumber" : "0,1",
                          "effects" : [

                          ],
                          "start" : 870,
                          "duration" : 76,
                          "mediaStart" : 1084,
                          "mediaDuration" : 76,
                          "scalar" : 1,
                          "animationTracks" : {

                          }
                        },
                        {
                          "id" : 124,
                          "_type" : "AMFile",
                          "src" : 20,
                          "trackNumber" : 1,
                          "attributes" : {
                            "ident" : "",
                            "gain" : 1.0,
                            "mixToMono" : false
                          },
                            "channelNumber" : "0,1",
                          "effects" : [

                          ],
                          "start" : 946,
                          "duration" : 123,
                          "mediaStart" : 1180,
                          "mediaDuration" : 123,
                          "scalar" : 1,
                          "animationTracks" : {

                          }
                        }
                    ],
                    "effects" : [

                    ],
                    "start" : 981,
                    "duration" : 1063,
                    "mediaStart" : 0,
                    "mediaDuration" : 1063,
                    "scalar" : 1,
                    "metadata" : {
                      "clipSpeedAttribute" : false
                    },
                    "animationTracks" : {

                    }
                  },
                  {
                    "id" : 125,
                    "_type" : "StitchedMedia",
                    "minMediaStart" : 0,
                    "attributes" : {
                      "ident" : "Aufn. 06-17-20_013",
                      "gain" : 1.0,
                      "mixToMono" : false
                    },
                    "parameters" : {
                      "translation0" : 709.666666666428,
                      "translation1" : -388.812499999946,
                      "scale0" : 0.217013888888969,
                      "scale1" : 0.217013888888969,
                      "sourceCrop0" : 0.0,
                      "sourceCrop1" : 0.0,
                      "sourceCrop2" : 0.0,
                      "sourceCrop3" : 0.0,
                      "geometryCrop0" : 0.0,
                      "geometryCrop1" : 0.0,
                      "geometryCrop2" : 0.0,
                      "geometryCrop3" : 0.0,
                      "volume" : 1.0,
                      "cursorOpacity" : 1.0,
                      "cursorScale" : 1.0
                    },
                    "medias" : [
                        {
                          "id" : 126,
                          "_type" : "UnifiedMedia",
                          "video" : 
                              {
                                "id" : 127,
                                "_type" : "VMFile",
                                "src" : 22,
                                "trackNumber" : 0,
                                "attributes" : {
                                  "ident" : "Aufn. 06-17-20_013"
                                },
                                "parameters" : {
                                  "sourceCrop0" : 0.0,
                                  "sourceCrop1" : 0.0,
                                  "sourceCrop2" : 0.0,
                                  "sourceCrop3" : 0.0,
                                  "geometryCrop0" : 0.0,
                                  "geometryCrop1" : 0.0,
                                  "geometryCrop2" : 0.0,
                                  "geometryCrop3" : 0.0
                                },
                                "effects" : [

                                ],
                                "start" : 0,
                                "duration" : 117,
                                "mediaStart" : 0,
                                "mediaDuration" : 117,
                                "scalar" : 1,
                                "animationTracks" : {

                                }
                              },
                          "audio" : 
                              {
                                "id" : 128,
                                "_type" : "AMFile",
                                "src" : 22,
                                "trackNumber" : 1,
                                "attributes" : {
                                  "ident" : "",
                                  "gain" : 1.0,
                                  "mixToMono" : false
                                },
                                  "channelNumber" : "0,1",
                                "effects" : [

                                ],
                                "start" : 0,
                                "duration" : 117,
                                "mediaStart" : 0,
                                "mediaDuration" : 117,
                                "scalar" : 1,
                                "animationTracks" : {

                                }
                              }
,
                          "start" : 0,
                          "duration" : 117,
                          "mediaStart" : 0,
                          "mediaDuration" : 1083,
                          "scalar" : 1,
                          "metadata" : {
                            "clipSpeedAttribute" : false,
                            "default-scale0" : 1.0,
                            "default-scale1" : 1.0,
                            "default-translation0" : 0.0,
                            "default-translation1" : 0.0
                          }
                        },
                        {
                          "id" : 129,
                          "_type" : "UnifiedMedia",
                          "video" : 
                              {
                                "id" : 130,
                                "_type" : "VMFile",
                                "src" : 22,
                                "trackNumber" : 0,
                                "attributes" : {
                                  "ident" : "Aufn. 06-17-20_013"
                                },
                                "parameters" : {
                                  "sourceCrop0" : 0.0,
                                  "sourceCrop1" : 0.0,
                                  "sourceCrop2" : 0.0,
                                  "sourceCrop3" : 0.0,
                                  "geometryCrop0" : 0.0,
                                  "geometryCrop1" : 0.0,
                                  "geometryCrop2" : 0.0,
                                  "geometryCrop3" : 0.0
                                },
                                "effects" : [

                                ],
                                "start" : 117,
                                "duration" : 953,
                                "mediaStart" : 130,
                                "mediaDuration" : 953,
                                "scalar" : 1,
                                "animationTracks" : {

                                }
                              },
                          "audio" : 
                              {
                                "id" : 131,
                                "_type" : "AMFile",
                                "src" : 22,
                                "trackNumber" : 1,
                                "attributes" : {
                                  "ident" : "",
                                  "gain" : 1.0,
                                  "mixToMono" : false
                                },
                                  "channelNumber" : "0,1",
                                "effects" : [

                                ],
                                "start" : 117,
                                "duration" : 953,
                                "mediaStart" : 130,
                                "mediaDuration" : 953,
                                "scalar" : 1,
                                "animationTracks" : {

                                }
                              }
,
                          "start" : 117,
                          "duration" : 953,
                          "mediaStart" : 0,
                          "mediaDuration" : 1083,
                          "scalar" : 1,
                          "metadata" : {
                            "clipSpeedAttribute" : false,
                            "default-scale0" : 1.0,
                            "default-scale1" : 1.0,
                            "default-translation0" : 0.0,
                            "default-translation1" : 0.0
                          }
                        }
                    ],
                    "effects" : [

                    ],
                    "start" : 2044,
                    "duration" : 373,
                    "mediaStart" : 0,
                    "mediaDuration" : 373,
                    "scalar" : 1,
                    "metadata" : {
                      "clipSpeedAttribute" : false
                    },
                    "animationTracks" : {

                    }
                  },
                  {
                    "id" : 132,
                    "_type" : "UnifiedMedia",
                    "video" : 
                        {
                          "id" : 133,
                          "_type" : "VMFile",
                          "src" : 22,
                          "trackNumber" : 0,
                          "attributes" : {
                            "ident" : "Aufn. 06-17-20_013"
                          },
                          "parameters" : {
                            "translation0" : 709.666666666592,
                            "translation1" : -388.812499999753,
                            "scale0" : 0.217013888888969,
                            "scale1" : 0.217013888888969,
                            "sourceCrop0" : 0.0,
                            "sourceCrop1" : 0.0,
                            "sourceCrop2" : 0.0,
                            "sourceCrop3" : 0.0,
                            "geometryCrop0" : 0.0,
                            "geometryCrop1" : 0.0,
                            "geometryCrop2" : 0.0,
                            "geometryCrop3" : 0.0
                          },
                          "effects" : [

                          ],
                          "start" : 2417,
                          "duration" : 193,
                          "mediaStart" : 890,
                          "mediaDuration" : 193,
                          "scalar" : 1,
                          "animationTracks" : {

                          }
                        },
                    "audio" : 
                        {
                          "id" : 134,
                          "_type" : "AMFile",
                          "src" : 22,
                          "trackNumber" : 1,
                          "attributes" : {
                            "ident" : "",
                            "gain" : 1.0,
                            "mixToMono" : false
                          },
                            "channelNumber" : "0,1",
                          "effects" : [

                          ],
                          "start" : 2417,
                          "duration" : 193,
                          "mediaStart" : 890,
                          "mediaDuration" : 193,
                          "scalar" : 1,
                          "animationTracks" : {

                          }
                        }
,
                    "start" : 2417,
                    "duration" : 193,
                    "mediaStart" : 0,
                    "mediaDuration" : 1083,
                    "scalar" : 1,
                    "metadata" : {
                      "clipSpeedAttribute" : false,
                      "default-scale0" : 1.0,
                      "default-scale1" : 1.0,
                      "default-translation0" : 0.0,
                      "default-translation1" : 0.0
                    }
                  },
                  {
                    "id" : 135,
                    "_type" : "UnifiedMedia",
                    "video" : 
                        {
                          "id" : 136,
                          "_type" : "VMFile",
                          "src" : 23,
                          "trackNumber" : 0,
                          "attributes" : {
                            "ident" : "Aufn. 06-17-20_014"
                          },
                          "parameters" : {
                            "translation0" : 709.666666666592,
                            "translation1" : -388.812499999753,
                            "scale0" : 0.217013888888969,
                            "scale1" : 0.217013888888969,
                            "sourceCrop0" : 0.0,
                            "sourceCrop1" : 0.0,
                            "sourceCrop2" : 0.0,
                            "sourceCrop3" : 0.0,
                            "geometryCrop0" : 0.0,
                            "geometryCrop1" : 0.0,
                            "geometryCrop2" : 0.0,
                            "geometryCrop3" : 0.0
                          },
                          "effects" : [

                          ],
                          "start" : 2610,
                          "duration" : 390,
                          "mediaStart" : 0,
                          "mediaDuration" : 390,
                          "scalar" : 1,
                          "animationTracks" : {

                          }
                        },
                    "audio" : 
                        {
                          "id" : 137,
                          "_type" : "AMFile",
                          "src" : 23,
                          "trackNumber" : 1,
                          "attributes" : {
                            "ident" : "",
                            "gain" : 1.0,
                            "mixToMono" : false
                          },
                            "channelNumber" : "0,1",
                          "effects" : [

                          ],
                          "start" : 2610,
                          "duration" : 390,
                          "mediaStart" : 0,
                          "mediaDuration" : 390,
                          "scalar" : 1,
                          "animationTracks" : {

                          }
                        }
,
                    "start" : 2610,
                    "duration" : 390,
                    "mediaStart" : 0,
                    "mediaDuration" : 405,
                    "scalar" : 1,
                    "metadata" : {
                      "clipSpeedAttribute" : false,
                      "default-scale0" : 1.0,
                      "default-scale1" : 1.0,
                      "default-translation0" : 0.0,
                      "default-translation1" : 0.0
                    }
                  },
                  {
                    "id" : 138,
                    "_type" : "UnifiedMedia",
                    "video" : 
                        {
                          "id" : 139,
                          "_type" : "VMFile",
                          "src" : 24,
                          "trackNumber" : 0,
                          "attributes" : {
                            "ident" : "Aufn. 06-17-20_015"
                          },
                          "parameters" : {
                            "translation0" : 709.666666666592,
                            "translation1" : -388.812499999753,
                            "scale0" : 0.217013888888969,
                            "scale1" : 0.217013888888969,
                            "sourceCrop0" : 0.0,
                            "sourceCrop1" : 0.0,
                            "sourceCrop2" : 0.0,
                            "sourceCrop3" : 0.0,
                            "geometryCrop0" : 0.0,
                            "geometryCrop1" : 0.0,
                            "geometryCrop2" : 0.0,
                            "geometryCrop3" : 0.0
                          },
                          "effects" : [

                          ],
                          "start" : 3000,
                          "duration" : 226,
                          "mediaStart" : 0,
                          "mediaDuration" : 226,
                          "scalar" : 1,
                          "animationTracks" : {

                          }
                        },
                    "audio" : 
                        {
                          "id" : 140,
                          "_type" : "AMFile",
                          "src" : 24,
                          "trackNumber" : 1,
                          "attributes" : {
                            "ident" : "",
                            "gain" : 1.0,
                            "mixToMono" : false
                          },
                            "channelNumber" : "0,1",
                          "effects" : [

                          ],
                          "start" : 3000,
                          "duration" : 226,
                          "mediaStart" : 0,
                          "mediaDuration" : 226,
                          "scalar" : 1,
                          "animationTracks" : {

                          }
                        }
,
                    "start" : 3000,
                    "duration" : 226,
                    "mediaStart" : 0,
                    "mediaDuration" : 226,
                    "scalar" : 1,
                    "metadata" : {
                      "clipSpeedAttribute" : false,
                      "default-scale0" : 1.0,
                      "default-scale1" : 1.0,
                      "default-translation0" : 0.0,
                      "default-translation1" : 0.0
                    }
                  },
                  {
                    "id" : 141,
                    "_type" : "StitchedMedia",
                    "minMediaStart" : 0,
                    "attributes" : {
                      "ident" : "Aufn. 06-17-20_016",
                      "gain" : 1.0,
                      "mixToMono" : false
                    },
                    "parameters" : {
                      "translation0" : 709.666666666592,
                      "translation1" : -388.812499999753,
                      "scale0" : 0.217013888888969,
                      "scale1" : 0.217013888888969,
                      "sourceCrop0" : 0.0,
                      "sourceCrop1" : 0.0,
                      "sourceCrop2" : 0.0,
                      "sourceCrop3" : 0.0,
                      "geometryCrop0" : 0.0,
                      "geometryCrop1" : 0.0,
                      "geometryCrop2" : 0.0,
                      "geometryCrop3" : 0.0,
                      "volume" : 1.0,
                      "cursorOpacity" : 1.0,
                      "cursorScale" : 1.0
                    },
                    "medias" : [
                        {
                          "id" : 142,
                          "_type" : "UnifiedMedia",
                          "video" : 
                              {
                                "id" : 143,
                                "_type" : "VMFile",
                                "src" : 25,
                                "trackNumber" : 0,
                                "attributes" : {
                                  "ident" : "Aufn. 06-17-20_016"
                                },
                                "parameters" : {
                                  "sourceCrop0" : 0.0,
                                  "sourceCrop1" : 0.0,
                                  "sourceCrop2" : 0.0,
                                  "sourceCrop3" : 0.0,
                                  "geometryCrop0" : 0.0,
                                  "geometryCrop1" : 0.0,
                                  "geometryCrop2" : 0.0,
                                  "geometryCrop3" : 0.0
                                },
                                "effects" : [

                                ],
                                "start" : 0,
                                "duration" : 522,
                                "mediaStart" : 0,
                                "mediaDuration" : 522,
                                "scalar" : 1,
                                "animationTracks" : {

                                }
                              },
                          "audio" : 
                              {
                                "id" : 144,
                                "_type" : "AMFile",
                                "src" : 25,
                                "trackNumber" : 1,
                                "attributes" : {
                                  "ident" : "",
                                  "gain" : 1.0,
                                  "mixToMono" : false
                                },
                                  "channelNumber" : "0,1",
                                "effects" : [

                                ],
                                "start" : 0,
                                "duration" : 522,
                                "mediaStart" : 0,
                                "mediaDuration" : 522,
                                "scalar" : 1,
                                "animationTracks" : {

                                }
                              }
,
                          "start" : 0,
                          "duration" : 522,
                          "mediaStart" : 0,
                          "mediaDuration" : 1080,
                          "scalar" : 1,
                          "metadata" : {
                            "clipSpeedAttribute" : false
                          }
                        },
                        {
                          "id" : 145,
                          "_type" : "UnifiedMedia",
                          "video" : 
                              {
                                "id" : 146,
                                "_type" : "VMFile",
                                "src" : 25,
                                "trackNumber" : 0,
                                "attributes" : {
                                  "ident" : "Aufn. 06-17-20_016"
                                },
                                "parameters" : {
                                  "sourceCrop0" : 0.0,
                                  "sourceCrop1" : 0.0,
                                  "sourceCrop2" : 0.0,
                                  "sourceCrop3" : 0.0,
                                  "geometryCrop0" : 0.0,
                                  "geometryCrop1" : 0.0,
                                  "geometryCrop2" : 0.0,
                                  "geometryCrop3" : 0.0
                                },
                                "effects" : [

                                ],
                                "start" : 522,
                                "duration" : 253,
                                "mediaStart" : 827,
                                "mediaDuration" : 253,
                                "scalar" : 1,
                                "animationTracks" : {

                                }
                              },
                          "audio" : 
                              {
                                "id" : 147,
                                "_type" : "AMFile",
                                "src" : 25,
                                "trackNumber" : 1,
                                "attributes" : {
                                  "ident" : "",
                                  "gain" : 1.0,
                                  "mixToMono" : false
                                },
                                  "channelNumber" : "0,1",
                                "effects" : [

                                ],
                                "start" : 522,
                                "duration" : 253,
                                "mediaStart" : 827,
                                "mediaDuration" : 253,
                                "scalar" : 1,
                                "animationTracks" : {

                                }
                              }
,
                          "start" : 522,
                          "duration" : 253,
                          "mediaStart" : 0,
                          "mediaDuration" : 1080,
                          "scalar" : 1,
                          "metadata" : {
                            "clipSpeedAttribute" : false
                          }
                        }
                    ],
                    "effects" : [

                    ],
                    "start" : 3226,
                    "duration" : 718,
                    "mediaStart" : 0,
                    "mediaDuration" : 718,
                    "scalar" : 1,
                    "metadata" : {
                      "clipSpeedAttribute" : false,
                      "default-scale0" : 1.0,
                      "default-scale1" : 1.0,
                      "default-translation0" : 0.0,
                      "default-translation1" : 0.0
                    },
                    "animationTracks" : {

                    }
                  },
                  {
                    "id" : 148,
                    "_type" : "StitchedMedia",
                    "minMediaStart" : 0,
                    "attributes" : {
                      "ident" : "Aufn. 06-17-20_018",
                      "gain" : 1.0,
                      "mixToMono" : false
                    },
                    "parameters" : {
                      "translation0" : 709.666666666592,
                      "translation1" : -388.812499999753,
                      "scale0" : 0.217013888888969,
                      "scale1" : 0.217013888888969,
                      "sourceCrop0" : 0.0,
                      "sourceCrop1" : 0.0,
                      "sourceCrop2" : 0.0,
                      "sourceCrop3" : 0.0,
                      "geometryCrop0" : 0.0,
                      "geometryCrop1" : 0.0,
                      "geometryCrop2" : 0.0,
                      "geometryCrop3" : 0.0,
                      "volume" : 1.0,
                      "cursorOpacity" : 1.0,
                      "cursorScale" : 1.0
                    },
                    "medias" : [
                        {
                          "id" : 149,
                          "_type" : "UnifiedMedia",
                          "video" : 
                              {
                                "id" : 150,
                                "_type" : "VMFile",
                                "src" : 27,
                                "trackNumber" : 0,
                                "attributes" : {
                                  "ident" : "Aufn. 06-17-20_018"
                                },
                                "parameters" : {
                                  "sourceCrop0" : 0.0,
                                  "sourceCrop1" : 0.0,
                                  "sourceCrop2" : 0.0,
                                  "sourceCrop3" : 0.0,
                                  "geometryCrop0" : 0.0,
                                  "geometryCrop1" : 0.0,
                                  "geometryCrop2" : 0.0,
                                  "geometryCrop3" : 0.0
                                },
                                "effects" : [

                                ],
                                "start" : 0,
                                "duration" : 404,
                                "mediaStart" : 0,
                                "mediaDuration" : 404,
                                "scalar" : 1,
                                "animationTracks" : {

                                }
                              },
                          "audio" : 
                              {
                                "id" : 151,
                                "_type" : "AMFile",
                                "src" : 27,
                                "trackNumber" : 1,
                                "attributes" : {
                                  "ident" : "",
                                  "gain" : 1.0,
                                  "mixToMono" : false
                                },
                                  "channelNumber" : "0,1",
                                "effects" : [

                                ],
                                "start" : 0,
                                "duration" : 404,
                                "mediaStart" : 0,
                                "mediaDuration" : 404,
                                "scalar" : 1,
                                "animationTracks" : {

                                }
                              }
,
                          "start" : 0,
                          "duration" : 404,
                          "mediaStart" : 0,
                          "mediaDuration" : 555,
                          "scalar" : 1,
                          "metadata" : {
                            "clipSpeedAttribute" : false
                          }
                        },
                        {
                          "id" : 152,
                          "_type" : "UnifiedMedia",
                          "video" : 
                              {
                                "id" : 153,
                                "_type" : "VMFile",
                                "src" : 27,
                                "trackNumber" : 0,
                                "attributes" : {
                                  "ident" : "Aufn. 06-17-20_018"
                                },
                                "parameters" : {
                                  "sourceCrop0" : 0.0,
                                  "sourceCrop1" : 0.0,
                                  "sourceCrop2" : 0.0,
                                  "sourceCrop3" : 0.0,
                                  "geometryCrop0" : 0.0,
                                  "geometryCrop1" : 0.0,
                                  "geometryCrop2" : 0.0,
                                  "geometryCrop3" : 0.0
                                },
                                "effects" : [

                                ],
                                "start" : 404,
                                "duration" : 124,
                                "mediaStart" : 431,
                                "mediaDuration" : 124,
                                "scalar" : 1,
                                "animationTracks" : {

                                }
                              },
                          "audio" : 
                              {
                                "id" : 154,
                                "_type" : "AMFile",
                                "src" : 27,
                                "trackNumber" : 1,
                                "attributes" : {
                                  "ident" : "",
                                  "gain" : 1.0,
                                  "mixToMono" : false
                                },
                                  "channelNumber" : "0,1",
                                "effects" : [

                                ],
                                "start" : 404,
                                "duration" : 124,
                                "mediaStart" : 431,
                                "mediaDuration" : 124,
                                "scalar" : 1,
                                "animationTracks" : {

                                }
                              }
,
                          "start" : 404,
                          "duration" : 124,
                          "mediaStart" : 0,
                          "mediaDuration" : 555,
                          "scalar" : 1,
                          "metadata" : {
                            "clipSpeedAttribute" : false
                          }
                        }
                    ],
                    "effects" : [

                    ],
                    "start" : 3944,
                    "duration" : 509,
                    "mediaStart" : 0,
                    "mediaDuration" : 509,
                    "scalar" : 1,
                    "metadata" : {
                      "clipSpeedAttribute" : false,
                      "default-scale0" : 1.0,
                      "default-scale1" : 1.0,
                      "default-translation0" : 0.0,
                      "default-translation1" : 0.0
                    },
                    "animationTracks" : {

                    }
                  },
                  {
                    "id" : 155,
                    "_type" : "UnifiedMedia",
                    "video" : 
                        {
                          "id" : 156,
                          "_type" : "VMFile",
                          "src" : 28,
                          "trackNumber" : 0,
                          "attributes" : {
                            "ident" : "Aufn. 06-17-20_019"
                          },
                          "parameters" : {
                            "translation0" : {
                              "type" : "double",
                              "defaultValue" : 709.666666666592,
                              "keyframes" : [
                                {
                                  "endTime" : 678,
                                  "time" : 648,
                                  "value" : 1642.04419235658,
                                  "duration" : 30
                                },
                                {
                                  "endTime" : 1015,
                                  "time" : 985,
                                  "value" : 709.66669605861,
                                  "duration" : 30
                                }
                              ]
                            },
                            "translation1" : {
                              "type" : "double",
                              "defaultValue" : -388.812499999753,
                              "keyframes" : [
                                {
                                  "endTime" : 678,
                                  "time" : 648,
                                  "value" : 28.2225659438458,
                                  "duration" : 30
                                },
                                {
                                  "endTime" : 1015,
                                  "time" : 985,
                                  "value" : -388.812510399229,
                                  "duration" : 30
                                }
                              ]
                            },
                            "scale0" : {
                              "type" : "double",
                              "defaultValue" : 0.217013888888969,
                              "keyframes" : [
                                {
                                  "endTime" : 678,
                                  "time" : 648,
                                  "value" : 0.526459083912489,
                                  "duration" : 30
                                },
                                {
                                  "endTime" : 1015,
                                  "time" : 985,
                                  "value" : 0.217013883716878,
                                  "duration" : 30
                                }
                              ]
                            },
                            "scale1" : {
                              "type" : "double",
                              "defaultValue" : 0.217013888888969,
                              "keyframes" : [
                                {
                                  "endTime" : 678,
                                  "time" : 648,
                                  "value" : 0.526459245949468,
                                  "duration" : 30
                                },
                                {
                                  "endTime" : 1015,
                                  "time" : 985,
                                  "value" : 0.217013914899986,
                                  "duration" : 30
                                }
                              ]
                            },
                            "sourceCrop0" : 0.0,
                            "sourceCrop1" : 0.0,
                            "sourceCrop2" : 0.0,
                            "sourceCrop3" : 0.0,
                            "geometryCrop0" : 0.0,
                            "geometryCrop1" : 0.0,
                            "geometryCrop2" : 0.0,
                            "geometryCrop3" : 0.0
                          },
                          "effects" : [

                          ],
                          "start" : 4453,
                          "duration" : 1065,
                          "mediaStart" : 0,
                          "mediaDuration" : 1065,
                          "scalar" : 1,
                          "animationTracks" : {
                            "visual" : [
                              {
                                "endTime" : 678,
                                "duration" : 30,
                                "range" : [ 648, 30]
                              },
                              {
                                "endTime" : 1015,
                                "duration" : 30,
                                "range" : [ 985, 30]
                              }
                            ]
                          }
                        },
                    "audio" : 
                        {
                          "id" : 157,
                          "_type" : "AMFile",
                          "src" : 28,
                          "trackNumber" : 1,
                          "attributes" : {
                            "ident" : "",
                            "gain" : 1.0,
                            "mixToMono" : false
                          },
                            "channelNumber" : "0,1",
                          "effects" : [

                          ],
                          "start" : 4453,
                          "duration" : 1065,
                          "mediaStart" : 0,
                          "mediaDuration" : 1065,
                          "scalar" : 1,
                          "animationTracks" : {

                          }
                        }
,
                    "start" : 4453,
                    "duration" : 1065,
                    "mediaStart" : 0,
                    "mediaDuration" : 1065,
                    "scalar" : 1,
                    "metadata" : {
                      "clipSpeedAttribute" : false,
                      "default-scale0" : 1.0,
                      "default-scale1" : 1.0,
                      "default-translation0" : 0.0,
                      "default-translation1" : 0.0
                    }
                  },
                  {
                    "id" : 158,
                    "_type" : "StitchedMedia",
                    "minMediaStart" : 0,
                    "attributes" : {
                      "ident" : "Aufn. 06-17-20_021",
                      "gain" : 1.0,
                      "mixToMono" : false
                    },
                    "parameters" : {
                      "translation0" : 709.666666666592,
                      "translation1" : -388.812499999753,
                      "scale0" : 0.217013888888969,
                      "scale1" : 0.217013888888969,
                      "sourceCrop0" : 0.0,
                      "sourceCrop1" : 0.0,
                      "sourceCrop2" : 0.0,
                      "sourceCrop3" : 0.0,
                      "geometryCrop0" : 0.0,
                      "geometryCrop1" : 0.0,
                      "geometryCrop2" : 0.0,
                      "geometryCrop3" : 0.0,
                      "volume" : 1.0,
                      "cursorOpacity" : 1.0,
                      "cursorScale" : 1.0
                    },
                    "medias" : [
                        {
                          "id" : 159,
                          "_type" : "UnifiedMedia",
                          "video" : 
                              {
                                "id" : 160,
                                "_type" : "VMFile",
                                "src" : 30,
                                "trackNumber" : 0,
                                "attributes" : {
                                  "ident" : "Aufn. 06-17-20_021"
                                },
                                "parameters" : {
                                  "sourceCrop0" : 0.0,
                                  "sourceCrop1" : 0.0,
                                  "sourceCrop2" : 0.0,
                                  "sourceCrop3" : 0.0,
                                  "geometryCrop0" : 0.0,
                                  "geometryCrop1" : 0.0,
                                  "geometryCrop2" : 0.0,
                                  "geometryCrop3" : 0.0
                                },
                                "effects" : [

                                ],
                                "start" : 0,
                                "duration" : 706,
                                "mediaStart" : 0,
                                "mediaDuration" : 706,
                                "scalar" : 1,
                                "animationTracks" : {

                                }
                              },
                          "audio" : 
                              {
                                "id" : 161,
                                "_type" : "AMFile",
                                "src" : 30,
                                "trackNumber" : 1,
                                "attributes" : {
                                  "ident" : "",
                                  "gain" : 1.0,
                                  "mixToMono" : false
                                },
                                  "channelNumber" : "0,1",
                                "effects" : [

                                ],
                                "start" : 0,
                                "duration" : 706,
                                "mediaStart" : 0,
                                "mediaDuration" : 706,
                                "scalar" : 1,
                                "animationTracks" : {

                                }
                              }
,
                          "start" : 0,
                          "duration" : 706,
                          "mediaStart" : 0,
                          "mediaDuration" : 1424,
                          "scalar" : 1,
                          "metadata" : {
                            "clipSpeedAttribute" : false,
                            "default-scale0" : 1.0,
                            "default-scale1" : 1.0,
                            "default-translation0" : 0.0,
                            "default-translation1" : 0.0
                          }
                        },
                        {
                          "id" : 162,
                          "_type" : "UnifiedMedia",
                          "video" : 
                              {
                                "id" : 163,
                                "_type" : "VMFile",
                                "src" : 30,
                                "trackNumber" : 0,
                                "attributes" : {
                                  "ident" : "Aufn. 06-17-20_021"
                                },
                                "parameters" : {
                                  "sourceCrop0" : 0.0,
                                  "sourceCrop1" : 0.0,
                                  "sourceCrop2" : 0.0,
                                  "sourceCrop3" : 0.0,
                                  "geometryCrop0" : 0.0,
                                  "geometryCrop1" : 0.0,
                                  "geometryCrop2" : 0.0,
                                  "geometryCrop3" : 0.0
                                },
                                "effects" : [

                                ],
                                "start" : 706,
                                "duration" : 214,
                                "mediaStart" : 780,
                                "mediaDuration" : 214,
                                "scalar" : 1,
                                "animationTracks" : {

                                }
                              },
                          "audio" : 
                              {
                                "id" : 164,
                                "_type" : "AMFile",
                                "src" : 30,
                                "trackNumber" : 1,
                                "attributes" : {
                                  "ident" : "",
                                  "gain" : 1.0,
                                  "mixToMono" : false
                                },
                                  "channelNumber" : "0,1",
                                "effects" : [

                                ],
                                "start" : 706,
                                "duration" : 214,
                                "mediaStart" : 780,
                                "mediaDuration" : 214,
                                "scalar" : 1,
                                "animationTracks" : {

                                }
                              }
,
                          "start" : 706,
                          "duration" : 214,
                          "mediaStart" : 0,
                          "mediaDuration" : 1424,
                          "scalar" : 1,
                          "metadata" : {
                            "clipSpeedAttribute" : false,
                            "default-scale0" : 1.0,
                            "default-scale1" : 1.0,
                            "default-translation0" : 0.0,
                            "default-translation1" : 0.0
                          }
                        },
                        {
                          "id" : 165,
                          "_type" : "UnifiedMedia",
                          "video" : 
                              {
                                "id" : 166,
                                "_type" : "VMFile",
                                "src" : 30,
                                "trackNumber" : 0,
                                "attributes" : {
                                  "ident" : "Aufn. 06-17-20_021"
                                },
                                "parameters" : {
                                  "sourceCrop0" : 0.0,
                                  "sourceCrop1" : 0.0,
                                  "sourceCrop2" : 0.0,
                                  "sourceCrop3" : 0.0,
                                  "geometryCrop0" : 0.0,
                                  "geometryCrop1" : 0.0,
                                  "geometryCrop2" : 0.0,
                                  "geometryCrop3" : 0.0
                                },
                                "effects" : [

                                ],
                                "start" : 920,
                                "duration" : 386,
                                "mediaStart" : 1038,
                                "mediaDuration" : 386,
                                "scalar" : 1,
                                "animationTracks" : {

                                }
                              },
                          "audio" : 
                              {
                                "id" : 167,
                                "_type" : "AMFile",
                                "src" : 30,
                                "trackNumber" : 1,
                                "attributes" : {
                                  "ident" : "",
                                  "gain" : 1.0,
                                  "mixToMono" : false
                                },
                                  "channelNumber" : "0,1",
                                "effects" : [

                                ],
                                "start" : 920,
                                "duration" : 386,
                                "mediaStart" : 1038,
                                "mediaDuration" : 386,
                                "scalar" : 1,
                                "animationTracks" : {

                                }
                              }
,
                          "start" : 920,
                          "duration" : 386,
                          "mediaStart" : 0,
                          "mediaDuration" : 1424,
                          "scalar" : 1,
                          "metadata" : {
                            "clipSpeedAttribute" : false,
                            "default-scale0" : 1.0,
                            "default-scale1" : 1.0,
                            "default-translation0" : 0.0,
                            "default-translation1" : 0.0
                          }
                        }
                    ],
                    "effects" : [

                    ],
                    "start" : 5518,
                    "duration" : 1306,
                    "mediaStart" : 0,
                    "mediaDuration" : 1306,
                    "scalar" : 1,
                    "metadata" : {
                      "clipSpeedAttribute" : false
                    },
                    "animationTracks" : {

                    }
                  },
                  {
                    "id" : 168,
                    "_type" : "StitchedMedia",
                    "minMediaStart" : 0,
                    "attributes" : {
                      "ident" : "Aufn. 06-17-20_022",
                      "gain" : 1.0,
                      "mixToMono" : false
                    },
                    "parameters" : {
                      "translation0" : 709.666666666592,
                      "translation1" : -388.812499999753,
                      "scale0" : 0.217013888888969,
                      "scale1" : 0.217013888888969,
                      "sourceCrop0" : 0.0,
                      "sourceCrop1" : 0.0,
                      "sourceCrop2" : 0.0,
                      "sourceCrop3" : 0.0,
                      "geometryCrop0" : 0.0,
                      "geometryCrop1" : 0.0,
                      "geometryCrop2" : 0.0,
                      "geometryCrop3" : 0.0,
                      "volume" : 1.0,
                      "cursorOpacity" : 1.0,
                      "cursorScale" : 1.0
                    },
                    "medias" : [
                        {
                          "id" : 169,
                          "_type" : "UnifiedMedia",
                          "video" : 
                              {
                                "id" : 170,
                                "_type" : "VMFile",
                                "src" : 31,
                                "trackNumber" : 0,
                                "attributes" : {
                                  "ident" : "Aufn. 06-17-20_022"
                                },
                                "parameters" : {
                                  "sourceCrop0" : 0.0,
                                  "sourceCrop1" : 0.0,
                                  "sourceCrop2" : 0.0,
                                  "sourceCrop3" : 0.0,
                                  "geometryCrop0" : 0.0,
                                  "geometryCrop1" : 0.0,
                                  "geometryCrop2" : 0.0,
                                  "geometryCrop3" : 0.0
                                },
                                "effects" : [

                                ],
                                "start" : 0,
                                "duration" : 809,
                                "mediaStart" : 0,
                                "mediaDuration" : 809,
                                "scalar" : 1,
                                "animationTracks" : {

                                }
                              },
                          "audio" : 
                              {
                                "id" : 171,
                                "_type" : "AMFile",
                                "src" : 31,
                                "trackNumber" : 1,
                                "attributes" : {
                                  "ident" : "",
                                  "gain" : 1.0,
                                  "mixToMono" : false
                                },
                                  "channelNumber" : "0,1",
                                "effects" : [

                                ],
                                "start" : 0,
                                "duration" : 809,
                                "mediaStart" : 0,
                                "mediaDuration" : 809,
                                "scalar" : 1,
                                "animationTracks" : {

                                }
                              }
,
                          "start" : 0,
                          "duration" : 809,
                          "mediaStart" : 0,
                          "mediaDuration" : 1520,
                          "scalar" : 1,
                          "metadata" : {
                            "clipSpeedAttribute" : false,
                            "default-scale0" : 1.0,
                            "default-scale1" : 1.0,
                            "default-translation0" : 0.0,
                            "default-translation1" : 0.0
                          }
                        },
                        {
                          "id" : 172,
                          "_type" : "UnifiedMedia",
                          "video" : 
                              {
                                "id" : 173,
                                "_type" : "VMFile",
                                "src" : 31,
                                "trackNumber" : 0,
                                "attributes" : {
                                  "ident" : "Aufn. 06-17-20_022"
                                },
                                "parameters" : {
                                  "sourceCrop0" : 0.0,
                                  "sourceCrop1" : 0.0,
                                  "sourceCrop2" : 0.0,
                                  "sourceCrop3" : 0.0,
                                  "geometryCrop0" : 0.0,
                                  "geometryCrop1" : 0.0,
                                  "geometryCrop2" : 0.0,
                                  "geometryCrop3" : 0.0
                                },
                                "effects" : [

                                ],
                                "start" : 809,
                                "duration" : 223,
                                "mediaStart" : 861,
                                "mediaDuration" : 223,
                                "scalar" : 1,
                                "animationTracks" : {

                                }
                              },
                          "audio" : 
                              {
                                "id" : 174,
                                "_type" : "AMFile",
                                "src" : 31,
                                "trackNumber" : 1,
                                "attributes" : {
                                  "ident" : "",
                                  "gain" : 1.0,
                                  "mixToMono" : false
                                },
                                  "channelNumber" : "0,1",
                                "effects" : [

                                ],
                                "start" : 809,
                                "duration" : 223,
                                "mediaStart" : 861,
                                "mediaDuration" : 223,
                                "scalar" : 1,
                                "animationTracks" : {

                                }
                              }
,
                          "start" : 809,
                          "duration" : 223,
                          "mediaStart" : 0,
                          "mediaDuration" : 1520,
                          "scalar" : 1,
                          "metadata" : {
                            "clipSpeedAttribute" : false,
                            "default-scale0" : 1.0,
                            "default-scale1" : 1.0,
                            "default-translation0" : 0.0,
                            "default-translation1" : 0.0
                          }
                        },
                        {
                          "id" : 175,
                          "_type" : "UnifiedMedia",
                          "video" : 
                              {
                                "id" : 176,
                                "_type" : "VMFile",
                                "src" : 31,
                                "trackNumber" : 0,
                                "attributes" : {
                                  "ident" : "Aufn. 06-17-20_022"
                                },
                                "parameters" : {
                                  "sourceCrop0" : 0.0,
                                  "sourceCrop1" : 0.0,
                                  "sourceCrop2" : 0.0,
                                  "sourceCrop3" : 0.0,
                                  "geometryCrop0" : 0.0,
                                  "geometryCrop1" : 0.0,
                                  "geometryCrop2" : 0.0,
                                  "geometryCrop3" : 0.0
                                },
                                "effects" : [

                                ],
                                "start" : 1032,
                                "duration" : 391,
                                "mediaStart" : 1129,
                                "mediaDuration" : 391,
                                "scalar" : 1,
                                "animationTracks" : {

                                }
                              },
                          "audio" : 
                              {
                                "id" : 177,
                                "_type" : "AMFile",
                                "src" : 31,
                                "trackNumber" : 1,
                                "attributes" : {
                                  "ident" : "",
                                  "gain" : 1.0,
                                  "mixToMono" : false
                                },
                                  "channelNumber" : "0,1",
                                "effects" : [

                                ],
                                "start" : 1032,
                                "duration" : 391,
                                "mediaStart" : 1129,
                                "mediaDuration" : 391,
                                "scalar" : 1,
                                "animationTracks" : {

                                }
                              }
,
                          "start" : 1032,
                          "duration" : 391,
                          "mediaStart" : 0,
                          "mediaDuration" : 1520,
                          "scalar" : 1,
                          "metadata" : {
                            "clipSpeedAttribute" : false,
                            "default-scale0" : 1.0,
                            "default-scale1" : 1.0,
                            "default-translation0" : 0.0,
                            "default-translation1" : 0.0
                          }
                        }
                    ],
                    "effects" : [

                    ],
                    "start" : 6824,
                    "duration" : 1423,
                    "mediaStart" : 0,
                    "mediaDuration" : 1423,
                    "scalar" : 1,
                    "metadata" : {
                      "clipSpeedAttribute" : false
                    },
                    "animationTracks" : {

                    }
                  },
                  {
                    "id" : 178,
                    "_type" : "StitchedMedia",
                    "minMediaStart" : 0,
                    "attributes" : {
                      "ident" : "Aufn. 06-17-20_024",
                      "gain" : 1.0,
                      "mixToMono" : false
                    },
                    "parameters" : {
                      "translation0" : 709.666666666592,
                      "translation1" : -388.812499999753,
                      "scale0" : 0.217013888888969,
                      "scale1" : 0.217013888888969,
                      "sourceCrop0" : 0.0,
                      "sourceCrop1" : 0.0,
                      "sourceCrop2" : 0.0,
                      "sourceCrop3" : 0.0,
                      "geometryCrop0" : 0.0,
                      "geometryCrop1" : 0.0,
                      "geometryCrop2" : 0.0,
                      "geometryCrop3" : 0.0,
                      "volume" : 1.0,
                      "cursorOpacity" : 1.0,
                      "cursorScale" : 1.0
                    },
                    "medias" : [
                        {
                          "id" : 179,
                          "_type" : "UnifiedMedia",
                          "video" : 
                              {
                                "id" : 180,
                                "_type" : "VMFile",
                                "src" : 33,
                                "trackNumber" : 0,
                                "attributes" : {
                                  "ident" : "Aufn. 06-17-20_024"
                                },
                                "parameters" : {
                                  "sourceCrop0" : 0.0,
                                  "sourceCrop1" : 0.0,
                                  "sourceCrop2" : 0.0,
                                  "sourceCrop3" : 0.0,
                                  "geometryCrop0" : 0.0,
                                  "geometryCrop1" : 0.0,
                                  "geometryCrop2" : 0.0,
                                  "geometryCrop3" : 0.0
                                },
                                "effects" : [

                                ],
                                "start" : 0,
                                "duration" : 648,
                                "mediaStart" : 0,
                                "mediaDuration" : 648,
                                "scalar" : 1,
                                "animationTracks" : {

                                }
                              },
                          "audio" : 
                              {
                                "id" : 181,
                                "_type" : "AMFile",
                                "src" : 33,
                                "trackNumber" : 1,
                                "attributes" : {
                                  "ident" : "",
                                  "gain" : 1.0,
                                  "mixToMono" : false
                                },
                                  "channelNumber" : "0,1",
                                "effects" : [

                                ],
                                "start" : 0,
                                "duration" : 648,
                                "mediaStart" : 0,
                                "mediaDuration" : 648,
                                "scalar" : 1,
                                "animationTracks" : {

                                }
                              }
,
                          "start" : 0,
                          "duration" : 648,
                          "mediaStart" : 0,
                          "mediaDuration" : 1087,
                          "scalar" : 1,
                          "metadata" : {
                            "clipSpeedAttribute" : false,
                            "default-scale0" : 1.0,
                            "default-scale1" : 1.0,
                            "default-translation0" : 0.0,
                            "default-translation1" : 0.0
                          }
                        },
                        {
                          "id" : 182,
                          "_type" : "UnifiedMedia",
                          "video" : 
                              {
                                "id" : 183,
                                "_type" : "VMFile",
                                "src" : 33,
                                "trackNumber" : 0,
                                "attributes" : {
                                  "ident" : "Aufn. 06-17-20_024"
                                },
                                "parameters" : {
                                  "sourceCrop0" : 0.0,
                                  "sourceCrop1" : 0.0,
                                  "sourceCrop2" : 0.0,
                                  "sourceCrop3" : 0.0,
                                  "geometryCrop0" : 0.0,
                                  "geometryCrop1" : 0.0,
                                  "geometryCrop2" : 0.0,
                                  "geometryCrop3" : 0.0
                                },
                                "effects" : [

                                ],
                                "start" : 648,
                                "duration" : 401,
                                "mediaStart" : 686,
                                "mediaDuration" : 401,
                                "scalar" : 1,
                                "animationTracks" : {

                                }
                              },
                          "audio" : 
                              {
                                "id" : 184,
                                "_type" : "AMFile",
                                "src" : 33,
                                "trackNumber" : 1,
                                "attributes" : {
                                  "ident" : "",
                                  "gain" : 1.0,
                                  "mixToMono" : false
                                },
                                  "channelNumber" : "0,1",
                                "effects" : [

                                ],
                                "start" : 648,
                                "duration" : 401,
                                "mediaStart" : 686,
                                "mediaDuration" : 401,
                                "scalar" : 1,
                                "animationTracks" : {

                                }
                              }
,
                          "start" : 648,
                          "duration" : 401,
                          "mediaStart" : 0,
                          "mediaDuration" : 1087,
                          "scalar" : 1,
                          "metadata" : {
                            "clipSpeedAttribute" : false,
                            "default-scale0" : 1.0,
                            "default-scale1" : 1.0,
                            "default-translation0" : 0.0,
                            "default-translation1" : 0.0
                          }
                        }
                    ],
                    "effects" : [

                    ],
                    "start" : 8247,
                    "duration" : 1007,
                    "mediaStart" : 0,
                    "mediaDuration" : 1007,
                    "scalar" : 1,
                    "metadata" : {
                      "clipSpeedAttribute" : false
                    },
                    "animationTracks" : {

                    }
                  },
                  {
                    "id" : 185,
                    "_type" : "UnifiedMedia",
                    "video" : 
                        {
                          "id" : 186,
                          "_type" : "VMFile",
                          "src" : 34,
                          "trackNumber" : 0,
                          "attributes" : {
                            "ident" : "Aufn. 06-17-20_025"
                          },
                          "parameters" : {
                            "translation0" : {
                              "type" : "double",
                              "defaultValue" : 709.666666666592,
                              "keyframes" : [
                                {
                                  "endTime" : 461,
                                  "time" : 431,
                                  "value" : 2062.24282905987,
                                  "duration" : 30
                                },
                                {
                                  "endTime" : 1071,
                                  "time" : 1041,
                                  "value" : 709.666542210854,
                                  "duration" : 30
                                }
                              ]
                            },
                            "translation1" : {
                              "type" : "double",
                              "defaultValue" : -388.812499999753,
                              "keyframes" : [
                                {
                                  "endTime" : 461,
                                  "time" : 431,
                                  "value" : -688.735458465292,
                                  "duration" : 30
                                },
                                {
                                  "endTime" : 1071,
                                  "time" : 1041,
                                  "value" : -388.812517907082,
                                  "duration" : 30
                                }
                              ]
                            },
                            "scale0" : {
                              "type" : "double",
                              "defaultValue" : 0.217013888888969,
                              "keyframes" : [
                                {
                                  "endTime" : 461,
                                  "time" : 431,
                                  "value" : 0.418458489207532,
                                  "duration" : 30
                                },
                                {
                                  "endTime" : 1071,
                                  "time" : 1041,
                                  "value" : 0.217013887663671,
                                  "duration" : 30
                                }
                              ]
                            },
                            "scale1" : {
                              "type" : "double",
                              "defaultValue" : 0.217013888888969,
                              "keyframes" : [
                                {
                                  "endTime" : 461,
                                  "time" : 431,
                                  "value" : 0.418458496536305,
                                  "duration" : 30
                                },
                                {
                                  "endTime" : 1071,
                                  "time" : 1041,
                                  "value" : 0.217013907735426,
                                  "duration" : 30
                                }
                              ]
                            },
                            "sourceCrop0" : 0.0,
                            "sourceCrop1" : 0.0,
                            "sourceCrop2" : 0.0,
                            "sourceCrop3" : 0.0,
                            "geometryCrop0" : 0.0,
                            "geometryCrop1" : 0.0,
                            "geometryCrop2" : 0.0,
                            "geometryCrop3" : 0.0
                          },
                          "effects" : [

                          ],
                          "start" : 9254,
                          "duration" : 1096,
                          "mediaStart" : 0,
                          "mediaDuration" : 1096,
                          "scalar" : 1,
                          "animationTracks" : {
                            "visual" : [
                              {
                                "endTime" : 461,
                                "duration" : 30,
                                "range" : [ 431, 30]
                              },
                              {
                                "endTime" : 1071,
                                "duration" : 30,
                                "range" : [ 1041, 30]
                              }
                            ]
                          }
                        },
                    "audio" : 
                        {
                          "id" : 187,
                          "_type" : "AMFile",
                          "src" : 34,
                          "trackNumber" : 1,
                          "attributes" : {
                            "ident" : "",
                            "gain" : 1.0,
                            "mixToMono" : false
                          },
                            "channelNumber" : "0,1",
                          "effects" : [

                          ],
                          "start" : 9254,
                          "duration" : 1096,
                          "mediaStart" : 0,
                          "mediaDuration" : 1096,
                          "scalar" : 1,
                          "animationTracks" : {

                          }
                        }
,
                    "start" : 9254,
                    "duration" : 1096,
                    "mediaStart" : 0,
                    "mediaDuration" : 1096,
                    "scalar" : 1,
                    "metadata" : {
                      "clipSpeedAttribute" : false,
                      "default-scale0" : 1.0,
                      "default-scale1" : 1.0,
                      "default-translation0" : 0.0,
                      "default-translation1" : 0.0
                    }
                  },
                  {
                    "id" : 188,
                    "_type" : "UnifiedMedia",
                    "video" : 
                        {
                          "id" : 189,
                          "_type" : "VMFile",
                          "src" : 36,
                          "trackNumber" : 0,
                          "attributes" : {
                            "ident" : "Aufn. 06-17-20_027"
                          },
                          "parameters" : {
                            "translation0" : {
                              "type" : "double",
                              "defaultValue" : 709.666666666592,
                              "keyframes" : [
                                {
                                  "endTime" : 63,
                                  "time" : 33,
                                  "value" : 442.739813843727,
                                  "duration" : 30
                                }
                              ]
                            },
                            "translation1" : {
                              "type" : "double",
                              "defaultValue" : -388.812499999753,
                              "keyframes" : [
                                {
                                  "endTime" : 63,
                                  "time" : 33,
                                  "value" : -927.128804788469,
                                  "duration" : 30
                                }
                              ]
                            },
                            "scale0" : {
                              "type" : "double",
                              "defaultValue" : 0.217013888888969,
                              "keyframes" : [
                                {
                                  "endTime" : 63,
                                  "time" : 33,
                                  "value" : 0.541172705262452,
                                  "duration" : 30
                                }
                              ]
                            },
                            "scale1" : {
                              "type" : "double",
                              "defaultValue" : 0.217013888888969,
                              "keyframes" : [
                                {
                                  "endTime" : 63,
                                  "time" : 33,
                                  "value" : 0.541172732471209,
                                  "duration" : 30
                                }
                              ]
                            },
                            "sourceCrop0" : 0.0,
                            "sourceCrop1" : 0.0,
                            "sourceCrop2" : 0.0,
                            "sourceCrop3" : 0.0,
                            "geometryCrop0" : 0.0,
                            "geometryCrop1" : 0.0,
                            "geometryCrop2" : 0.0,
                            "geometryCrop3" : 0.0
                          },
                          "effects" : [

                          ],
                          "start" : 10350,
                          "duration" : 868,
                          "mediaStart" : 0,
                          "mediaDuration" : 868,
                          "scalar" : 1,
                          "animationTracks" : {
                            "visual" : [
                              {
                                "endTime" : 63,
                                "duration" : 30,
                                "range" : [ 33, 30]
                              }
                            ]
                          }
                        },
                    "audio" : 
                        {
                          "id" : 190,
                          "_type" : "AMFile",
                          "src" : 36,
                          "trackNumber" : 1,
                          "attributes" : {
                            "ident" : "",
                            "gain" : 1.0,
                            "mixToMono" : false
                          },
                            "channelNumber" : "0,1",
                          "effects" : [

                          ],
                          "start" : 10350,
                          "duration" : 868,
                          "mediaStart" : 0,
                          "mediaDuration" : 868,
                          "scalar" : 1,
                          "animationTracks" : {

                          }
                        }
,
                    "start" : 10350,
                    "duration" : 868,
                    "mediaStart" : 0,
                    "mediaDuration" : 906,
                    "scalar" : 1,
                    "metadata" : {
                      "clipSpeedAttribute" : false,
                      "default-scale0" : 1.0,
                      "default-scale1" : 1.0,
                      "default-translation0" : 0.0,
                      "default-translation1" : 0.0
                    }
                  },
                  {
                    "id" : 191,
                    "_type" : "UnifiedMedia",
                    "video" : 
                        {
                          "id" : 192,
                          "_type" : "VMFile",
                          "src" : 37,
                          "trackNumber" : 0,
                          "attributes" : {
                            "ident" : "Aufn. 06-17-20_028"
                          },
                          "parameters" : {
                            "translation0" : 709.666666666592,
                            "translation1" : -388.812499999753,
                            "scale0" : 0.217013888888969,
                            "scale1" : 0.217013888888969,
                            "sourceCrop0" : 0.0,
                            "sourceCrop1" : 0.0,
                            "sourceCrop2" : 0.0,
                            "sourceCrop3" : 0.0,
                            "geometryCrop0" : 0.0,
                            "geometryCrop1" : 0.0,
                            "geometryCrop2" : 0.0,
                            "geometryCrop3" : 0.0
                          },
                          "effects" : [

                          ],
                          "start" : 11218,
                          "duration" : 875,
                          "mediaStart" : 0,
                          "mediaDuration" : 875,
                          "scalar" : 1,
                          "animationTracks" : {

                          }
                        },
                    "audio" : 
                        {
                          "id" : 193,
                          "_type" : "AMFile",
                          "src" : 37,
                          "trackNumber" : 1,
                          "attributes" : {
                            "ident" : "",
                            "gain" : 1.0,
                            "mixToMono" : false
                          },
                            "channelNumber" : "0,1",
                          "effects" : [

                          ],
                          "start" : 11218,
                          "duration" : 875,
                          "mediaStart" : 0,
                          "mediaDuration" : 875,
                          "scalar" : 1,
                          "animationTracks" : {

                          }
                        }
,
                    "start" : 11218,
                    "duration" : 875,
                    "mediaStart" : 0,
                    "mediaDuration" : 875,
                    "scalar" : 1,
                    "metadata" : {
                      "clipSpeedAttribute" : false,
                      "default-scale0" : 1.0,
                      "default-scale1" : 1.0,
                      "default-translation0" : 0.0,
                      "default-translation1" : 0.0
                    }
                  },
                  {
                    "id" : 194,
                    "_type" : "StitchedMedia",
                    "minMediaStart" : 0,
                    "attributes" : {
                      "ident" : "Aufn. 06-17-20_029",
                      "gain" : 1.0,
                      "mixToMono" : false
                    },
                    "parameters" : {
                      "translation0" : 709.666666666592,
                      "translation1" : -388.812499999753,
                      "scale0" : 0.217013888888969,
                      "scale1" : 0.217013888888969,
                      "sourceCrop0" : 0.0,
                      "sourceCrop1" : 0.0,
                      "sourceCrop2" : 0.0,
                      "sourceCrop3" : 0.0,
                      "geometryCrop0" : 0.0,
                      "geometryCrop1" : 0.0,
                      "geometryCrop2" : 0.0,
                      "geometryCrop3" : 0.0,
                      "volume" : 1.0,
                      "cursorOpacity" : 1.0,
                      "cursorScale" : 1.0
                    },
                    "medias" : [
                        {
                          "id" : 195,
                          "_type" : "UnifiedMedia",
                          "video" : 
                              {
                                "id" : 196,
                                "_type" : "VMFile",
                                "src" : 38,
                                "trackNumber" : 0,
                                "attributes" : {
                                  "ident" : "Aufn. 06-17-20_029"
                                },
                                "parameters" : {
                                  "sourceCrop0" : 0.0,
                                  "sourceCrop1" : 0.0,
                                  "sourceCrop2" : 0.0,
                                  "sourceCrop3" : 0.0,
                                  "geometryCrop0" : 0.0,
                                  "geometryCrop1" : 0.0,
                                  "geometryCrop2" : 0.0,
                                  "geometryCrop3" : 0.0
                                },
                                "effects" : [

                                ],
                                "start" : 0,
                                "duration" : 804,
                                "mediaStart" : 0,
                                "mediaDuration" : 804,
                                "scalar" : 1,
                                "animationTracks" : {

                                }
                              },
                          "audio" : 
                              {
                                "id" : 197,
                                "_type" : "AMFile",
                                "src" : 38,
                                "trackNumber" : 1,
                                "attributes" : {
                                  "ident" : "",
                                  "gain" : 1.0,
                                  "mixToMono" : false
                                },
                                  "channelNumber" : "0,1",
                                "effects" : [

                                ],
                                "start" : 0,
                                "duration" : 804,
                                "mediaStart" : 0,
                                "mediaDuration" : 804,
                                "scalar" : 1,
                                "animationTracks" : {

                                }
                              }
,
                          "start" : 0,
                          "duration" : 804,
                          "mediaStart" : 0,
                          "mediaDuration" : 1671,
                          "scalar" : 1,
                          "metadata" : {
                            "clipSpeedAttribute" : false,
                            "default-scale0" : 1.0,
                            "default-scale1" : 1.0,
                            "default-translation0" : 0.0,
                            "default-translation1" : 0.0
                          }
                        },
                        {
                          "id" : 198,
                          "_type" : "UnifiedMedia",
                          "video" : 
                              {
                                "id" : 199,
                                "_type" : "VMFile",
                                "src" : 38,
                                "trackNumber" : 0,
                                "attributes" : {
                                  "ident" : "Aufn. 06-17-20_029"
                                },
                                "parameters" : {
                                  "sourceCrop0" : 0.0,
                                  "sourceCrop1" : 0.0,
                                  "sourceCrop2" : 0.0,
                                  "sourceCrop3" : 0.0,
                                  "geometryCrop0" : 0.0,
                                  "geometryCrop1" : 0.0,
                                  "geometryCrop2" : 0.0,
                                  "geometryCrop3" : 0.0
                                },
                                "effects" : [

                                ],
                                "start" : 804,
                                "duration" : 122,
                                "mediaStart" : 820,
                                "mediaDuration" : 122,
                                "scalar" : 1,
                                "animationTracks" : {

                                }
                              },
                          "audio" : 
                              {
                                "id" : 200,
                                "_type" : "AMFile",
                                "src" : 38,
                                "trackNumber" : 1,
                                "attributes" : {
                                  "ident" : "",
                                  "gain" : 1.0,
                                  "mixToMono" : false
                                },
                                  "channelNumber" : "0,1",
                                "effects" : [

                                ],
                                "start" : 804,
                                "duration" : 122,
                                "mediaStart" : 820,
                                "mediaDuration" : 122,
                                "scalar" : 1,
                                "animationTracks" : {

                                }
                              }
,
                          "start" : 804,
                          "duration" : 122,
                          "mediaStart" : 0,
                          "mediaDuration" : 1671,
                          "scalar" : 1,
                          "metadata" : {
                            "clipSpeedAttribute" : false,
                            "default-scale0" : 1.0,
                            "default-scale1" : 1.0,
                            "default-translation0" : 0.0,
                            "default-translation1" : 0.0
                          }
                        },
                        {
                          "id" : 201,
                          "_type" : "UnifiedMedia",
                          "video" : 
                              {
                                "id" : 202,
                                "_type" : "VMFile",
                                "src" : 38,
                                "trackNumber" : 0,
                                "attributes" : {
                                  "ident" : "Aufn. 06-17-20_029"
                                },
                                "parameters" : {
                                  "sourceCrop0" : 0.0,
                                  "sourceCrop1" : 0.0,
                                  "sourceCrop2" : 0.0,
                                  "sourceCrop3" : 0.0,
                                  "geometryCrop0" : 0.0,
                                  "geometryCrop1" : 0.0,
                                  "geometryCrop2" : 0.0,
                                  "geometryCrop3" : 0.0
                                },
                                "effects" : [

                                ],
                                "start" : 926,
                                "duration" : 235,
                                "mediaStart" : 953,
                                "mediaDuration" : 235,
                                "scalar" : 1,
                                "animationTracks" : {

                                }
                              },
                          "audio" : 
                              {
                                "id" : 203,
                                "_type" : "AMFile",
                                "src" : 38,
                                "trackNumber" : 1,
                                "attributes" : {
                                  "ident" : "",
                                  "gain" : 1.0,
                                  "mixToMono" : false
                                },
                                  "channelNumber" : "0,1",
                                "effects" : [

                                ],
                                "start" : 926,
                                "duration" : 235,
                                "mediaStart" : 953,
                                "mediaDuration" : 235,
                                "scalar" : 1,
                                "animationTracks" : {

                                }
                              }
,
                          "start" : 926,
                          "duration" : 235,
                          "mediaStart" : 0,
                          "mediaDuration" : 1671,
                          "scalar" : 1,
                          "metadata" : {
                            "clipSpeedAttribute" : false,
                            "default-scale0" : 1.0,
                            "default-scale1" : 1.0,
                            "default-translation0" : 0.0,
                            "default-translation1" : 0.0
                          }
                        },
                        {
                          "id" : 204,
                          "_type" : "UnifiedMedia",
                          "video" : 
                              {
                                "id" : 205,
                                "_type" : "VMFile",
                                "src" : 38,
                                "trackNumber" : 0,
                                "attributes" : {
                                  "ident" : "Aufn. 06-17-20_029"
                                },
                                "parameters" : {
                                  "sourceCrop0" : 0.0,
                                  "sourceCrop1" : 0.0,
                                  "sourceCrop2" : 0.0,
                                  "sourceCrop3" : 0.0,
                                  "geometryCrop0" : 0.0,
                                  "geometryCrop1" : 0.0,
                                  "geometryCrop2" : 0.0,
                                  "geometryCrop3" : 0.0
                                },
                                "effects" : [

                                ],
                                "start" : 1161,
                                "duration" : 460,
                                "mediaStart" : 1211,
                                "mediaDuration" : 460,
                                "scalar" : 1,
                                "animationTracks" : {

                                }
                              },
                          "audio" : 
                              {
                                "id" : 206,
                                "_type" : "AMFile",
                                "src" : 38,
                                "trackNumber" : 1,
                                "attributes" : {
                                  "ident" : "",
                                  "gain" : 1.0,
                                  "mixToMono" : false
                                },
                                  "channelNumber" : "0,1",
                                "effects" : [

                                ],
                                "start" : 1161,
                                "duration" : 460,
                                "mediaStart" : 1211,
                                "mediaDuration" : 460,
                                "scalar" : 1,
                                "animationTracks" : {

                                }
                              }
,
                          "start" : 1161,
                          "duration" : 460,
                          "mediaStart" : 0,
                          "mediaDuration" : 1671,
                          "scalar" : 1,
                          "metadata" : {
                            "clipSpeedAttribute" : false,
                            "default-scale0" : 1.0,
                            "default-scale1" : 1.0,
                            "default-translation0" : 0.0,
                            "default-translation1" : 0.0
                          }
                        }
                    ],
                    "effects" : [

                    ],
                    "start" : 12093,
                    "duration" : 1584,
                    "mediaStart" : 0,
                    "mediaDuration" : 1584,
                    "scalar" : 1,
                    "metadata" : {
                      "clipSpeedAttribute" : false
                    },
                    "animationTracks" : {

                    }
                  },
                  {
                    "id" : 207,
                    "_type" : "UnifiedMedia",
                    "video" : 
                        {
                          "id" : 208,
                          "_type" : "VMFile",
                          "src" : 39,
                          "trackNumber" : 0,
                          "attributes" : {
                            "ident" : "Aufn. 06-17-20_030"
                          },
                          "parameters" : {
                            "translation0" : 709.666666666592,
                            "translation1" : -388.812499999753,
                            "scale0" : 0.217013888888969,
                            "scale1" : 0.217013888888969,
                            "sourceCrop0" : 0.0,
                            "sourceCrop1" : 0.0,
                            "sourceCrop2" : 0.0,
                            "sourceCrop3" : 0.0,
                            "geometryCrop0" : 0.0,
                            "geometryCrop1" : 0.0,
                            "geometryCrop2" : 0.0,
                            "geometryCrop3" : 0.0
                          },
                          "effects" : [

                          ],
                          "start" : 13677,
                          "duration" : 918,
                          "mediaStart" : 0,
                          "mediaDuration" : 918,
                          "scalar" : 1,
                          "animationTracks" : {

                          }
                        },
                    "audio" : 
                        {
                          "id" : 209,
                          "_type" : "AMFile",
                          "src" : 39,
                          "trackNumber" : 1,
                          "attributes" : {
                            "ident" : "",
                            "gain" : 1.0,
                            "mixToMono" : false
                          },
                            "channelNumber" : "0,1",
                          "effects" : [

                          ],
                          "start" : 13677,
                          "duration" : 918,
                          "mediaStart" : 0,
                          "mediaDuration" : 918,
                          "scalar" : 1,
                          "animationTracks" : {

                          }
                        }
,
                    "start" : 13677,
                    "duration" : 918,
                    "mediaStart" : 0,
                    "mediaDuration" : 994,
                    "scalar" : 1,
                    "metadata" : {
                      "clipSpeedAttribute" : false,
                      "default-scale0" : 1.0,
                      "default-scale1" : 1.0,
                      "default-translation0" : 0.0,
                      "default-translation1" : 0.0
                    }
                  },
                  {
                    "id" : 210,
                    "_type" : "UnifiedMedia",
                    "video" : 
                        {
                          "id" : 211,
                          "_type" : "VMFile",
                          "src" : 40,
                          "trackNumber" : 0,
                          "attributes" : {
                            "ident" : "Aufn. 06-17-20_031"
                          },
                          "parameters" : {
                            "translation0" : {
                              "type" : "double",
                              "defaultValue" : 709.666666666592,
                              "keyframes" : [
                                {
                                  "endTime" : 194,
                                  "time" : 164,
                                  "value" : 5020.43128180573,
                                  "duration" : 30
                                },
                                {
                                  "endTime" : 514,
                                  "time" : 484,
                                  "value" : 715.892796956835,
                                  "duration" : 30
                                }
                              ]
                            },
                            "translation1" : {
                              "type" : "double",
                              "defaultValue" : -388.812499999753,
                              "keyframes" : [
                                {
                                  "endTime" : 194,
                                  "time" : 164,
                                  "value" : -427.734770726738,
                                  "duration" : 30
                                },
                                {
                                  "endTime" : 514,
                                  "time" : 484,
                                  "value" : -356.460557967538,
                                  "duration" : 30
                                }
                              ]
                            },
                            "scale0" : {
                              "type" : "double",
                              "defaultValue" : 0.217013888888969,
                              "keyframes" : [
                                {
                                  "endTime" : 194,
                                  "time" : 164,
                                  "value" : 0.89552022165025,
                                  "duration" : 30
                                },
                                {
                                  "endTime" : 514,
                                  "time" : 484,
                                  "value" : 0.217013910207819,
                                  "duration" : 30
                                }
                              ]
                            },
                            "scale1" : {
                              "type" : "double",
                              "defaultValue" : 0.217013888888969,
                              "keyframes" : [
                                {
                                  "endTime" : 194,
                                  "time" : 164,
                                  "value" : 0.895519622623325,
                                  "duration" : 30
                                },
                                {
                                  "endTime" : 514,
                                  "time" : 484,
                                  "value" : 0.217013905456084,
                                  "duration" : 30
                                }
                              ]
                            },
                            "sourceCrop0" : 0.0,
                            "sourceCrop1" : 0.0,
                            "sourceCrop2" : 0.0,
                            "sourceCrop3" : 0.0,
                            "geometryCrop0" : 0.0,
                            "geometryCrop1" : 0.0,
                            "geometryCrop2" : 0.0,
                            "geometryCrop3" : 0.0,
                            "opacity" : {
                              "type" : "double",
                              "defaultValue" : 0.0,
                              "keyframes" : [
                                {
                                  "endTime" : 514,
                                  "time" : 484,
                                  "value" : 0.0,
                                  "duration" : 30
                                }
                              ]
                            }
                          },
                          "effects" : [

                          ],
                          "start" : 14595,
                          "duration" : 1318,
                          "mediaStart" : 0,
                          "mediaDuration" : 1318,
                          "scalar" : 1,
                          "animationTracks" : {
                            "visual" : [
                              {
                                "endTime" : 194,
                                "duration" : 30,
                                "range" : [ 164, 30]
                              },
                              {
                                "endTime" : 514,
                                "duration" : 30,
                                "range" : [ 484, 30]
                              }
                            ]
                          }
                        },
                    "audio" : 
                        {
                          "id" : 212,
                          "_type" : "AMFile",
                          "src" : 40,
                          "trackNumber" : 1,
                          "attributes" : {
                            "ident" : "",
                            "gain" : 1.0,
                            "mixToMono" : false
                          },
                            "channelNumber" : "0,1",
                          "effects" : [

                          ],
                          "start" : 14595,
                          "duration" : 1318,
                          "mediaStart" : 0,
                          "mediaDuration" : 1318,
                          "scalar" : 1,
                          "animationTracks" : {

                          }
                        }
,
                    "start" : 14595,
                    "duration" : 1318,
                    "mediaStart" : 0,
                    "mediaDuration" : 1380,
                    "scalar" : 1,
                    "metadata" : {
                      "clipSpeedAttribute" : false,
                      "default-opacity" : 1.0,
                      "default-scale0" : 1.0,
                      "default-scale1" : 1.0,
                      "default-translation0" : 0.0,
                      "default-translation1" : 0.0
                    }
                  },
                  {
                    "id" : 213,
                    "_type" : "StitchedMedia",
                    "minMediaStart" : 0,
                    "attributes" : {
                      "ident" : "Aufn. 06-17-20_032",
                      "gain" : 1.0,
                      "mixToMono" : false
                    },
                    "parameters" : {
                      "translation0" : {
                        "type" : "double",
                        "defaultValue" : 709.666666666592,
                        "keyframes" : [
                          {
                            "endTime" : 81,
                            "time" : 51,
                            "value" : 709.666666666592,
                            "duration" : 30
                          },
                          {
                            "endTime" : 296,
                            "time" : 266,
                            "value" : 709.666666666592,
                            "duration" : 30
                          }
                        ]
                      },
                      "translation1" : {
                        "type" : "double",
                        "defaultValue" : -388.812499999753,
                        "keyframes" : [
                          {
                            "endTime" : 81,
                            "time" : 51,
                            "value" : -388.812499999753,
                            "duration" : 30
                          },
                          {
                            "endTime" : 296,
                            "time" : 266,
                            "value" : -388.812499999753,
                            "duration" : 30
                          }
                        ]
                      },
                      "scale0" : {
                        "type" : "double",
                        "defaultValue" : 0.217013888888969,
                        "keyframes" : [
                          {
                            "endTime" : 81,
                            "time" : 51,
                            "value" : 0.217013888888969,
                            "duration" : 30
                          },
                          {
                            "endTime" : 296,
                            "time" : 266,
                            "value" : 0.217013888888969,
                            "duration" : 30
                          }
                        ]
                      },
                      "scale1" : {
                        "type" : "double",
                        "defaultValue" : 0.217013888888969,
                        "keyframes" : [
                          {
                            "endTime" : 81,
                            "time" : 51,
                            "value" : 0.217013888888969,
                            "duration" : 30
                          },
                          {
                            "endTime" : 296,
                            "time" : 266,
                            "value" : 0.217013888888969,
                            "duration" : 30
                          }
                        ]
                      },
                      "sourceCrop0" : 0.0,
                      "sourceCrop1" : 0.0,
                      "sourceCrop2" : 0.0,
                      "sourceCrop3" : 0.0,
                      "geometryCrop0" : 0.0,
                      "geometryCrop1" : 0.0,
                      "geometryCrop2" : 0.0,
                      "geometryCrop3" : 0.0,
                      "opacity" : {
                        "type" : "double",
                        "defaultValue" : 1.0,
                        "keyframes" : [
                          {
                            "endTime" : 81,
                            "time" : 51,
                            "value" : 0.0,
                            "duration" : 30
                          },
                          {
                            "endTime" : 296,
                            "time" : 266,
                            "value" : 1.0,
                            "duration" : 30
                          }
                        ]
                      },
                      "volume" : 1.0,
                      "cursorOpacity" : 1.0,
                      "cursorScale" : 1.0
                    },
                    "medias" : [
                        {
                          "id" : 214,
                          "_type" : "UnifiedMedia",
                          "video" : 
                              {
                                "id" : 215,
                                "_type" : "VMFile",
                                "src" : 41,
                                "trackNumber" : 0,
                                "attributes" : {
                                  "ident" : "Aufn. 06-17-20_032"
                                },
                                "parameters" : {
                                  "sourceCrop0" : 0.0,
                                  "sourceCrop1" : 0.0,
                                  "sourceCrop2" : 0.0,
                                  "sourceCrop3" : 0.0,
                                  "geometryCrop0" : 0.0,
                                  "geometryCrop1" : 0.0,
                                  "geometryCrop2" : 0.0,
                                  "geometryCrop3" : 0.0
                                },
                                "effects" : [

                                ],
                                "start" : 0,
                                "duration" : 610,
                                "mediaStart" : 0,
                                "mediaDuration" : 610,
                                "scalar" : 1,
                                "animationTracks" : {

                                }
                              },
                          "audio" : 
                              {
                                "id" : 216,
                                "_type" : "AMFile",
                                "src" : 41,
                                "trackNumber" : 1,
                                "attributes" : {
                                  "ident" : "",
                                  "gain" : 1.0,
                                  "mixToMono" : false
                                },
                                  "channelNumber" : "0,1",
                                "effects" : [

                                ],
                                "start" : 0,
                                "duration" : 610,
                                "mediaStart" : 0,
                                "mediaDuration" : 610,
                                "scalar" : 1,
                                "animationTracks" : {

                                }
                              }
,
                          "start" : 0,
                          "duration" : 610,
                          "mediaStart" : 0,
                          "mediaDuration" : 1076,
                          "scalar" : 1,
                          "metadata" : {
                            "clipSpeedAttribute" : false,
                            "default-opacity" : 1.0,
                            "default-scale0" : 1.0,
                            "default-scale1" : 1.0,
                            "default-translation0" : 0.0,
                            "default-translation1" : 0.0
                          }
                        },
                        {
                          "id" : 217,
                          "_type" : "UnifiedMedia",
                          "video" : 
                              {
                                "id" : 218,
                                "_type" : "VMFile",
                                "src" : 41,
                                "trackNumber" : 0,
                                "attributes" : {
                                  "ident" : "Aufn. 06-17-20_032"
                                },
                                "parameters" : {
                                  "sourceCrop0" : 0.0,
                                  "sourceCrop1" : 0.0,
                                  "sourceCrop2" : 0.0,
                                  "sourceCrop3" : 0.0,
                                  "geometryCrop0" : 0.0,
                                  "geometryCrop1" : 0.0,
                                  "geometryCrop2" : 0.0,
                                  "geometryCrop3" : 0.0
                                },
                                "effects" : [

                                ],
                                "start" : 610,
                                "duration" : 389,
                                "mediaStart" : 687,
                                "mediaDuration" : 389,
                                "scalar" : 1,
                                "animationTracks" : {

                                }
                              },
                          "audio" : 
                              {
                                "id" : 219,
                                "_type" : "AMFile",
                                "src" : 41,
                                "trackNumber" : 1,
                                "attributes" : {
                                  "ident" : "",
                                  "gain" : 1.0,
                                  "mixToMono" : false
                                },
                                  "channelNumber" : "0,1",
                                "effects" : [

                                ],
                                "start" : 610,
                                "duration" : 389,
                                "mediaStart" : 687,
                                "mediaDuration" : 389,
                                "scalar" : 1,
                                "animationTracks" : {

                                }
                              }
,
                          "start" : 610,
                          "duration" : 389,
                          "mediaStart" : 0,
                          "mediaDuration" : 1076,
                          "scalar" : 1,
                          "metadata" : {
                            "clipSpeedAttribute" : false,
                            "default-opacity" : 1.0,
                            "default-scale0" : 1.0,
                            "default-scale1" : 1.0,
                            "default-translation0" : 0.0,
                            "default-translation1" : 0.0
                          }
                        }
                    ],
                    "effects" : [

                    ],
                    "start" : 15913,
                    "duration" : 978,
                    "mediaStart" : 0,
                    "mediaDuration" : 978,
                    "scalar" : 1,
                    "metadata" : {
                      "clipSpeedAttribute" : false
                    },
                    "animationTracks" : {
                      "visual" : [
                        {
                          "endTime" : 81,
                          "duration" : 30,
                          "range" : [ 51, 30]
                        },
                        {
                          "endTime" : 296,
                          "duration" : 30,
                          "range" : [ 266, 30]
                        }
                      ]
                    }
                  },
                  {
                    "id" : 220,
                    "_type" : "StitchedMedia",
                    "minMediaStart" : 0,
                    "attributes" : {
                      "ident" : "Aufn. 06-17-20_033",
                      "gain" : 1.0,
                      "mixToMono" : false
                    },
                    "parameters" : {
                      "translation0" : 723.952380952048,
                      "translation1" : -408.705357142765,
                      "scale0" : 0.190228174603125,
                      "scale1" : 0.190228174603125,
                      "sourceCrop0" : 0.0,
                      "sourceCrop1" : 0.0,
                      "sourceCrop2" : 0.0,
                      "sourceCrop3" : 0.0,
                      "geometryCrop0" : 0.0,
                      "geometryCrop1" : 0.0,
                      "geometryCrop2" : 0.0,
                      "geometryCrop3" : 0.0,
                      "volume" : 1.0,
                      "cursorOpacity" : 1.0,
                      "cursorScale" : 1.0
                    },
                    "medias" : [
                        {
                          "id" : 221,
                          "_type" : "UnifiedMedia",
                          "video" : 
                              {
                                "id" : 222,
                                "_type" : "VMFile",
                                "src" : 42,
                                "trackNumber" : 0,
                                "attributes" : {
                                  "ident" : "Aufn. 06-17-20_033"
                                },
                                "parameters" : {
                                  "sourceCrop0" : 0.0,
                                  "sourceCrop1" : 0.0,
                                  "sourceCrop2" : 0.0,
                                  "sourceCrop3" : 0.0,
                                  "geometryCrop0" : 0.0,
                                  "geometryCrop1" : 0.0,
                                  "geometryCrop2" : 0.0,
                                  "geometryCrop3" : 0.0
                                },
                                "effects" : [

                                ],
                                "start" : 0,
                                "duration" : 344,
                                "mediaStart" : 0,
                                "mediaDuration" : 344,
                                "scalar" : 1,
                                "animationTracks" : {

                                }
                              },
                          "audio" : 
                              {
                                "id" : 223,
                                "_type" : "AMFile",
                                "src" : 42,
                                "trackNumber" : 1,
                                "attributes" : {
                                  "ident" : "",
                                  "gain" : 1.0,
                                  "mixToMono" : false
                                },
                                  "channelNumber" : "0,1",
                                "effects" : [

                                ],
                                "start" : 0,
                                "duration" : 344,
                                "mediaStart" : 0,
                                "mediaDuration" : 344,
                                "scalar" : 1,
                                "animationTracks" : {

                                }
                              }
,
                          "start" : 0,
                          "duration" : 344,
                          "mediaStart" : 0,
                          "mediaDuration" : 1349,
                          "scalar" : 1,
                          "metadata" : {
                            "clipSpeedAttribute" : false,
                            "default-scale0" : 1.0,
                            "default-scale1" : 1.0,
                            "default-translation0" : 0.0,
                            "default-translation1" : 0.0
                          }
                        },
                        {
                          "id" : 224,
                          "_type" : "UnifiedMedia",
                          "video" : 
                              {
                                "id" : 225,
                                "_type" : "VMFile",
                                "src" : 42,
                                "trackNumber" : 0,
                                "attributes" : {
                                  "ident" : "Aufn. 06-17-20_033"
                                },
                                "parameters" : {
                                  "sourceCrop0" : 0.0,
                                  "sourceCrop1" : 0.0,
                                  "sourceCrop2" : 0.0,
                                  "sourceCrop3" : 0.0,
                                  "geometryCrop0" : 0.0,
                                  "geometryCrop1" : 0.0,
                                  "geometryCrop2" : 0.0,
                                  "geometryCrop3" : 0.0
                                },
                                "effects" : [

                                ],
                                "start" : 344,
                                "duration" : 96,
                                "mediaStart" : 359,
                                "mediaDuration" : 96,
                                "scalar" : 1,
                                "animationTracks" : {

                                }
                              },
                          "audio" : 
                              {
                                "id" : 226,
                                "_type" : "AMFile",
                                "src" : 42,
                                "trackNumber" : 1,
                                "attributes" : {
                                  "ident" : "",
                                  "gain" : 1.0,
                                  "mixToMono" : false
                                },
                                  "channelNumber" : "0,1",
                                "effects" : [

                                ],
                                "start" : 344,
                                "duration" : 96,
                                "mediaStart" : 359,
                                "mediaDuration" : 96,
                                "scalar" : 1,
                                "animationTracks" : {

                                }
                              }
,
                          "start" : 344,
                          "duration" : 96,
                          "mediaStart" : 0,
                          "mediaDuration" : 1349,
                          "scalar" : 1,
                          "metadata" : {
                            "clipSpeedAttribute" : false,
                            "default-scale0" : 1.0,
                            "default-scale1" : 1.0,
                            "default-translation0" : 0.0,
                            "default-translation1" : 0.0
                          }
                        },
                        {
                          "id" : 227,
                          "_type" : "UnifiedMedia",
                          "video" : 
                              {
                                "id" : 228,
                                "_type" : "VMFile",
                                "src" : 42,
                                "trackNumber" : 0,
                                "attributes" : {
                                  "ident" : "Aufn. 06-17-20_033"
                                },
                                "parameters" : {
                                  "sourceCrop0" : 0.0,
                                  "sourceCrop1" : 0.0,
                                  "sourceCrop2" : 0.0,
                                  "sourceCrop3" : 0.0,
                                  "geometryCrop0" : 0.0,
                                  "geometryCrop1" : 0.0,
                                  "geometryCrop2" : 0.0,
                                  "geometryCrop3" : 0.0
                                },
                                "effects" : [

                                ],
                                "start" : 440,
                                "duration" : 122,
                                "mediaStart" : 488,
                                "mediaDuration" : 122,
                                "scalar" : 1,
                                "animationTracks" : {

                                }
                              },
                          "audio" : 
                              {
                                "id" : 229,
                                "_type" : "AMFile",
                                "src" : 42,
                                "trackNumber" : 1,
                                "attributes" : {
                                  "ident" : "",
                                  "gain" : 1.0,
                                  "mixToMono" : false
                                },
                                  "channelNumber" : "0,1",
                                "effects" : [

                                ],
                                "start" : 440,
                                "duration" : 122,
                                "mediaStart" : 488,
                                "mediaDuration" : 122,
                                "scalar" : 1,
                                "animationTracks" : {

                                }
                              }
,
                          "start" : 440,
                          "duration" : 122,
                          "mediaStart" : 0,
                          "mediaDuration" : 1349,
                          "scalar" : 1,
                          "metadata" : {
                            "clipSpeedAttribute" : false,
                            "default-scale0" : 1.0,
                            "default-scale1" : 1.0,
                            "default-translation0" : 0.0,
                            "default-translation1" : 0.0
                          }
                        },
                        {
                          "id" : 230,
                          "_type" : "UnifiedMedia",
                          "video" : 
                              {
                                "id" : 231,
                                "_type" : "VMFile",
                                "src" : 42,
                                "trackNumber" : 0,
                                "attributes" : {
                                  "ident" : "Aufn. 06-17-20_033"
                                },
                                "parameters" : {
                                  "sourceCrop0" : 0.0,
                                  "sourceCrop1" : 0.0,
                                  "sourceCrop2" : 0.0,
                                  "sourceCrop3" : 0.0,
                                  "geometryCrop0" : 0.0,
                                  "geometryCrop1" : 0.0,
                                  "geometryCrop2" : 0.0,
                                  "geometryCrop3" : 0.0
                                },
                                "effects" : [

                                ],
                                "start" : 562,
                                "duration" : 189,
                                "mediaStart" : 630,
                                "mediaDuration" : 189,
                                "scalar" : 1,
                                "animationTracks" : {

                                }
                              },
                          "audio" : 
                              {
                                "id" : 232,
                                "_type" : "AMFile",
                                "src" : 42,
                                "trackNumber" : 1,
                                "attributes" : {
                                  "ident" : "",
                                  "gain" : 1.0,
                                  "mixToMono" : false
                                },
                                  "channelNumber" : "0,1",
                                "effects" : [

                                ],
                                "start" : 562,
                                "duration" : 189,
                                "mediaStart" : 630,
                                "mediaDuration" : 189,
                                "scalar" : 1,
                                "animationTracks" : {

                                }
                              }
,
                          "start" : 562,
                          "duration" : 189,
                          "mediaStart" : 0,
                          "mediaDuration" : 1349,
                          "scalar" : 1,
                          "metadata" : {
                            "clipSpeedAttribute" : false,
                            "default-scale0" : 1.0,
                            "default-scale1" : 1.0,
                            "default-translation0" : 0.0,
                            "default-translation1" : 0.0
                          }
                        },
                        {
                          "id" : 233,
                          "_type" : "UnifiedMedia",
                          "video" : 
                              {
                                "id" : 234,
                                "_type" : "VMFile",
                                "src" : 42,
                                "trackNumber" : 0,
                                "attributes" : {
                                  "ident" : "Aufn. 06-17-20_033"
                                },
                                "parameters" : {
                                  "sourceCrop0" : 0.0,
                                  "sourceCrop1" : 0.0,
                                  "sourceCrop2" : 0.0,
                                  "sourceCrop3" : 0.0,
                                  "geometryCrop0" : 0.0,
                                  "geometryCrop1" : 0.0,
                                  "geometryCrop2" : 0.0,
                                  "geometryCrop3" : 0.0
                                },
                                "effects" : [

                                ],
                                "start" : 751,
                                "duration" : 490,
                                "mediaStart" : 859,
                                "mediaDuration" : 490,
                                "scalar" : 1,
                                "animationTracks" : {

                                }
                              },
                          "audio" : 
                              {
                                "id" : 235,
                                "_type" : "AMFile",
                                "src" : 42,
                                "trackNumber" : 1,
                                "attributes" : {
                                  "ident" : "",
                                  "gain" : 1.0,
                                  "mixToMono" : false
                                },
                                  "channelNumber" : "0,1",
                                "effects" : [

                                ],
                                "start" : 751,
                                "duration" : 490,
                                "mediaStart" : 859,
                                "mediaDuration" : 490,
                                "scalar" : 1,
                                "animationTracks" : {

                                }
                              }
,
                          "start" : 751,
                          "duration" : 490,
                          "mediaStart" : 0,
                          "mediaDuration" : 1349,
                          "scalar" : 1,
                          "metadata" : {
                            "clipSpeedAttribute" : false,
                            "default-scale0" : 1.0,
                            "default-scale1" : 1.0,
                            "default-translation0" : 0.0,
                            "default-translation1" : 0.0
                          }
                        }
                    ],
                    "effects" : [

                    ],
                    "start" : 16891,
                    "duration" : 1080,
                    "mediaStart" : 0,
                    "mediaDuration" : 1080,
                    "scalar" : 1,
                    "metadata" : {
                      "clipSpeedAttribute" : false
                    },
                    "animationTracks" : {

                    }
                  },
                  {
                    "id" : 236,
                    "_type" : "UnifiedMedia",
                    "video" : 
                        {
                          "id" : 237,
                          "_type" : "VMFile",
                          "src" : 45,
                          "trackNumber" : 0,
                          "attributes" : {
                            "ident" : "Aufn. 06-18-20_001"
                          },
                          "parameters" : {
                            "sourceCrop0" : 0.0,
                            "sourceCrop1" : 0.0,
                            "sourceCrop2" : 0.0,
                            "sourceCrop3" : 0.0,
                            "geometryCrop0" : 0.0,
                            "geometryCrop1" : 0.0,
                            "geometryCrop2" : 0.0,
                            "geometryCrop3" : 0.0
                          },
                          "effects" : [

                          ],
                          "start" : 17971,
                          "duration" : 94,
                          "mediaStart" : 0,
                          "mediaDuration" : 94,
                          "scalar" : 1,
                          "animationTracks" : {

                          }
                        },
                    "audio" : 
                        {
                          "id" : 238,
                          "_type" : "AMFile",
                          "src" : 45,
                          "trackNumber" : 1,
                          "attributes" : {
                            "ident" : "",
                            "gain" : 1.0,
                            "mixToMono" : false
                          },
                            "channelNumber" : "0,1",
                          "effects" : [

                          ],
                          "start" : 17971,
                          "duration" : 94,
                          "mediaStart" : 0,
                          "mediaDuration" : 94,
                          "scalar" : 1,
                          "animationTracks" : {

                          }
                        }
,
                    "start" : 17971,
                    "duration" : 94,
                    "mediaStart" : 0,
                    "mediaDuration" : 125,
                    "scalar" : 1,
                    "metadata" : {
                      "clipSpeedAttribute" : false
                    }
                  }
                ]
              },
              {
                "trackIndex" : 4,
                "medias" : [
                  {
                    "id" : 239,
                    "_type" : "StitchedMedia",
                    "minMediaStart" : 0,
                    "attributes" : {
                      "ident" : "Aufn. 06-17-20_011",
                      "gain" : 1.0,
                      "mixToMono" : false
                    },
                    "parameters" : {
                      "translation0" : 709.212473082111,
                      "translation1" : -389.06798392823,
                      "scale0" : 0.216540759348455,
                      "scale1" : 0.216540759348455,
                      "sourceCrop0" : 0.0,
                      "sourceCrop1" : 0.0,
                      "sourceCrop2" : 0.0,
                      "sourceCrop3" : 0.0,
                      "geometryCrop0" : 0.0,
                      "geometryCrop1" : 0.0,
                      "geometryCrop2" : 0.0,
                      "geometryCrop3" : 0.0,
                      "cursorOpacity" : 1.0,
                      "cursorScale" : 1.0
                    },
                    "medias" : [
                        {
                          "id" : 240,
                          "_type" : "VMFile",
                          "src" : 20,
                          "trackNumber" : 0,
                          "attributes" : {
                            "ident" : "Aufn. 06-17-20_011"
                          },
                          "parameters" : {
                            "sourceCrop0" : 0.0,
                            "sourceCrop1" : 0.0,
                            "sourceCrop2" : 0.0,
                            "sourceCrop3" : 0.0,
                            "geometryCrop0" : 0.0,
                            "geometryCrop1" : 0.0,
                            "geometryCrop2" : 0.0,
                            "geometryCrop3" : 0.0
                          },
                          "effects" : [

                          ],
                          "start" : 0,
                          "duration" : 664,
                          "mediaStart" : 0,
                          "mediaDuration" : 664,
                          "scalar" : 1,
                          "animationTracks" : {

                          }
                        },
                        {
                          "id" : 241,
                          "_type" : "VMFile",
                          "src" : 20,
                          "trackNumber" : 0,
                          "attributes" : {
                            "ident" : "Aufn. 06-17-20_011"
                          },
                          "parameters" : {
                            "sourceCrop0" : 0.0,
                            "sourceCrop1" : 0.0,
                            "sourceCrop2" : 0.0,
                            "sourceCrop3" : 0.0,
                            "geometryCrop0" : 0.0,
                            "geometryCrop1" : 0.0,
                            "geometryCrop2" : 0.0,
                            "geometryCrop3" : 0.0
                          },
                          "effects" : [

                          ],
                          "start" : 664,
                          "duration" : 197,
                          "mediaStart" : 714,
                          "mediaDuration" : 197,
                          "scalar" : 1,
                          "animationTracks" : {

                          }
                        },
                        {
                          "id" : 242,
                          "_type" : "VMFile",
                          "src" : 20,
                          "trackNumber" : 0,
                          "attributes" : {
                            "ident" : "Aufn. 06-17-20_011"
                          },
                          "parameters" : {
                            "sourceCrop0" : 0.0,
                            "sourceCrop1" : 0.0,
                            "sourceCrop2" : 0.0,
                            "sourceCrop3" : 0.0,
                            "geometryCrop0" : 0.0,
                            "geometryCrop1" : 0.0,
                            "geometryCrop2" : 0.0,
                            "geometryCrop3" : 0.0
                          },
                          "effects" : [

                          ],
                          "start" : 861,
                          "duration" : 314,
                          "mediaStart" : 989,
                          "mediaDuration" : 314,
                          "scalar" : 1,
                          "animationTracks" : {

                          }
                        }
                    ],
                    "effects" : [

                    ],
                    "start" : 998,
                    "duration" : 1175,
                    "mediaStart" : 0,
                    "mediaDuration" : 1175,
                    "scalar" : 1,
                    "metadata" : {
                      "clipSpeedAttribute" : false
                    },
                    "animationTracks" : {

                    }
                  },
                  {
                    "id" : 243,
                    "_type" : "UnifiedMedia",
                    "video" : 
                        {
                          "id" : 244,
                          "_type" : "VMFile",
                          "src" : 19,
                          "trackNumber" : 0,
                          "attributes" : {
                            "ident" : "Aufn. 06-17-20_010"
                          },
                          "parameters" : {
                            "translation0" : 709.212462307454,
                            "translation1" : -389.067989951845,
                            "scale0" : 0.216540759348455,
                            "scale1" : 0.216540759348455,
                            "sourceCrop0" : 0.0,
                            "sourceCrop1" : 0.0,
                            "sourceCrop2" : 0.0,
                            "sourceCrop3" : 0.0,
                            "geometryCrop0" : 0.0,
                            "geometryCrop1" : 0.0,
                            "geometryCrop2" : 0.0,
                            "geometryCrop3" : 0.0
                          },
                          "effects" : [

                          ],
                          "start" : 3516,
                          "duration" : 451,
                          "mediaStart" : 0,
                          "mediaDuration" : 451,
                          "scalar" : 1,
                          "animationTracks" : {

                          }
                        },
                    "audio" : 
                        {
                          "id" : 245,
                          "_type" : "AMFile",
                          "src" : 19,
                          "trackNumber" : 1,
                          "attributes" : {
                            "ident" : "",
                            "gain" : 1.0,
                            "mixToMono" : false
                          },
                            "channelNumber" : "0,1",
                          "effects" : [

                          ],
                          "start" : 3516,
                          "duration" : 451,
                          "mediaStart" : 0,
                          "mediaDuration" : 451,
                          "scalar" : 1,
                          "animationTracks" : {

                          }
                        }
,
                    "start" : 3516,
                    "duration" : 451,
                    "mediaStart" : 0,
                    "mediaDuration" : 451,
                    "scalar" : 1,
                    "metadata" : {
                      "clipSpeedAttribute" : false,
                      "default-scale0" : 1.0,
                      "default-scale1" : 1.0,
                      "default-translation0" : 0.0,
                      "default-translation1" : 0.0
                    }
                  }
                ]
              },
              {
                "trackIndex" : 5,
                "medias" : [
                  {
                    "id" : 246,
                    "_type" : "Callout",
                    "def" : {
                      "kind" : "remix",
                      "shape" : "speech-bubble2",
                      "style" : "basic",
                      "fill-color-blue" : 0.258823529411765,
                      "fill-color-green" : 0.258823529411765,
                      "fill-color-opacity" : 1.0,
                      "fill-color-red" : 0.988235294117647,
                      "height" : 180.0,
                      "line-spacing" : 0.0,
                      "stroke-color-blue" : 1.0,
                      "stroke-color-green" : 1.0,
                      "stroke-color-opacity" : 1.0,
                      "stroke-color-red" : 1.0,
                      "stroke-width" : 0.0,
                      "tail-x" : 264.000000000068,
                      "tail-y" : 194.000000000026,
                      "width" : 350.0,
                      "word-wrap" : 1.0,
                      "fill-style" : "solid",
                      "horizontal-alignment" : "center",
                      "resize-behavior" : "resizeText",
                      "stroke-style" : "solid",
                      "text" : "Like this!",
                      "vertical-alignment" : "center",
                      "font" : {
                        "color-blue" : 1.0,
                        "color-green" : 1.0,
                        "color-red" : 1.0,
                        "size" : 64.0,
                        "tracking" : 0.0,
                        "name" : "Montserrat",
                        "weight" : "Regular"
                      },
                      "textAttributes" : {
                        "type" : "textAttributeList",
                        "keyframes" : [
                          {
                            "endTime" : 0,
                            "time" : 0,
                            "value" : [{"name":"fgColor","rangeEnd":10,"rangeStart":0,"value":"(255,255,255,255)","valueType":"color"},{"name":"fontItalic","rangeEnd":10,"rangeStart":0,"value":0,"valueType":"int"},{"name":"strikethrough","rangeEnd":10,"rangeStart":0,"value":0,"valueType":"int"},{"name":"fontName","rangeEnd":10,"rangeStart":0,"value":"Montserrat","valueType":"string"},{"name":"kerning","rangeEnd":10,"rangeStart":0,"value":0,"valueType":"double"},{"name":"underline","rangeEnd":10,"rangeStart":0,"value":0,"valueType":"int"},{"name":"fontWeight","rangeEnd":10,"rangeStart":0,"value":400,"valueType":"int"},{"name":"fontSize","rangeEnd":10,"rangeStart":0,"value":64,"valueType":"double"}],
                            "duration" : 0
                          }
                        ]
                      }
                    },
                    "attributes" : {
                      "autoRotateText" : true
                    },
                    "parameters" : {
                      "translation0" : -557.99999999997,
                      "translation1" : -323.624999999712,
                      "sourceCrop0" : 0.0,
                      "sourceCrop1" : 0.0,
                      "sourceCrop2" : 0.0,
                      "sourceCrop3" : 0.0,
                      "geometryCrop0" : 0.0,
                      "geometryCrop1" : 0.0,
                      "geometryCrop2" : 0.0,
                      "geometryCrop3" : 0.0
                    },
                    "effects" : [

                    ],
                    "start" : 3500,
                    "duration" : 150,
                    "mediaStart" : 0,
                    "mediaDuration" : 150,
                    "scalar" : 1,
                    "metadata" : {
                      "clipSpeedAttribute" : false,
                      "default-HAlign" : "center",
                      "default-LineSpace" : 0.0,
                      "default-VAlign" : "center",
                      "default-text-attributes" : "[{\"name\":\"fontName\",\"rangeEnd\":3,\"rangeStart\":0,\"value\":\"Montserrat\",\"valueType\":\"string\"},{\"name\":\"fontWeight\",\"rangeEnd\":3,\"rangeStart\":0,\"value\":400,\"valueType\":\"int\"},{\"name\":\"fontSize\",\"rangeEnd\":3,\"rangeStart\":0,\"value\":64,\"valueType\":\"double\"},{\"name\":\"fgColor\",\"rangeEnd\":3,\"rangeStart\":0,\"value\":\"(255,255,255,255)\",\"valueType\":\"color\"},{\"name\":\"underline\",\"rangeEnd\":3,\"rangeStart\":0,\"value\":0,\"valueType\":\"int\"},{\"name\":\"kerning\",\"rangeEnd\":3,\"rangeStart\":0,\"value\":0,\"valueType\":\"double\"}]",
                      "default-translation0" : 0.0,
                      "default-translation1" : 0.0
                    },
                    "animationTracks" : {

                    }
                  },
                  {
                    "id" : 247,
                    "_type" : "Callout",
                    "def" : {
                      "kind" : "remix",
                      "shape" : "speech-bubble2",
                      "style" : "basic",
                      "fill-color-blue" : 0.258823529411765,
                      "fill-color-green" : 0.258823529411765,
                      "fill-color-opacity" : 1.0,
                      "fill-color-red" : 0.988235294117647,
                      "height" : 180.0,
                      "line-spacing" : 0.0,
                      "stroke-color-blue" : 1.0,
                      "stroke-color-green" : 1.0,
                      "stroke-color-opacity" : 1.0,
                      "stroke-color-red" : 1.0,
                      "stroke-width" : 0.0,
                      "tail-x" : -137.999999999862,
                      "tail-y" : -173.999999999979,
                      "width" : 350.0,
                      "word-wrap" : 1.0,
                      "fill-style" : "solid",
                      "horizontal-alignment" : "center",
                      "resize-behavior" : "resizeText",
                      "stroke-style" : "solid",
                      "text" : "Like this!",
                      "vertical-alignment" : "center",
                      "font" : {
                        "color-blue" : 1.0,
                        "color-green" : 1.0,
                        "color-red" : 1.0,
                        "size" : 64.0,
                        "tracking" : 0.0,
                        "name" : "Montserrat",
                        "weight" : "Regular"
                      },
                      "textAttributes" : {
                        "type" : "textAttributeList",
                        "keyframes" : [
                          {
                            "endTime" : 0,
                            "time" : 0,
                            "value" : [{"name":"fgColor","rangeEnd":10,"rangeStart":0,"value":"(255,255,255,255)","valueType":"color"},{"name":"fontItalic","rangeEnd":10,"rangeStart":0,"value":0,"valueType":"int"},{"name":"strikethrough","rangeEnd":10,"rangeStart":0,"value":0,"valueType":"int"},{"name":"fontName","rangeEnd":10,"rangeStart":0,"value":"Montserrat","valueType":"string"},{"name":"kerning","rangeEnd":10,"rangeStart":0,"value":0,"valueType":"double"},{"name":"underline","rangeEnd":10,"rangeStart":0,"value":0,"valueType":"int"},{"name":"fontWeight","rangeEnd":10,"rangeStart":0,"value":400,"valueType":"int"},{"name":"fontSize","rangeEnd":10,"rangeStart":0,"value":64,"valueType":"double"}],
                            "duration" : 0
                          }
                        ]
                      }
                    },
                    "attributes" : {
                      "autoRotateText" : true
                    },
                    "parameters" : {
                      "translation0" : 462.00000000015,
                      "translation1" : 398.375000000374,
                      "sourceCrop0" : 0.0,
                      "sourceCrop1" : 0.0,
                      "sourceCrop2" : 0.0,
                      "sourceCrop3" : 0.0,
                      "geometryCrop0" : 0.0,
                      "geometryCrop1" : 0.0,
                      "geometryCrop2" : 0.0,
                      "geometryCrop3" : 0.0
                    },
                    "effects" : [

                    ],
                    "start" : 4349,
                    "duration" : 150,
                    "mediaStart" : 0,
                    "mediaDuration" : 150,
                    "scalar" : 1,
                    "metadata" : {
                      "clipSpeedAttribute" : false,
                      "default-HAlign" : "center",
                      "default-LineSpace" : 0.0,
                      "default-VAlign" : "center",
                      "default-text-attributes" : "[{\"name\":\"fontName\",\"rangeEnd\":3,\"rangeStart\":0,\"value\":\"Montserrat\",\"valueType\":\"string\"},{\"name\":\"fontWeight\",\"rangeEnd\":3,\"rangeStart\":0,\"value\":400,\"valueType\":\"int\"},{\"name\":\"fontSize\",\"rangeEnd\":3,\"rangeStart\":0,\"value\":64,\"valueType\":\"double\"},{\"name\":\"fgColor\",\"rangeEnd\":3,\"rangeStart\":0,\"value\":\"(255,255,255,255)\",\"valueType\":\"color\"},{\"name\":\"underline\",\"rangeEnd\":3,\"rangeStart\":0,\"value\":0,\"valueType\":\"int\"},{\"name\":\"kerning\",\"rangeEnd\":3,\"rangeStart\":0,\"value\":0,\"valueType\":\"double\"}]",
                      "default-translation0" : 0.0,
                      "default-translation1" : 0.0
                    },
                    "animationTracks" : {

                    }
                  },
                  {
                    "id" : 248,
                    "_type" : "Callout",
                    "def" : {
                      "kind" : "remix",
                      "shape" : "shape-rectangle",
                      "style" : "basic",
                      "fill-color-blue" : 0.137254901960784,
                      "fill-color-green" : 0.8,
                      "fill-color-opacity" : 0.25,
                      "fill-color-red" : 0.87843137254902,
                      "height" : 192.000000000033,
                      "stroke-color-blue" : 1.0,
                      "stroke-color-green" : 1.0,
                      "stroke-color-opacity" : 1.0,
                      "stroke-color-red" : 1.0,
                      "stroke-width" : 0.0,
                      "width" : 360.000000000111,
                      "fill-style" : "solid",
                      "stroke-style" : "solid"
                    },
                    "attributes" : {
                      "autoRotateText" : true
                    },
                    "parameters" : {
                      "translation0" : -137.552863175112,
                      "translation1" : -5.99999999995605,
                      "sourceCrop0" : 0.0,
                      "sourceCrop1" : 0.0,
                      "sourceCrop2" : 0.0,
                      "sourceCrop3" : 0.0,
                      "geometryCrop0" : 0.0,
                      "geometryCrop1" : 0.0,
                      "geometryCrop2" : 0.0,
                      "geometryCrop3" : 0.0
                    },
                    "effects" : [

                    ],
                    "start" : 5131,
                    "duration" : 112,
                    "mediaStart" : 0,
                    "mediaDuration" : 112,
                    "scalar" : 1,
                    "metadata" : {
                      "clipSpeedAttribute" : false,
                      "default-fill-color-blue" : 1.0,
                      "default-fill-color-green" : 1.0,
                      "default-fill-color-opacity" : 1.0,
                      "default-fill-color-red" : 1.0,
                      "default-translation0" : 0.0,
                      "default-translation1" : 0.0
                    },
                    "animationTracks" : {

                    }
                  },
                  {
                    "id" : 249,
                    "_type" : "Callout",
                    "def" : {
                      "kind" : "remix",
                      "shape" : "shape-rectangle",
                      "style" : "basic",
                      "fill-color-blue" : 0.137254901960784,
                      "fill-color-green" : 0.8,
                      "fill-color-opacity" : 0.25,
                      "fill-color-red" : 0.87843137254902,
                      "height" : 309.999999999957,
                      "stroke-color-blue" : 1.0,
                      "stroke-color-green" : 1.0,
                      "stroke-color-opacity" : 1.0,
                      "stroke-color-red" : 1.0,
                      "stroke-width" : 0.0,
                      "width" : 582.000000000381,
                      "fill-style" : "solid",
                      "stroke-style" : "solid"
                    },
                    "attributes" : {
                      "autoRotateText" : true
                    },
                    "parameters" : {
                      "translation0" : 429.447136825282,
                      "translation1" : -5.99999999998728,
                      "sourceCrop0" : 0.0,
                      "sourceCrop1" : 0.0,
                      "sourceCrop2" : 0.0,
                      "sourceCrop3" : 0.0,
                      "geometryCrop0" : 0.0,
                      "geometryCrop1" : 0.0,
                      "geometryCrop2" : 0.0,
                      "geometryCrop3" : 0.0
                    },
                    "effects" : [

                    ],
                    "start" : 5243,
                    "duration" : 225,
                    "mediaStart" : 0,
                    "mediaDuration" : 225,
                    "scalar" : 1,
                    "metadata" : {
                      "clipSpeedAttribute" : false,
                      "default-fill-color-blue" : 1.0,
                      "default-fill-color-green" : 1.0,
                      "default-fill-color-opacity" : 1.0,
                      "default-fill-color-red" : 1.0,
                      "default-translation0" : 0.0,
                      "default-translation1" : 0.0
                    },
                    "animationTracks" : {

                    }
                  },
                  {
                    "id" : 250,
                    "_type" : "Callout",
                    "def" : {
                      "kind" : "TypeWinSVG",
                      "shape" : "",
                      "style" : "",
                      "DrawTime" : 1.0,
                      "borderColorBlue" : 0.0235294117647059,
                      "borderColorGreen" : 0.0235294117647059,
                      "borderColorRed" : 0.901960784313726,
                      "borderWidth" : 3.75,
                      "flipOnXAxis" : 0.0,
                      "flipOnYAxis" : 0.0,
                      "height" : 270.0,
                      "width" : 480.0,
                      "filename" : "C:\\Users\\ohund\\AppData\\Local\\TechSmith\\Camtasia Studio\\20.0\\Features\\Tools\\Annotations\\Defaults\\anim_drawnoval.svg",
                      "name" : "",
                      "resize-behavior" : "resizeCallout",
                      "xmlContent" : "﻿<?xml version=\"1.0\" encoding=\"utf-8\"?>\n<!-- Generator: Adobe Illustrator 13.0.2, SVG Export Plug-In . SVG Version: 6.00 Build 14948)  -->\n<!DOCTYPE svg PUBLIC \"-//W3C//DTD SVG 1.1//EN\" \"http://www.w3.org/Graphics/SVG/1.1/DTD/svg11.dtd\">\n<svg version=\"1.1\" id=\"Layer_1\" xmlns=\"http://www.w3.org/2000/svg\" xmlns:xlink=\"http://www.w3.org/1999/xlink\" x=\"0px\" y=\"0px\"\n\t width=\"299.75px\" height=\"214.496px\" viewBox=\"0 0 299.75 214.496\" enable-background=\"new 0 0 299.75 214.496\"\n\t xml:space=\"preserve\">\n<path fill=\"none\" d=\"M142.383,0.35c-26-3-55,14-74,24c-69,38-104,133-16,172c54,24,119,23,175,4c40-13,83-43,70-91\n\tc-25-95-141-116-224-99\"/>\n</svg>\n"
                    },
                    "attributes" : {
                      "autoRotateText" : true
                    },
                    "parameters" : {
                      "translation0" : -722.534807193571,
                      "translation1" : 134.714285714426,
                      "scale0" : 0.358485922408543,
                      "scale1" : 0.358485922408543,
                      "sourceCrop0" : 0.0,
                      "sourceCrop1" : 0.0,
                      "sourceCrop2" : 0.0,
                      "sourceCrop3" : 0.0,
                      "geometryCrop0" : 0.0,
                      "geometryCrop1" : 0.0,
                      "geometryCrop2" : 0.0,
                      "geometryCrop3" : 0.0
                    },
                    "leftEdgeMods" : [
                      {
                        "group" : "DrawPercentageFade",
                        "duration" : 30,
                        "parameters" : [
                          {
                            "name" : "DrawTime",
                              "func" : "FadeInFunc"
                            }
                        ]
                      }
                    ],
                    "effects" : [

                    ],
                    "start" : 12256,
                    "duration" : 153,
                    "mediaStart" : 0,
                    "mediaDuration" : 153,
                    "scalar" : 1,
                    "metadata" : {
                      "clipSpeedAttribute" : false,
                      "default-scale0" : 1.0,
                      "default-scale1" : 1.0,
                      "default-stroke-color-blue" : 0.0,
                      "default-stroke-color-green" : 0.0,
                      "default-stroke-color-red" : 1.0,
                      "default-stroke-width" : 5.0,
                      "default-translation0" : 0.0,
                      "default-translation1" : 0.0
                    },
                    "animationTracks" : {

                    }
                  },
                  {
                    "id" : 251,
                    "_type" : "Callout",
                    "def" : {
                      "kind" : "TypeWinSVG",
                      "shape" : "",
                      "style" : "",
                      "DrawTime" : 1.0,
                      "borderColorBlue" : 0.0235294117647059,
                      "borderColorGreen" : 0.0235294117647059,
                      "borderColorRed" : 0.901960784313726,
                      "borderWidth" : 3.75,
                      "flipOnXAxis" : 0.0,
                      "flipOnYAxis" : 0.0,
                      "height" : 270.0,
                      "width" : 480.0,
                      "filename" : "C:\\Users\\ohund\\AppData\\Local\\TechSmith\\Camtasia Studio\\20.0\\Features\\Tools\\Annotations\\Defaults\\anim_drawnoval.svg",
                      "name" : "",
                      "resize-behavior" : "resizeCallout",
                      "xmlContent" : "﻿<?xml version=\"1.0\" encoding=\"utf-8\"?>\n<!-- Generator: Adobe Illustrator 13.0.2, SVG Export Plug-In . SVG Version: 6.00 Build 14948)  -->\n<!DOCTYPE svg PUBLIC \"-//W3C//DTD SVG 1.1//EN\" \"http://www.w3.org/Graphics/SVG/1.1/DTD/svg11.dtd\">\n<svg version=\"1.1\" id=\"Layer_1\" xmlns=\"http://www.w3.org/2000/svg\" xmlns:xlink=\"http://www.w3.org/1999/xlink\" x=\"0px\" y=\"0px\"\n\t width=\"299.75px\" height=\"214.496px\" viewBox=\"0 0 299.75 214.496\" enable-background=\"new 0 0 299.75 214.496\"\n\t xml:space=\"preserve\">\n<path fill=\"none\" d=\"M142.383,0.35c-26-3-55,14-74,24c-69,38-104,133-16,172c54,24,119,23,175,4c40-13,83-43,70-91\n\tc-25-95-141-116-224-99\"/>\n</svg>\n"
                    },
                    "attributes" : {
                      "autoRotateText" : true
                    },
                    "parameters" : {
                      "translation0" : -537.142857142635,
                      "translation1" : -165.285714285534,
                      "scale0" : 0.358485922408543,
                      "scale1" : 0.358485922408543,
                      "sourceCrop0" : 0.0,
                      "sourceCrop1" : 0.0,
                      "sourceCrop2" : 0.0,
                      "sourceCrop3" : 0.0,
                      "geometryCrop0" : 0.0,
                      "geometryCrop1" : 0.0,
                      "geometryCrop2" : 0.0,
                      "geometryCrop3" : 0.0
                    },
                    "leftEdgeMods" : [
                      {
                        "group" : "DrawPercentageFade",
                        "duration" : 30,
                        "parameters" : [
                          {
                            "name" : "DrawTime",
                              "func" : "FadeInFunc"
                            }
                        ]
                      }
                    ],
                    "effects" : [

                    ],
                    "start" : 12409,
                    "duration" : 131,
                    "mediaStart" : 0,
                    "mediaDuration" : 131,
                    "scalar" : 1,
                    "metadata" : {
                      "clipSpeedAttribute" : false,
                      "default-scale0" : 1.0,
                      "default-scale1" : 1.0,
                      "default-stroke-color-blue" : 0.0,
                      "default-stroke-color-green" : 0.0,
                      "default-stroke-color-red" : 1.0,
                      "default-stroke-width" : 5.0,
                      "default-translation0" : 0.0,
                      "default-translation1" : 0.0
                    },
                    "animationTracks" : {

                    }
                  },
                  {
                    "id" : 252,
                    "_type" : "Callout",
                    "def" : {
                      "kind" : "TypeWinSVG",
                      "shape" : "",
                      "style" : "",
                      "DrawTime" : 1.0,
                      "borderColorBlue" : 0.0,
                      "borderColorGreen" : 0.0,
                      "borderColorRed" : 1.0,
                      "borderWidth" : 5.0,
                      "flipOnXAxis" : 0.0,
                      "flipOnYAxis" : 0.0,
                      "height" : 270.0,
                      "width" : 480.0,
                      "filename" : "C:\\Users\\ohund\\AppData\\Local\\TechSmith\\Camtasia Studio\\20.0\\Features\\Tools\\Annotations\\Defaults\\anim_arrow.svg",
                      "name" : "",
                      "resize-behavior" : "resizeCallout",
                      "xmlContent" : "﻿<?xml version=\"1.0\" encoding=\"utf-8\"?>\n<!-- Generator: Adobe Illustrator 13.0.2, SVG Export Plug-In . SVG Version: 6.00 Build 14948)  -->\n<!DOCTYPE svg PUBLIC \"-//W3C//DTD SVG 1.1//EN\" \"http://www.w3.org/Graphics/SVG/1.1/DTD/svg11.dtd\">\n<svg version=\"1.1\" id=\"Layer_1\" xmlns=\"http://www.w3.org/2000/svg\" xmlns:xlink=\"http://www.w3.org/1999/xlink\" x=\"0px\" y=\"0px\"\n\t width=\"151.268px\" height=\"53px\" viewBox=\"0 0 151.268 53\" enable-background=\"new 0 0 151.268 53\" xml:space=\"preserve\">\n<path fill=\"none\" d=\"M12.852,24.926c0,0,85.25-8.838,118.688-2.996\"/>\n<path fill=\"none\" d=\"M93.169,2.713c0,0,46.52,8.657,49.944,18.729c3.424,10.071-43.753,26.022-43.753,26.022\"/>\n</svg>\n"
                    },
                    "attributes" : {
                      "autoRotateText" : true
                    },
                    "parameters" : {
                      "translation0" : -228.571428571333,
                      "translation1" : -334.285714285714,
                      "rotation2" : 1.29430375957974,
                      "scale0" : 0.518271971639282,
                      "scale1" : 0.4770425268586,
                      "sourceCrop0" : 0.0,
                      "sourceCrop1" : 0.0,
                      "sourceCrop2" : 0.0,
                      "sourceCrop3" : 0.0,
                      "geometryCrop0" : 0.0,
                      "geometryCrop1" : 0.0,
                      "geometryCrop2" : 0.0,
                      "geometryCrop3" : 0.0
                    },
                    "leftEdgeMods" : [
                      {
                        "group" : "DrawPercentageFade",
                        "duration" : 30,
                        "parameters" : [
                          {
                            "name" : "DrawTime",
                              "func" : "FadeInFunc"
                            }
                        ]
                      }
                    ],
                    "effects" : [

                    ],
                    "start" : 12594,
                    "duration" : 150,
                    "mediaStart" : 0,
                    "mediaDuration" : 150,
                    "scalar" : 1,
                    "metadata" : {
                      "clipSpeedAttribute" : false,
                      "default-legacy-flip-x" : 0.0,
                      "default-legacy-flip-y" : 0.0,
                      "default-rotation2" : 0.0,
                      "default-scale0" : 1.0,
                      "default-scale1" : 1.0,
                      "default-translation0" : 0.0,
                      "default-translation1" : 0.0
                    },
                    "animationTracks" : {

                    }
                  },
                  {
                    "id" : 253,
                    "_type" : "Callout",
                    "def" : {
                      "kind" : "TypeWinSVG",
                      "shape" : "",
                      "style" : "",
                      "DrawTime" : 1.0,
                      "borderColorBlue" : 0.0,
                      "borderColorGreen" : 1.0,
                      "borderColorRed" : 0.0235294117647059,
                      "borderWidth" : 5.0,
                      "flipOnXAxis" : 0.0,
                      "flipOnYAxis" : 0.0,
                      "height" : 270.0,
                      "width" : 480.0,
                      "filename" : "C:\\Users\\ohund\\AppData\\Local\\TechSmith\\Camtasia Studio\\20.0\\Features\\Tools\\Annotations\\Defaults\\anim_drawnoval.svg",
                      "name" : "",
                      "resize-behavior" : "resizeCallout",
                      "xmlContent" : "﻿<?xml version=\"1.0\" encoding=\"utf-8\"?>\n<!-- Generator: Adobe Illustrator 13.0.2, SVG Export Plug-In . SVG Version: 6.00 Build 14948)  -->\n<!DOCTYPE svg PUBLIC \"-//W3C//DTD SVG 1.1//EN\" \"http://www.w3.org/Graphics/SVG/1.1/DTD/svg11.dtd\">\n<svg version=\"1.1\" id=\"Layer_1\" xmlns=\"http://www.w3.org/2000/svg\" xmlns:xlink=\"http://www.w3.org/1999/xlink\" x=\"0px\" y=\"0px\"\n\t width=\"299.75px\" height=\"214.496px\" viewBox=\"0 0 299.75 214.496\" enable-background=\"new 0 0 299.75 214.496\"\n\t xml:space=\"preserve\">\n<path fill=\"none\" d=\"M142.383,0.35c-26-3-55,14-74,24c-69,38-104,133-16,172c54,24,119,23,175,4c40-13,83-43,70-91\n\tc-25-95-141-116-224-99\"/>\n</svg>\n"
                    },
                    "attributes" : {
                      "autoRotateText" : true
                    },
                    "parameters" : {
                      "translation0" : 222.857142857134,
                      "translation1" : 105.131539775421,
                      "rotation2" : -1.5707963267949,
                      "scale0" : 1.15476190476182,
                      "sourceCrop0" : 0.0,
                      "sourceCrop1" : 0.0,
                      "sourceCrop2" : 0.0,
                      "sourceCrop3" : 0.0,
                      "geometryCrop0" : 0.0,
                      "geometryCrop1" : 0.0,
                      "geometryCrop2" : 0.0,
                      "geometryCrop3" : 0.0
                    },
                    "leftEdgeMods" : [
                      {
                        "group" : "DrawPercentageFade",
                        "duration" : 30,
                        "parameters" : [
                          {
                            "name" : "DrawTime",
                              "func" : "FadeInFunc"
                            }
                        ]
                      }
                    ],
                    "effects" : [

                    ],
                    "start" : 14789,
                    "duration" : 316,
                    "mediaStart" : 0,
                    "mediaDuration" : 316,
                    "scalar" : 1,
                    "metadata" : {
                      "clipSpeedAttribute" : false,
                      "default-rotation2" : 0.0,
                      "default-scale0" : 1.0,
                      "default-scale1" : 1.0,
                      "default-stroke-color-green" : 0.0,
                      "default-stroke-color-red" : 1.0,
                      "default-translation0" : 0.0,
                      "default-translation1" : 0.0
                    },
                    "animationTracks" : {

                    }
                  },
                  {
                    "id" : 254,
                    "_type" : "Callout",
                    "def" : {
                      "kind" : "remix",
                      "shape" : "text",
                      "style" : "basic",
                      "height" : 250.0,
                      "line-spacing" : 0.0,
                      "width" : 400.0,
                      "word-wrap" : 1.0,
                      "horizontal-alignment" : "center",
                      "resize-behavior" : "resizeText",
                      "text" : "*Modularity",
                      "vertical-alignment" : "center",
                      "font" : {
                        "color-blue" : 1.0,
                        "color-green" : 1.0,
                        "color-red" : 1.0,
                        "size" : 96.0,
                        "tracking" : 0.0,
                        "name" : "Montserrat",
                        "weight" : "Regular"
                      },
                      "textAttributes" : {
                        "type" : "textAttributeList",
                        "keyframes" : [
                          {
                            "endTime" : 0,
                            "time" : 0,
                            "value" : [{"name":"fontName","rangeEnd":11,"rangeStart":0,"value":"Montserrat","valueType":"string"},{"name":"strikethrough","rangeEnd":11,"rangeStart":0,"value":0,"valueType":"int"},{"name":"fgColor","rangeEnd":11,"rangeStart":0,"value":"(13,0,0,255)","valueType":"color"},{"name":"fontItalic","rangeEnd":11,"rangeStart":0,"value":0,"valueType":"int"},{"name":"underline","rangeEnd":11,"rangeStart":0,"value":0,"valueType":"int"},{"name":"fontSize","rangeEnd":11,"rangeStart":0,"value":96,"valueType":"double"},{"name":"fontWeight","rangeEnd":11,"rangeStart":0,"value":400,"valueType":"int"},{"name":"kerning","rangeEnd":11,"rangeStart":0,"value":0,"valueType":"double"}],
                            "duration" : 0
                          }
                        ]
                      }
                    },
                    "attributes" : {
                      "autoRotateText" : true
                    },
                    "parameters" : {
                      "translation0" : 707.559443157577,
                      "translation1" : 464.285714285651,
                      "sourceCrop0" : 0.0,
                      "sourceCrop1" : 0.0,
                      "sourceCrop2" : 0.0,
                      "sourceCrop3" : 0.0,
                      "geometryCrop0" : 0.0,
                      "geometryCrop1" : 0.0,
                      "geometryCrop2" : 0.0,
                      "geometryCrop3" : 0.0
                    },
                    "effects" : [

                    ],
                    "start" : 15560,
                    "duration" : 40,
                    "mediaStart" : 0,
                    "mediaDuration" : 40,
                    "scalar" : 1,
                    "metadata" : {
                      "clipSpeedAttribute" : false,
                      "default-HAlign" : "center",
                      "default-LineSpace" : 0.0,
                      "default-VAlign" : "center",
                      "default-translation0" : 0.0,
                      "default-translation1" : 0.0
                    },
                    "animationTracks" : {

                    }
                  }
                ]
              },
              {
                "trackIndex" : 6,
                "medias" : [
                  {
                    "id" : 255,
                    "_type" : "Callout",
                    "def" : {
                      "kind" : "TypeWinSVG",
                      "shape" : "",
                      "style" : "",
                      "DrawTime" : 1.0,
                      "borderColorBlue" : 0.0235294117647059,
                      "borderColorGreen" : 0.0235294117647059,
                      "borderColorRed" : 0.901960784313726,
                      "borderWidth" : 3.75,
                      "flipOnXAxis" : 0.0,
                      "flipOnYAxis" : 0.0,
                      "height" : 270.0,
                      "width" : 480.0,
                      "filename" : "C:\\Users\\ohund\\AppData\\Local\\TechSmith\\Camtasia Studio\\20.0\\Features\\Tools\\Annotations\\Defaults\\anim_drawnoval.svg",
                      "name" : "",
                      "resize-behavior" : "resizeCallout",
                      "xmlContent" : "﻿<?xml version=\"1.0\" encoding=\"utf-8\"?>\n<!-- Generator: Adobe Illustrator 13.0.2, SVG Export Plug-In . SVG Version: 6.00 Build 14948)  -->\n<!DOCTYPE svg PUBLIC \"-//W3C//DTD SVG 1.1//EN\" \"http://www.w3.org/Graphics/SVG/1.1/DTD/svg11.dtd\">\n<svg version=\"1.1\" id=\"Layer_1\" xmlns=\"http://www.w3.org/2000/svg\" xmlns:xlink=\"http://www.w3.org/1999/xlink\" x=\"0px\" y=\"0px\"\n\t width=\"299.75px\" height=\"214.496px\" viewBox=\"0 0 299.75 214.496\" enable-background=\"new 0 0 299.75 214.496\"\n\t xml:space=\"preserve\">\n<path fill=\"none\" d=\"M142.383,0.35c-26-3-55,14-74,24c-69,38-104,133-16,172c54,24,119,23,175,4c40-13,83-43,70-91\n\tc-25-95-141-116-224-99\"/>\n</svg>\n"
                    },
                    "attributes" : {
                      "autoRotateText" : true
                    },
                    "parameters" : {
                      "translation0" : 86.0366213780115,
                      "translation1" : 134.714285714455,
                      "scale0" : 0.358485922408543,
                      "scale1" : 0.358485922408543,
                      "sourceCrop0" : 0.0,
                      "sourceCrop1" : 0.0,
                      "sourceCrop2" : 0.0,
                      "sourceCrop3" : 0.0,
                      "geometryCrop0" : 0.0,
                      "geometryCrop1" : 0.0,
                      "geometryCrop2" : 0.0,
                      "geometryCrop3" : 0.0
                    },
                    "leftEdgeMods" : [
                      {
                        "group" : "DrawPercentageFade",
                        "duration" : 30,
                        "parameters" : [
                          {
                            "name" : "DrawTime",
                              "func" : "FadeInFunc"
                            }
                        ]
                      }
                    ],
                    "effects" : [

                    ],
                    "start" : 12256,
                    "duration" : 153,
                    "mediaStart" : 0,
                    "mediaDuration" : 153,
                    "scalar" : 1,
                    "metadata" : {
                      "clipSpeedAttribute" : false,
                      "default-scale0" : 1.0,
                      "default-scale1" : 1.0,
                      "default-stroke-color-blue" : 0.0,
                      "default-stroke-color-green" : 0.0,
                      "default-stroke-color-red" : 1.0,
                      "default-stroke-width" : 5.0,
                      "default-translation0" : 0.0,
                      "default-translation1" : 0.0
                    },
                    "animationTracks" : {

                    }
                  },
                  {
                    "id" : 256,
                    "_type" : "Callout",
                    "def" : {
                      "kind" : "TypeWinSVG",
                      "shape" : "",
                      "style" : "",
                      "DrawTime" : 1.0,
                      "borderColorBlue" : 0.0235294117647059,
                      "borderColorGreen" : 0.0235294117647059,
                      "borderColorRed" : 0.901960784313726,
                      "borderWidth" : 3.75,
                      "flipOnXAxis" : 0.0,
                      "flipOnYAxis" : 0.0,
                      "height" : 270.0,
                      "width" : 480.0,
                      "filename" : "C:\\Users\\ohund\\AppData\\Local\\TechSmith\\Camtasia Studio\\20.0\\Features\\Tools\\Annotations\\Defaults\\anim_drawnoval.svg",
                      "name" : "",
                      "resize-behavior" : "resizeCallout",
                      "xmlContent" : "﻿<?xml version=\"1.0\" encoding=\"utf-8\"?>\n<!-- Generator: Adobe Illustrator 13.0.2, SVG Export Plug-In . SVG Version: 6.00 Build 14948)  -->\n<!DOCTYPE svg PUBLIC \"-//W3C//DTD SVG 1.1//EN\" \"http://www.w3.org/Graphics/SVG/1.1/DTD/svg11.dtd\">\n<svg version=\"1.1\" id=\"Layer_1\" xmlns=\"http://www.w3.org/2000/svg\" xmlns:xlink=\"http://www.w3.org/1999/xlink\" x=\"0px\" y=\"0px\"\n\t width=\"299.75px\" height=\"214.496px\" viewBox=\"0 0 299.75 214.496\" enable-background=\"new 0 0 299.75 214.496\"\n\t xml:space=\"preserve\">\n<path fill=\"none\" d=\"M142.383,0.35c-26-3-55,14-74,24c-69,38-104,133-16,172c54,24,119,23,175,4c40-13,83-43,70-91\n\tc-25-95-141-116-224-99\"/>\n</svg>\n"
                    },
                    "attributes" : {
                      "autoRotateText" : true
                    },
                    "parameters" : {
                      "translation0" : 271.428571428948,
                      "translation1" : -165.285714285505,
                      "scale0" : 0.358485922408543,
                      "scale1" : 0.358485922408543,
                      "sourceCrop0" : 0.0,
                      "sourceCrop1" : 0.0,
                      "sourceCrop2" : 0.0,
                      "sourceCrop3" : 0.0,
                      "geometryCrop0" : 0.0,
                      "geometryCrop1" : 0.0,
                      "geometryCrop2" : 0.0,
                      "geometryCrop3" : 0.0
                    },
                    "leftEdgeMods" : [
                      {
                        "group" : "DrawPercentageFade",
                        "duration" : 30,
                        "parameters" : [
                          {
                            "name" : "DrawTime",
                              "func" : "FadeInFunc"
                            }
                        ]
                      }
                    ],
                    "effects" : [

                    ],
                    "start" : 12409,
                    "duration" : 131,
                    "mediaStart" : 0,
                    "mediaDuration" : 131,
                    "scalar" : 1,
                    "metadata" : {
                      "clipSpeedAttribute" : false,
                      "default-scale0" : 1.0,
                      "default-scale1" : 1.0,
                      "default-stroke-color-blue" : 0.0,
                      "default-stroke-color-green" : 0.0,
                      "default-stroke-color-red" : 1.0,
                      "default-stroke-width" : 5.0,
                      "default-translation0" : 0.0,
                      "default-translation1" : 0.0
                    },
                    "animationTracks" : {

                    }
                  }
                ]
              },
              {
                "trackIndex" : 7,
                "medias" : [
                ]
              }            ]
          }
        }
      ]
    },
    "trackAttributes" : [
      {
        "ident" : "",
        "audioMuted" : false,
        "videoHidden" : false,
        "magnetic" : false,
        "matte" : 0,
        "solo" : false,
        "metadata" : {
          "IsLocked" : "False",
          "WinTrackHeight" : "56"
        }
      },
      {
        "ident" : "",
        "audioMuted" : true,
        "videoHidden" : true,
        "magnetic" : false,
        "matte" : 0,
        "solo" : false,
        "metadata" : {
          "IsLocked" : "False",
          "WinTrackHeight" : "56"
        }
      },
      {
        "ident" : "",
        "audioMuted" : true,
        "videoHidden" : true,
        "magnetic" : false,
        "matte" : 0,
        "solo" : false,
        "metadata" : {
          "IsLocked" : "False",
          "WinTrackHeight" : "56"
        }
      },
      {
        "ident" : "",
        "audioMuted" : false,
        "videoHidden" : false,
        "magnetic" : false,
        "matte" : 0,
        "solo" : false,
        "metadata" : {
          "IsLocked" : "False",
          "WinTrackHeight" : "56"
        }
      },
      {
        "ident" : "",
        "audioMuted" : true,
        "videoHidden" : true,
        "magnetic" : false,
        "matte" : 0,
        "solo" : false,
        "metadata" : {
          "IsLocked" : "False",
          "WinTrackHeight" : "56"
        }
      },
      {
        "ident" : "Comments",
        "audioMuted" : false,
        "videoHidden" : false,
        "magnetic" : false,
        "matte" : 0,
        "solo" : false,
        "metadata" : {
          "IsLocked" : "False",
          "WinTrackHeight" : "56"
        }
      },
      {
        "ident" : "",
        "audioMuted" : false,
        "videoHidden" : false,
        "magnetic" : false,
        "matte" : 0,
        "solo" : false,
        "metadata" : {
          "IsLocked" : "False",
          "WinTrackHeight" : "56"
        }
      },
      {
        "ident" : "",
        "audioMuted" : false,
        "videoHidden" : false,
        "magnetic" : false,
        "matte" : 0,
        "solo" : false,
        "metadata" : {
          "IsLocked" : "False",
          "WinTrackHeight" : "56"
        }
      }
    ],
    "captionAttributes" : {
      "enabled" : true,
      "fontName" : "Arial",
      "fontSize" : 64,
      "backgroundColor" : [ 0, 0, 0, 191],
      "foregroundColor" : [ 255, 255, 255, 255],
      "lang" : "en",
      "alignment" : 0,
      "defaultFontSize" : true,
      "opacity" : 0.5,
      "backgroundEnabled" : true,
      "backgroundOnlyAroundText" : true
    },
    "backgroundColor" : [ 0, 0, 0, 255]
  },
  "metadata" : {
    "AutoSaveFile" : "",
    "CanvasZoom" : 63,
    "Date" : "17.06.2020 09:50:25 ",
    "Fit" : 1,
    "IsAutoSave" : "0",
    "Language" : "DEU",
    "ProfileName" : "",
    "ProjectDimensionsChanged" : "1",
    "ShouldHardlinkProjectMedia" : "0",
    "Title" : "second_attempt",
    "audioNarrationNotes" : "",
    "calloutStyle" : "Basic",
    "canvasDetached" : "False",
    "canvasPositionHeight" : "0",
    "canvasPositionLeft" : "0",
    "canvasPositionTop" : "0",
    "canvasPositionWidth" : "0"
  }
}
