<?xml version="1.0" encoding="utf-8" standalone="no"?>
<!DOCTYPE svg PUBLIC "-//W3C//DTD SVG 1.1//EN"
  "http://www.w3.org/Graphics/SVG/1.1/DTD/svg11.dtd">
<!-- Created with matplotlib (https://matplotlib.org/) -->
<svg height="231.84pt" version="1.1" viewBox="0 0 349.2 231.84" width="349.2pt" xmlns="http://www.w3.org/2000/svg" xmlns:xlink="http://www.w3.org/1999/xlink">
 <defs>
  <style type="text/css">
*{stroke-linecap:butt;stroke-linejoin:round;}
  </style>
 </defs>
 <g id="figure_1">
  <g id="patch_1">
   <path d="M 0 231.84 
L 349.2 231.84 
L 349.2 0 
L 0 0 
z
" style="fill:none;"/>
  </g>
  <g id="axes_1">
   <g id="patch_2">
    <path d="M 7.2 224.64 
L 342 224.64 
L 342 7.2 
L 7.2 7.2 
z
" style="fill:#ffffff;"/>
   </g>
   <g id="LineCollection_1">
    <path clip-path="url(#p8d9a4be644)" d="M 24.958623 203.435232 
L 92.922397 204.116258 
" style="fill:none;stroke:#000000;stroke-opacity:0.5;"/>
    <path clip-path="url(#p8d9a4be644)" d="M 24.958623 203.435232 
L 41.662897 190.441615 
" style="fill:none;stroke:#000000;stroke-opacity:0.5;"/>
    <path clip-path="url(#p8d9a4be644)" d="M 24.958623 203.435232 
L 60.837256 213.339199 
" style="fill:none;stroke:#000000;stroke-opacity:0.5;"/>
    <path clip-path="url(#p8d9a4be644)" d="M 24.958623 203.435232 
L 94.374309 180.530159 
" style="fill:none;stroke:#000000;stroke-opacity:0.5;"/>
    <path clip-path="url(#p8d9a4be644)" d="M 92.922397 204.116258 
L 41.662897 190.441615 
" style="fill:none;stroke:#000000;stroke-opacity:0.5;"/>
    <path clip-path="url(#p8d9a4be644)" d="M 92.922397 204.116258 
L 60.837256 213.339199 
" style="fill:none;stroke:#000000;stroke-opacity:0.5;"/>
    <path clip-path="url(#p8d9a4be644)" d="M 92.922397 204.116258 
L 94.374309 180.530159 
" style="fill:none;stroke:#000000;stroke-opacity:0.5;"/>
    <path clip-path="url(#p8d9a4be644)" d="M 41.662897 190.441615 
L 60.837256 213.339199 
" style="fill:none;stroke:#000000;stroke-opacity:0.5;"/>
    <path clip-path="url(#p8d9a4be644)" d="M 41.662897 190.441615 
L 94.374309 180.530159 
" style="fill:none;stroke:#000000;stroke-opacity:0.5;"/>
    <path clip-path="url(#p8d9a4be644)" d="M 60.837256 213.339199 
L 94.374309 180.530159 
" style="fill:none;stroke:#000000;stroke-opacity:0.5;"/>
    <path clip-path="url(#p8d9a4be644)" d="M 94.374309 180.530159 
L 160.553188 138.62978 
" style="fill:none;stroke:#000000;stroke-opacity:0.5;"/>
    <path clip-path="url(#p8d9a4be644)" d="M 160.553188 138.62978 
L 218.808209 96.620556 
" style="fill:none;stroke:#000000;stroke-opacity:0.5;"/>
    <path clip-path="url(#p8d9a4be644)" d="M 218.808209 96.620556 
L 272.018371 52.29727 
" style="fill:none;stroke:#000000;stroke-opacity:0.5;"/>
    <path clip-path="url(#p8d9a4be644)" d="M 272.018371 52.29727 
L 261.820847 31.231936 
" style="fill:none;stroke:#000000;stroke-opacity:0.5;"/>
    <path clip-path="url(#p8d9a4be644)" d="M 272.018371 52.29727 
L 323.464133 38.089776 
" style="fill:none;stroke:#000000;stroke-opacity:0.5;"/>
    <path clip-path="url(#p8d9a4be644)" d="M 272.018371 52.29727 
L 324.241377 23.4971 
" style="fill:none;stroke:#000000;stroke-opacity:0.5;"/>
    <path clip-path="url(#p8d9a4be644)" d="M 272.018371 52.29727 
L 281.981572 18.500801 
" style="fill:none;stroke:#000000;stroke-opacity:0.5;"/>
    <path clip-path="url(#p8d9a4be644)" d="M 261.820847 31.231936 
L 323.464133 38.089776 
" style="fill:none;stroke:#000000;stroke-opacity:0.5;"/>
    <path clip-path="url(#p8d9a4be644)" d="M 261.820847 31.231936 
L 324.241377 23.4971 
" style="fill:none;stroke:#000000;stroke-opacity:0.5;"/>
    <path clip-path="url(#p8d9a4be644)" d="M 261.820847 31.231936 
L 281.981572 18.500801 
" style="fill:none;stroke:#000000;stroke-opacity:0.5;"/>
    <path clip-path="url(#p8d9a4be644)" d="M 323.464133 38.089776 
L 324.241377 23.4971 
" style="fill:none;stroke:#000000;stroke-opacity:0.5;"/>
    <path clip-path="url(#p8d9a4be644)" d="M 323.464133 38.089776 
L 281.981572 18.500801 
" style="fill:none;stroke:#000000;stroke-opacity:0.5;"/>
    <path clip-path="url(#p8d9a4be644)" d="M 324.241377 23.4971 
L 281.981572 18.500801 
" style="fill:none;stroke:#000000;stroke-opacity:0.5;"/>
   </g>
   <g id="matplotlib.axis_1">
    <g id="xtick_1"/>
    <g id="xtick_2"/>
    <g id="xtick_3"/>
    <g id="xtick_4"/>
    <g id="xtick_5"/>
    <g id="xtick_6"/>
    <g id="xtick_7"/>
   </g>
   <g id="matplotlib.axis_2">
    <g id="ytick_1"/>
    <g id="ytick_2"/>
    <g id="ytick_3"/>
    <g id="ytick_4"/>
    <g id="ytick_5"/>
    <g id="ytick_6"/>
    <g id="ytick_7"/>
    <g id="ytick_8"/>
    <g id="ytick_9"/>
   </g>
   <g id="PathCollection_1">
    <defs>
     <path d="M 0 3.162278 
C 0.838646 3.162278 1.643056 2.82908 2.236068 2.236068 
C 2.82908 1.643056 3.162278 0.838646 3.162278 0 
C 3.162278 -0.838646 2.82908 -1.643056 2.236068 -2.236068 
C 1.643056 -2.82908 0.838646 -3.162278 0 -3.162278 
C -0.838646 -3.162278 -1.643056 -2.82908 -2.236068 -2.236068 
C -2.82908 -1.643056 -3.162278 -0.838646 -3.162278 0 
C -3.162278 0.838646 -2.82908 1.643056 -2.236068 2.236068 
C -1.643056 2.82908 -0.838646 3.162278 0 3.162278 
z
" id="C0_0_92ad71f7f9"/>
    </defs>
    <g clip-path="url(#p8d9a4be644)">
     <use style="fill:#000080;stroke:#000080;" x="24.958623" xlink:href="#C0_0_92ad71f7f9" y="203.435232"/>
    </g>
    <g clip-path="url(#p8d9a4be644)">
     <use style="fill:#000080;stroke:#000080;" x="92.922397" xlink:href="#C0_0_92ad71f7f9" y="204.116258"/>
    </g>
    <g clip-path="url(#p8d9a4be644)">
     <use style="fill:#000080;stroke:#000080;" x="41.662897" xlink:href="#C0_0_92ad71f7f9" y="190.441615"/>
    </g>
    <g clip-path="url(#p8d9a4be644)">
     <use style="fill:#000080;stroke:#000080;" x="60.837256" xlink:href="#C0_0_92ad71f7f9" y="213.339199"/>
    </g>
    <g clip-path="url(#p8d9a4be644)">
     <use style="fill:#000080;stroke:#000080;" x="94.374309" xlink:href="#C0_0_92ad71f7f9" y="180.530159"/>
    </g>
    <g clip-path="url(#p8d9a4be644)">
     <use style="fill:#7bff7b;stroke:#7bff7b;" x="160.553188" xlink:href="#C0_0_92ad71f7f9" y="138.62978"/>
    </g>
    <g clip-path="url(#p8d9a4be644)">
     <use style="fill:#7bff7b;stroke:#7bff7b;" x="218.808209" xlink:href="#C0_0_92ad71f7f9" y="96.620556"/>
    </g>
    <g clip-path="url(#p8d9a4be644)">
     <use style="fill:#800000;stroke:#800000;" x="272.018371" xlink:href="#C0_0_92ad71f7f9" y="52.29727"/>
    </g>
    <g clip-path="url(#p8d9a4be644)">
     <use style="fill:#800000;stroke:#800000;" x="261.820847" xlink:href="#C0_0_92ad71f7f9" y="31.231936"/>
    </g>
    <g clip-path="url(#p8d9a4be644)">
     <use style="fill:#800000;stroke:#800000;" x="323.464133" xlink:href="#C0_0_92ad71f7f9" y="38.089776"/>
    </g>
    <g clip-path="url(#p8d9a4be644)">
     <use style="fill:#800000;stroke:#800000;" x="324.241377" xlink:href="#C0_0_92ad71f7f9" y="23.4971"/>
    </g>
    <g clip-path="url(#p8d9a4be644)">
     <use style="fill:#800000;stroke:#800000;" x="281.981572" xlink:href="#C0_0_92ad71f7f9" y="18.500801"/>
    </g>
   </g>
   <g id="patch_3">
    <path d="M 7.2 224.64 
L 7.2 7.2 
" style="fill:none;stroke:#000000;stroke-linecap:square;stroke-linejoin:miter;stroke-width:0.8;"/>
   </g>
   <g id="patch_4">
    <path d="M 342 224.64 
L 342 7.2 
" style="fill:none;stroke:#000000;stroke-linecap:square;stroke-linejoin:miter;stroke-width:0.8;"/>
   </g>
   <g id="patch_5">
    <path d="M 7.2 224.64 
L 342 224.64 
" style="fill:none;stroke:#000000;stroke-linecap:square;stroke-linejoin:miter;stroke-width:0.8;"/>
   </g>
   <g id="patch_6">
    <path d="M 7.2 7.2 
L 342 7.2 
" style="fill:none;stroke:#000000;stroke-linecap:square;stroke-linejoin:miter;stroke-width:0.8;"/>
   </g>
  </g>
 </g>
 <defs>
  <clipPath id="p8d9a4be644">
   <rect height="217.44" width="334.8" x="7.2" y="7.2"/>
  </clipPath>
 </defs>
</svg>
